<?xml version="1.0" encoding="UTF-8"?>
<svg width="220px" height="220px" viewBox="0 0 220 220" version="1.1" xmlns="http://www.w3.org/2000/svg" xmlns:xlink="http://www.w3.org/1999/xlink">
    <!-- Generator: sketchtool 53 (72520) - https://sketchapp.com -->
    <title>62B87308-47F1-43C3-BEEA-5A27A3E6F4F0</title>
    <desc>Created with sketchtool.</desc>
    <defs>
        <linearGradient x1="54.7122508%" y1="37.7867954%" x2="16.9705579%" y2="89.6079401%" id="linearGradient-1">
            <stop stop-color="#AA5397" offset="0%"></stop>
            <stop stop-color="#72295E" offset="100%"></stop>
        </linearGradient>
        <path d="M84.7957446,56.4613108 C60.1470784,66.9492674 8.19608607,64.9660099 5.19891343,121.919002 C2.2017408,178.871994 48.0276752,197.356737 74.3107883,191.861273 C100.593901,186.365808 125.407071,181.86952 143.154658,184.867045 C160.902246,187.864571 214.00194,174.307939 216.000055,104.767412 C217.998171,35.2268842 168.6157,18.767813 140.159366,24.998998 C111.703032,31.230183 109.444411,45.9733541 84.7957446,56.4613108 Z" id="path-2"></path>
        <filter x="-3.3%" y="-3.0%" width="106.6%" height="108.3%" filterUnits="objectBoundingBox" id="filter-3">
            <feOffset dx="0" dy="2" in="SourceAlpha" result="shadowOffsetOuter1"></feOffset>
            <feGaussianBlur stdDeviation="2" in="shadowOffsetOuter1" result="shadowBlurOuter1"></feGaussianBlur>
            <feColorMatrix values="0 0 0 0 0.446586277   0 0 0 0 0.162176853   0 0 0 0 0.368513102  0 0 0 0.3 0" type="matrix" in="shadowBlurOuter1"></feColorMatrix>
        </filter>
        <linearGradient x1="54.7122508%" y1="38.2929846%" x2="16.9705579%" y2="87.9663473%" id="linearGradient-4">
            <stop stop-color="#AA5397" offset="0%"></stop>
            <stop stop-color="#72295E" offset="100%"></stop>
        </linearGradient>
        <linearGradient x1="54.7122508%" y1="41.6526037%" x2="16.9705579%" y2="77.0709599%" id="linearGradient-5">
            <stop stop-color="#AA5397" offset="0%"></stop>
            <stop stop-color="#72295E" offset="100%"></stop>
        </linearGradient>
    </defs>
    <g id="propuesta-2" stroke="none" stroke-width="1" fill="none" fill-rule="evenodd">
        <g id="detalle_-Electromiografía" transform="translate(-42.000000, -213.000000)">
            <g id="ELECTROMIOGRAFÍA_open" transform="translate(42.000000, 213.000000)">
                <path d="M110,214.499928 C160.134191,240.011894 206.370243,171.87234 218.112587,110.885998 C229.854931,49.8996566 185.453233,-17.6773629 122.569038,4.21285499 C59.6848421,26.1030729 0,51.972048 0,110.885998 C0,169.799948 59.8658087,188.987962 110,214.499928 Z" id="Oval" fill="url(#linearGradient-1)"></path>
                <g id="Path-29">
                    <use fill="black" fill-opacity="1" filter="url(#filter-3)" xlink:href="#path-2"></use>
                    <use fill="#FFFFFF" fill-rule="evenodd" xlink:href="#path-2"></use>
                </g>
                <g id="Group" transform="translate(5.000000, 65.000000)">
                    <path d="M102,24 C104.77632,31.1547999 109.113983,32.9434999 115.012989,29.3661 C123.861498,24 147.600646,34.8809777 143.265226,51.4256111 C140.374947,62.4553667 143.286538,71.6468296 152,79" id="Path-29" stroke="#72295E" stroke-width="2"></path>
                    <path d="M103,13.4787462 C109.038215,17.4307362 115.013093,16.7738727 120.924633,11.5081556 C129.791942,3.60957988 137.881004,-2.71332867 148.920669,3.53121563 C159.960335,9.77575993 155.666158,34.5398132 171,38" id="Path-30" stroke="#72295E" stroke-width="2"></path>
                    <circle id="Oval" stroke="#9B79C1" stroke-width="2" fill="#FFFFFF" cx="171" cy="41" r="11"></circle>
                    <circle id="Oval-Copy-10" stroke="#9B79C1" stroke-width="2" fill="#FFFFFF" cx="154" cy="79" r="11"></circle>
                    <circle id="Oval" stroke="#9B79C1" stroke-width="2" fill="#EFE1FF" cx="171.5" cy="41.5" r="5.5"></circle>
                    <circle id="Oval-Copy-11" stroke="#9B79C1" stroke-width="2" fill="#EFE1FF" cx="154.5" cy="79.5" r="5.5"></circle>
                    <path d="M99.8522198,4.1746516 L42.4162826,4.1746516 L38.0761719,4.1746516 L50.8295898,2.72848411e-12 L101.92611,0 C103.071488,0 104,0.934527592 104,2.0873258 L104,93.9126742 C104,95.0654724 103.071488,96 101.92611,96 L7.91918945,96 L5.9465332,91.8253484 L99.8522198,91.8253484 L99.8522198,4.1746516 Z" id="Combined-Shape" fill="url(#linearGradient-4)" fill-rule="nonzero"></path>
                    <path d="M87.7555002,50.9856364 L83.771409,37.9288914 L77.3883097,64.8638271 C77.07452,66.1879341 75.2528389,66.3142349 74.7618141,65.0459273 L68.961271,50.0632354 L62.3355084,57.4704264 C61.7301135,58.1472204 60.6525468,58.0637999 60.1569881,57.301775 L54.8880573,49.1996945 L49.3904234,73.8149673 C49.0453466,75.3600247 46.8132654,75.212775 46.6712945,73.6355873 L42.9113916,31.865925 L38.2087313,59.7205064 C37.9772682,61.0914977 36.110592,61.3070353 35.5769891,60.0243831 L28.7035673,43.2850687 C25.3492855,49.3201239 23.5996264,52.4436565 23.4545898,52.6556666 C23.237035,52.9736818 22.9003906,53.4199219 22.2048516,52.7846993 C21.741159,52.3612176 18.1117585,49.0006928 11.3166504,42.703125 L0.280517578,62.7032471 L0.460205078,56.032959 C6.76158457,44.7411132 10.0224081,38.897977 10.2426758,38.5035504 C10.5730772,37.9119105 11.482666,38.0894941 11.9123535,38.5035504 C12.1988118,38.7795879 15.8614909,41.9450711 22.9003906,48 C25.4964193,43.0183919 27.1219269,39.8529087 27.7769135,38.5035504 C27.9819501,38.0811481 28.7035673,37.9288914 29.3039551,38.5035504 C30.2108616,39.3715927 32.538072,44.7166962 36.2855864,54.538861 L41.9684613,20.8783175 C42.239174,19.2748447 44.5558826,19.3658838 44.7016928,20.9857247 L48.6257993,64.5795631 L52.91168,45.3898309 C53.1790249,44.1928126 54.7435491,43.9072738 55.4110378,44.9336771 L61.4839664,54.272072 L68.4089645,46.5303543 C69.096031,45.7622566 70.3457923,45.992256 70.7186818,46.9554224 L75.7293275,59.8978245 L82.2625268,32.3295077 C82.588586,30.953627 84.5098087,30.8918321 84.9223909,32.2439548 L87.7555002,41.5286784 L87.7555002,13.2614466 L42.8276401,13.2614466 L21.8076172,13.2614466 L26.4951172,10 L89.3777501,10 C90.273694,10 91,10.7300997 91,11.6307233 L91,83.3692767 C91,84.2699003 90.273694,85 89.3777501,85 L3.50537109,85 L2.56787109,81.7385534 L87.7555002,81.7385534 L87.7555002,50.9856364 Z" id="Combined-Shape" fill="url(#linearGradient-5)" fill-rule="nonzero"></path>
                </g>
                <circle id="Oval" fill="#16A1B2" cx="43" cy="29" r="4"></circle>
                <circle id="Oval-Copy-3" fill="#16A1B2" cx="37" cy="197" r="4"></circle>
                <circle id="Oval-Copy" fill="#16A1B2" cx="15" cy="51" r="2"></circle>
                <circle id="Oval-Copy-9" fill="#16A1B2" cx="69" cy="5" r="1"></circle>
                <circle id="Oval-Copy-8" fill="#B0B0B0" cx="60" cy="22" r="2"></circle>
                <circle id="Oval-Copy-2" fill="#16A1B2" cx="212" cy="170" r="2"></circle>
                <circle id="Oval-Copy-4" fill="#B0B0B0" cx="60.5" cy="201.5" r="1.5"></circle>
                <circle id="Oval-Copy-7" fill="#B0B0B0" cx="47.5" cy="15.5" r="1.5"></circle>
                <circle id="Oval-Copy-5" fill="#B0B0B0" cx="47.5" cy="209.5" r="1.5"></circle>
                <circle id="Oval-Copy-6" fill="#B0B0B0" cx="208.5" cy="177.5" r="1.5"></circle>
            </g>
        </g>
    </g>
</svg>