<?xml version="1.0" encoding="UTF-8"?>
<svg width="220px" height="220px" viewBox="0 0 220 220" version="1.1" xmlns="http://www.w3.org/2000/svg" xmlns:xlink="http://www.w3.org/1999/xlink">
    <!-- Generator: sketchtool 53 (72520) - https://sketchapp.com -->
    <title>12346F37-59E4-4CC0-81C2-9A743B775586</title>
    <desc>Created with sketchtool.</desc>
    <defs>
        <linearGradient x1="54.7122508%" y1="37.7867954%" x2="16.9705579%" y2="89.6079401%" id="linearGradient-1">
            <stop stop-color="#AA5397" offset="0%"></stop>
            <stop stop-color="#72295E" offset="100%"></stop>
        </linearGradient>
        <path d="M84.7957446,56.4613108 C60.1470784,66.9492674 8.19608607,64.9660099 5.19891343,121.919002 C2.2017408,178.871994 48.0276752,197.356737 74.3107883,191.861273 C100.593901,186.365808 125.407071,181.86952 143.154658,184.867045 C160.902246,187.864571 214.00194,174.307939 216.000055,104.767412 C217.998171,35.2268842 168.6157,18.767813 140.159366,24.998998 C111.703032,31.230183 109.444411,45.9733541 84.7957446,56.4613108 Z" id="path-2"></path>
        <filter x="-3.3%" y="-3.0%" width="106.6%" height="108.3%" filterUnits="objectBoundingBox" id="filter-3">
            <feOffset dx="0" dy="2" in="SourceAlpha" result="shadowOffsetOuter1"></feOffset>
            <feGaussianBlur stdDeviation="2" in="shadowOffsetOuter1" result="shadowBlurOuter1"></feGaussianBlur>
            <feColorMatrix values="0 0 0 0 0.446586277   0 0 0 0 0.162176853   0 0 0 0 0.368513102  0 0 0 0.3 0" type="matrix" in="shadowBlurOuter1"></feColorMatrix>
        </filter>
        <linearGradient x1="54.7122508%" y1="42.8802772%" x2="16.9705579%" y2="73.089563%" id="linearGradient-4">
            <stop stop-color="#AA5397" offset="0%"></stop>
            <stop stop-color="#72295E" offset="100%"></stop>
        </linearGradient>
    </defs>
    <g id="propuesta-2" stroke="none" stroke-width="1" fill="none" fill-rule="evenodd">
        <g id="detalle_electroencefalograma" transform="translate(-42.000000, -223.000000)">
            <g id="ELECTROENCEFALOGRAMA_open" transform="translate(42.000000, 223.000000)">
                <path d="M110,214.499928 C160.134191,240.011894 206.370243,171.87234 218.112587,110.885998 C229.854931,49.8996566 185.453233,-17.6773629 122.569038,4.21285499 C59.6848421,26.1030729 0,51.972048 0,110.885998 C0,169.799948 59.8658087,188.987962 110,214.499928 Z" id="Oval" fill="url(#linearGradient-1)"></path>
                <g id="Path-29">
                    <use fill="black" fill-opacity="1" filter="url(#filter-3)" xlink:href="#path-2"></use>
                    <use fill="#FFFFFF" fill-rule="evenodd" xlink:href="#path-2"></use>
                </g>
                <g id="icono" transform="translate(39.000000, 60.000000)">
                    <path d="M30.3873694,66.0554677 C36.2657324,65.0331167 41.0238466,65.6891138 44.6129745,68.1231785 C45.8649683,68.9722521 47.0895742,70.0426949 48.8134119,71.7235021 C49.280136,72.1785759 50.9864644,73.8696148 50.9516987,73.8353243 C51.830785,74.7023967 52.522066,75.368302 53.2198019,76.0133969 C57.8006339,80.248626 61.9781517,82.8048731 67.2121736,84.0036331 C79.8336346,86.894355 90.0014953,84.3022179 96.0490268,75.6269767 C96.0525465,75.6218727 96.0560935,75.6167799 96.0596676,75.6116986 C101.732382,67.4575728 98.0533966,55.9698618 90.4126915,52.079458 C89.9929895,51.8657591 89.5540437,51.6653819 89.0958716,51.478395 C88.5921772,51.4948998 88.0915101,51.3179942 87.7081909,50.9720749 C83.3155405,49.5451842 77.4129688,49.1760282 70.012599,49.9123479 C68.9278582,50.0202772 67.961075,49.2277419 67.8532284,48.1421709 C67.7453817,47.0565999 68.5373108,46.0890768 69.6220517,45.9811476 C75.720348,45.3743811 80.9506353,45.4741086 85.3183653,46.3017989 C84.0860779,42.438145 84.4427318,38.4273574 86.3919276,34.371316 C86.8643883,33.3881822 88.0437714,32.974493 89.0261534,33.4473153 C90.0085354,33.9201377 90.4219082,35.1004234 89.9494475,36.0835572 C87.9956511,40.1491717 88.0853036,43.9409795 90.2261029,47.6767869 C90.9153909,47.944567 91.5742647,48.2383908 92.2027606,48.5584009 C101.366536,53.2243035 105.918555,66.169434 100.33273,76.2129587 C108.296114,81.5211913 116.052498,81.1729572 124.043042,75.1682566 C124.402138,74.8984052 124.842447,74.7591652 125.291281,74.7735234 C127.715532,74.8131569 131.203084,74.113429 134.618696,71.9801205 C139.513292,68.9230737 142.824786,63.6149865 143.821779,55.3404179 C145.966637,37.53912 132.782097,23.554695 118.729788,24.2542275 C119.291672,26.039209 119.776418,27.935878 120.183904,29.9432149 C120.400926,31.0122997 119.710856,32.0550303 118.642589,32.2722189 C117.574322,32.4894074 116.532388,31.7988091 116.315366,30.7297244 C113.654861,17.6236841 107.700355,10.1744853 98.4061553,7.99786472 C89.0788445,5.81348987 81.5784796,8.864129 75.5490513,17.3529308 C74.9174885,18.2421049 73.6852388,18.4505483 72.7967446,17.8185021 C71.9082504,17.1864559 71.6999664,15.9532631 72.3315293,15.0640889 C74.1518606,12.5012536 76.1218243,10.355785 78.2349875,8.63135376 C73.153489,4.74482028 67.7816685,3.29482045 62.0024885,4.22128002 C56.6222329,5.08378807 52.0004864,7.63982527 48.0854348,11.9400259 C51.6877061,12.5731466 55.4653765,13.6433274 59.4146735,15.1515773 C60.4331247,15.5405273 60.9436774,16.6820832 60.5550249,17.7013138 C60.1663724,18.7205444 59.0256895,19.2314878 58.0072383,18.8425379 C38.0770883,11.2311461 23.5711111,15.5050506 13.8680919,31.831071 C17.2392877,31.2343859 20.971783,31.8313712 25.0035664,33.627383 C25.9994512,34.0710133 26.4474171,35.2385887 26.0041261,36.2352358 C25.5608352,37.2318828 24.3941527,37.6801915 23.3982678,37.2365613 C16.4269563,34.1310974 11.1743539,35.3129758 7.03732685,40.8342698 C3.49098432,45.5672336 3.28454025,49.7437887 4.97390903,53.3029071 C5.00296933,53.3641306 5.03193276,53.4237618 5.06072569,53.4817773 C5.78517397,52.461401 6.63732421,51.5032439 7.62321945,50.6254583 C16.1517262,43.0321566 24.7437534,41.5702004 36.1225801,44.3448634 C36.1313402,44.3395143 36.1401564,44.334223 36.1490286,44.3289903 C40.1493978,41.9696265 40.3238168,37.9902048 36.1689836,31.3892697 C35.5879829,30.4662126 35.8647021,29.2465724 36.7870532,28.665127 C37.7094044,28.0836816 38.9281119,28.3606125 39.5091127,29.2836696 C43.8472169,36.1757741 44.3702637,41.8289791 40.7864168,45.6625973 C40.8100197,45.6700905 40.8336343,45.6775987 40.8572609,45.6851219 C47.0865068,47.6686537 52.1634928,46.4533023 56.4281179,41.9901018 C57.1814959,41.201644 58.4309119,41.1736736 59.2187667,41.9276282 C60.0066215,42.6815827 60.0345705,43.931955 59.2811926,44.7204127 C53.9583339,50.2911217 47.3047554,51.8838848 39.6603559,49.4497364 C27.047227,45.4334329 18.6959896,46.0546201 10.2471107,53.5770256 C1.13270966,61.6919746 6.84589966,79.2670424 19.4219665,81.5700476 C25.2857235,82.6438542 29.8012204,82.4408064 33.1418685,81.3735761 C35.0056924,80.7781439 36.0335041,80.1037505 36.3920086,79.7169885 C37.1333643,78.917199 38.3822135,78.8702891 39.1813914,79.6122122 C39.9805692,80.3541353 40.0274434,81.6039403 39.2860876,82.4037298 C37.3885681,84.4508121 33.7706198,86.0706732 28.1367812,86.2607207 C30.8064992,94.2403788 36.668939,96.5976002 46.5448124,93.5720901 C46.7874003,91.1313784 45.7037753,88.7284465 43.3647673,86.311995 C42.606312,85.5284276 42.6261836,84.2779007 43.4091518,83.518865 C44.1921199,82.7598292 45.4416905,82.779716 46.2001458,83.5632834 C54.9492448,92.6020611 50.5638691,101.943271 34.5217682,110.516638 C33.5601996,111.030528 32.3644225,110.667016 31.8509252,109.704712 C31.3374279,108.742407 31.7006614,107.545715 32.66223,107.031825 C38.4500881,103.938625 42.3770658,101.009273 44.5461012,98.1692158 C33.9169003,100.412353 26.820574,96.3380132 23.9784324,86.1568695 C22.3520707,86.0300773 20.5978956,85.8015686 18.7114162,85.4561051 C5.95172705,83.1194738 -1.07347272,68.4559407 2.96448976,57.4720745 C2.93139461,57.4383818 2.89925916,57.4032725 2.86816599,57.3667497 C2.46787176,56.896554 1.93050489,56.0983806 1.40819755,54.997997 C-0.88046574,50.1763006 -0.596812397,44.4377304 3.87906494,38.4642054 C5.20740112,36.6914023 6.66042624,35.2616519 8.22851314,34.1757855 C8.25835761,33.970641 8.32123627,33.7667402 8.41956751,33.5714185 C16.4363866,17.6470922 28.2599459,10.2164758 43.5623505,11.3676213 C43.6358427,11.1476361 43.7495813,10.9369744 43.9046757,10.7465287 C48.6485354,4.921382 54.4958182,1.42372661 61.3780997,0.320428986 C68.3227861,-0.792872776 74.8420739,0.998842835 80.8151674,5.63357261 C81.089118,5.84614038 81.2918182,6.11658518 81.4194009,6.41432571 C86.6515999,3.36005394 92.6406069,2.59031308 99.3056324,4.15120393 C107.60177,6.09408707 113.614403,11.5655662 117.323713,20.3989918 C134.262301,18.6988893 150.239169,35.0793305 147.74095,55.8133575 C146.602345,65.2632424 142.627287,71.6349744 136.708727,75.3315648 C132.828799,77.7548744 128.915632,78.6518276 125.879322,78.7212905 C116.697726,85.3664071 107.297157,85.6159881 98.0991125,79.4700334 C92.621872,86.2529221 84.7562042,89.3363456 75.4374698,89.0694461 C71.3866584,97.2002287 62.9077122,105.057063 50.0389575,112.72182 C49.1022174,113.279751 47.8908926,112.972085 47.3333878,112.034628 C46.7758829,111.097171 47.0833137,109.884919 48.0200537,109.326988 C59.509233,102.48392 67.2071942,95.5938076 71.1454151,88.7238923 C69.5736922,88.5196388 67.9677461,88.2294021 66.3315144,87.8546523 C60.3252209,86.4790172 55.5845294,83.5781609 50.5410439,78.9151834 C49.8070108,78.2365298 49.0874829,77.5434145 48.1806974,76.6490213 C48.2050403,76.6730316 46.5117836,74.9949471 46.0586452,74.55312 C44.4893815,73.0230282 43.410273,72.0797665 42.3984566,71.3935758 C39.4120187,69.3682417 34.9932473,68.9750166 29.0738288,70.3536724 C27.6816096,72.6786024 25.1947398,74.8524238 21.6560849,76.8073605 C20.7017507,77.3345843 19.5010376,76.9877508 18.9742171,76.0326862 C18.4473966,75.0776217 18.7939648,73.8759897 19.748299,73.3487659 C22.7644499,71.6824875 24.7302521,70.0524095 25.7010427,68.3710358 C25.7572053,68.0031004 25.9165865,67.6598763 26.1559231,67.380747 C26.8637132,65.3174072 26.1296149,63.1539188 24.0517526,60.7351332 C23.3411101,59.9078927 23.4351186,58.6607512 24.2617265,57.9495647 C25.0883345,57.2383783 26.3345222,57.3324588 27.0451648,58.1596993 C29.3642104,60.8592402 30.4629419,63.5154124 30.3873694,66.0554677 Z M68.0609183,59.0882819 C78.1643637,57.0056248 84.6231916,61.8907582 86.6594803,73.2770521 C86.851526,74.350912 86.1373401,75.3772504 85.0643014,75.5694431 C83.9912628,75.7616358 82.9657093,75.0469032 82.7736636,73.9730433 C80.9285764,63.6558894 75.5992084,60.4875972 65.7086719,63.822204 C65.5982738,63.8594249 65.4868875,63.8863212 65.3755602,63.9034128 C62.6532686,66.1139781 58.0115185,66.773378 51.6356681,65.7531928 C50.5592509,65.5809578 49.8261597,64.5680573 49.998263,63.4908163 C50.1703664,62.4135752 51.1824922,61.6799229 52.2589094,61.852158 C63.1479253,63.5944845 66.1953894,60.6649847 63.2084539,51.8116298 C62.8597396,50.7780315 63.414307,49.6572295 64.4471147,49.3082483 C65.4799225,48.9592672 66.5998674,49.514259 66.9485817,50.5478572 C68.0858957,53.9188858 68.4429768,56.775184 68.0609169,59.0882829 Z M122.526226,52.2287765 C123.074661,56.2072321 122.981148,60.8198685 122.246862,66.0438831 C122.095017,67.1241705 121.096846,67.8767277 120.017384,67.7247665 C118.937923,67.5728054 118.185942,66.5738705 118.337786,65.4935831 C120.566101,49.6404333 116.684636,41.0177381 106.738817,38.7435403 C105.485358,41.8389285 102.453546,44.8278219 97.7543404,47.5965002 C96.8149585,48.1499652 95.6051101,47.836535 95.0520683,46.8964341 C94.4990265,45.9563333 94.8122171,44.7455589 95.7515989,44.1920939 C103.722829,39.4956044 105.241389,35.4228451 101.328949,30.9267239 C100.613056,30.1040298 100.699125,28.8563144 101.52119,28.1398735 C102.343255,27.4234326 103.590016,27.5095679 104.305909,28.332262 C106.195672,30.5039502 107.206102,32.6840327 107.372138,34.8367041 C114.387784,36.3577652 119.018605,40.4276202 121.272955,46.8840664 C121.381679,46.9349773 121.487287,46.9965812 121.588376,47.0691099 C127.942294,51.6279018 131.391305,49.9722816 133.502427,41.0271883 C133.753001,39.9654774 134.816159,39.3080759 135.877058,39.558841 C136.937957,39.809606 137.594856,40.873578 137.344282,41.9352889 C134.971355,51.9896831 129.684404,55.6593175 122.526226,52.2287765 Z M94.0157298,24.4818142 C95.4595499,24.9635116 96.9419915,25.5356141 98.4623335,26.1981497 C99.4617782,26.6336883 99.9191844,27.7975922 99.4839788,28.7978018 C99.0487733,29.7980114 97.8857595,30.2557677 96.8863148,29.820229 C82.2403935,23.4378205 72.5385206,26.2185543 66.8619286,38.198117 C66.3948463,39.1838214 65.217741,39.6039579 64.2327905,39.1365181 C63.2478399,38.6690783 62.8280247,37.4910722 63.295107,36.5053678 C64.2778505,34.4314409 65.3778088,32.5886042 66.5920226,30.9769728 C65.0872836,26.9827841 61.5663855,25.8184044 55.2233125,27.4906566 C54.1691867,27.7685604 53.0895357,27.1386542 52.8118444,26.0837217 C52.5341532,25.0287892 53.1635777,23.9483118 54.2177034,23.670408 C61.5191083,21.7455066 66.7944027,23.1187003 69.4567515,27.7949563 C74.3738697,23.2675575 80.7123627,21.6733818 88.3385759,23.0176206 C88.3889943,22.9988331 88.4405785,22.981945 88.4932692,22.9670624 C92.4803088,21.8409137 93.6115813,19.4729751 92.1897912,14.8935954 C91.866339,13.8518029 92.4480231,12.7448528 93.4890189,12.421153 C94.5300147,12.0974533 95.6361183,12.6795825 95.9595704,13.721375 C97.4091014,18.390104 96.72575,22.0903283 94.0157298,24.4818142 Z M25.1490293,31.310746 C24.6113628,32.2597377 23.4067766,32.5928491 22.4585106,32.0547711 C21.5102447,31.5166931 21.1773881,30.311185 21.7150545,29.3621933 C26.6910705,20.5794294 34.1934237,16.5816938 43.8982785,17.5723788 C44.9827401,17.6830821 45.7721958,18.6526276 45.6615772,19.7379192 C45.5509585,20.8232108 44.5821545,21.6132707 43.4976928,21.5025674 C35.370419,20.672924 29.3621429,23.8745194 25.1490293,31.310746 Z M138.679682,50.4060322 C138.649711,49.3155216 139.508771,48.4071727 140.598448,48.3771782 C141.688125,48.3471837 142.595779,49.2069018 142.62575,50.2974125 C142.884054,59.695752 139.114092,65.691088 131.454101,67.6806784 C130.39897,67.9547359 129.32162,67.3208964 129.047772,66.2649581 C128.773924,65.2090198 129.407279,64.1308452 130.46241,63.8567877 C136.197704,62.3671141 138.890715,58.0844429 138.679682,50.4060322 Z M58.4020491,73.0160743 C58.0278044,71.9914575 58.5543999,70.8572241 59.5782331,70.4826929 C60.6020663,70.1081618 61.7354324,70.6351604 62.1096771,71.6597772 C64.104263,77.120606 68.1826628,79.3525528 74.9206274,78.5328604 C76.0027503,78.401217 76.9866207,79.1724044 77.1181633,80.2553555 C77.2497059,81.3383067 76.4791084,82.32293 75.3969854,82.4545733 C66.9126544,83.4867162 61.0557587,80.2814689 58.4020491,73.0160743 Z" id="Combined-Shape" fill="url(#linearGradient-4)" fill-rule="nonzero"></path>
                    <circle id="Oval" stroke="#9B79C1" stroke-width="2" fill="#FFFFFF" cx="56" cy="20" r="12"></circle>
                    <circle id="Oval-Copy-10" stroke="#9B79C1" stroke-width="2" fill="#FFFFFF" cx="39" cy="62" r="12"></circle>
                    <circle id="Oval" stroke="#9B79C1" stroke-width="2" fill="#EFE1FF" cx="56" cy="20" r="6"></circle>
                    <circle id="Oval-Copy-11" stroke="#9B79C1" stroke-width="2" fill="#EFE1FF" cx="39" cy="62" r="6"></circle>
                </g>
                <circle id="Oval" fill="#16A1B2" cx="43" cy="29" r="4"></circle>
                <circle id="Oval-Copy-3" fill="#16A1B2" cx="37" cy="197" r="4"></circle>
                <circle id="Oval-Copy" fill="#16A1B2" cx="15" cy="51" r="2"></circle>
                <circle id="Oval-Copy-9" fill="#16A1B2" cx="69" cy="5" r="1"></circle>
                <circle id="Oval-Copy-8" fill="#B0B0B0" cx="60" cy="22" r="2"></circle>
                <circle id="Oval-Copy-2" fill="#16A1B2" cx="212" cy="170" r="2"></circle>
                <circle id="Oval-Copy-4" fill="#B0B0B0" cx="60.5" cy="201.5" r="1.5"></circle>
                <circle id="Oval-Copy-7" fill="#B0B0B0" cx="47.5" cy="15.5" r="1.5"></circle>
                <circle id="Oval-Copy-5" fill="#B0B0B0" cx="47.5" cy="209.5" r="1.5"></circle>
                <circle id="Oval-Copy-6" fill="#B0B0B0" cx="208.5" cy="177.5" r="1.5"></circle>
            </g>
        </g>
    </g>
</svg>