<?xml version="1.0" encoding="UTF-8"?>
<svg width="220px" height="220px" viewBox="0 0 220 220" version="1.1" xmlns="http://www.w3.org/2000/svg" xmlns:xlink="http://www.w3.org/1999/xlink">
    <!-- Generator: sketchtool 53 (72520) - https://sketchapp.com -->
    <title>25501CDF-0958-4EDD-B1CF-F4F43BD69234</title>
    <desc>Created with sketchtool.</desc>
    <defs>
        <linearGradient x1="54.7122508%" y1="37.7867954%" x2="16.9705579%" y2="89.6079401%" id="linearGradient-1">
            <stop stop-color="#AA5397" offset="0%"></stop>
            <stop stop-color="#72295E" offset="100%"></stop>
        </linearGradient>
        <path d="M84.7957446,56.4613108 C60.1470784,66.9492674 8.19608607,64.9660099 5.19891343,121.919002 C2.2017408,178.871994 48.0276752,197.356737 74.3107883,191.861273 C100.593901,186.365808 125.407071,181.86952 143.154658,184.867045 C160.902246,187.864571 214.00194,174.307939 216.000055,104.767412 C217.998171,35.2268842 168.6157,18.767813 140.159366,24.998998 C111.703032,31.230183 109.444411,45.9733541 84.7957446,56.4613108 Z" id="path-2"></path>
        <filter x="-3.3%" y="-3.0%" width="106.6%" height="108.3%" filterUnits="objectBoundingBox" id="filter-3">
            <feOffset dx="0" dy="2" in="SourceAlpha" result="shadowOffsetOuter1"></feOffset>
            <feGaussianBlur stdDeviation="2" in="shadowOffsetOuter1" result="shadowBlurOuter1"></feGaussianBlur>
            <feColorMatrix values="0 0 0 0 0.446586277   0 0 0 0 0.162176853   0 0 0 0 0.368513102  0 0 0 0.3 0" type="matrix" in="shadowBlurOuter1"></feColorMatrix>
        </filter>
        <linearGradient x1="54.7122508%" y1="38.4184237%" x2="16.9705579%" y2="87.559543%" id="linearGradient-4">
            <stop stop-color="#AA5397" offset="0%"></stop>
            <stop stop-color="#72295E" offset="100%"></stop>
        </linearGradient>
    </defs>
    <g id="propuesta-2" stroke="none" stroke-width="1" fill="none" fill-rule="evenodd">
        <g id="detalle_-Fibra-unica" transform="translate(-42.000000, -213.000000)">
            <g id="FIBRA-ÚNICA_open" transform="translate(42.000000, 213.000000)">
                <path d="M110,214.499928 C160.134191,240.011894 206.370243,171.87234 218.112587,110.885998 C229.854931,49.8996566 185.453233,-17.6773629 122.569038,4.21285499 C59.6848421,26.1030729 0,51.972048 0,110.885998 C0,169.799948 59.8658087,188.987962 110,214.499928 Z" id="Oval" fill="url(#linearGradient-1)"></path>
                <g id="Path-29">
                    <use fill="black" fill-opacity="1" filter="url(#filter-3)" xlink:href="#path-2"></use>
                    <use fill="#FFFFFF" fill-rule="evenodd" xlink:href="#path-2"></use>
                </g>
                <g id="ICONO" transform="translate(49.000000, 53.000000)">
                    <circle id="Oval" stroke="url(#linearGradient-1)" stroke-width="3" cx="62" cy="62" r="62"></circle>
                    <path d="M71.2316097,60.0223875 C84.3474145,69.0021747 74.3622314,55.4861787 74.3622314,48.2812058 C74.3622314,41.0762329 67.4220176,42.0433151 56.8854512,42.0433151 C46.3488847,42.0433151 45,51.5128389 45,58.7178117 C45,65.9227846 58.1158048,51.0426002 71.2316097,60.0223875 Z" id="Oval" fill="#EFE1FF"></path>
                    <ellipse id="Oval" fill="#9B79C1" cx="60.5" cy="70" rx="19.5" ry="13"></ellipse>
                    <path d="M47.4893368,43.9019759 C46.4932773,43.158573 45.8659751,42.1045276 45.6642821,40.6694074 C44.9413748,35.5256546 52.9498966,28.950944 58.7980714,28.1290366 C64.1035395,27.3834017 69.0109631,31.0776788 69.7566736,36.383685 C70.478548,41.5200877 67.2354166,43.8734596 61.1313712,44.7313273 L60.9906007,44.7511228 C58.644533,45.0811275 57.3712254,45.2329912 55.8044373,45.3281314 C53.8299153,45.4480305 52.0905444,45.4042955 50.6327274,45.1394392 C50.6694422,45.4114578 50.6483326,45.695633 50.5604225,45.9747952 L46.4493365,59.0297172 C50.2203719,56.7303356 55.1684281,55.3607201 60.5371601,55.3607201 C66.0250866,55.3607201 71.0734506,56.7918261 74.8744042,59.1842372 L71.2425258,45.9043059 C70.9612124,44.8756857 71.5686945,43.8142306 72.5993751,43.5334795 C73.6300557,43.2527285 74.693637,43.8589961 74.9749504,44.8876163 L77.9491956,55.7629175 C77.9566359,54.411162 77.9900601,53.546502 78.091476,52.5167755 C78.5359682,48.0036265 80.1455051,45.0641376 83.8397502,45.0641376 C88.6563775,45.0641376 93.8531433,51.9095688 93.8531433,56.6102308 C93.8531433,60.9987383 89.661579,64.3702297 84.6713514,64.3702297 C82.5045739,64.3702297 80.9259288,63.7839318 79.8450401,62.6950561 L80.4333588,64.8462381 C81.2977736,66.4327841 81.7849031,68.1604241 81.814925,69.9827376 C84.8965148,67.14126 89.5320938,65.3675736 94.6530353,65.3675736 C96.9347752,65.3675736 98.8886511,64.7151713 102.023352,63.1437126 C103.552775,62.3769968 104.737102,61.7978604 105.715229,61.3766647 C104.701412,61.650454 103.638362,61.7960841 102.541876,61.7960841 C95.8023384,61.7960841 93.423276,56.9953399 93.423276,48.2066955 C93.423272,48.1008352 93.423272,48.1008352 93.4232599,47.9933314 C93.422866,44.4675427 93.4600152,42.5652034 93.6306203,40.2555525 C94.240774,31.9952958 96.2736513,27.0451183 101.294475,27.0451183 C108.0757,27.0451183 115.347326,39.8165022 115.347326,48.2066955 C115.347326,53.7746129 112.184643,58.5872485 107.634896,60.6807822 C108.860063,60.3524801 109.811576,60.3897205 111.104182,60.6613243 C112.383695,60.9301768 113.585301,61.5538259 114.721545,62.5409563 C122.113564,68.9628907 116.465552,81.5677057 103.193953,87.7415284 C90.8974947,93.4617247 78.3715325,87.6212832 77.9579775,78.7188514 C74.0863935,82.5359294 67.6845734,84.9633946 60.5371601,84.9633946 C48.9111855,84.9633946 39.2579192,78.540749 39.2579192,70.1620573 C39.2579192,69.9556064 39.26378,69.7503431 39.2753866,69.5463341 C39.2376012,69.2725856 39.258388,68.9863879 39.3469129,68.7052737 L39.3640348,68.6509023 C39.5330748,67.4564829 39.9006809,66.3102459 40.4424377,65.2263899 L46.869457,44.8171269 C46.9868753,44.4442603 47.2071668,44.1320946 47.4893368,43.9019759 Z M77.9430331,70.4046514 L76.8403331,66.3726387 C74.3810515,62.2813115 68.0806216,59.2219385 60.5371601,59.2219385 C52.7593983,59.2219385 46.3030846,62.4743115 44.0160257,66.756795 L43.1634383,69.4642213 C43.1391807,69.6954652 43.1268721,69.9281708 43.1268721,70.1620573 C43.1268721,75.9999793 50.7954978,81.1021762 60.5371601,81.1021762 C70.1436416,81.1021762 77.7342207,76.1405987 77.9430331,70.4046514 Z M28.9407115,23.6163912 C28.9407115,17.5698681 35.1015047,12.9129489 42.4810607,12.9129489 C44.1864673,12.9129489 45.6668475,12.4096602 48.0734169,11.1812863 C52.2663966,9.04108347 53.2520036,8.67691341 55.4992965,9.15770253 C56.5803541,9.38898557 57.5897994,9.92242645 58.5343339,10.7579256 C64.5954612,16.119367 60.0276523,26.4988118 49.3790605,31.5425022 C39.2914161,36.3205007 28.9407115,31.2435049 28.9407115,23.6163912 Z M55.968077,13.6474996 C55.5051113,13.2379778 55.0914839,13.0193966 54.6883335,12.933146 C53.7321285,12.7285741 53.031704,12.9873727 49.8351395,14.61898 C46.9247867,16.1044977 44.9550113,16.7741673 42.4810607,16.7741673 C37.0411235,16.7741673 32.8096644,19.9727105 32.8096644,23.6163912 C32.8096644,28.1667918 40.0178789,31.7024037 47.7202083,28.0542063 C56.2310682,24.0230496 59.4440405,16.722204 55.968077,13.6474996 Z M101.559396,84.2418277 C112.672554,79.0720914 116.927355,69.5765434 112.181257,65.4532956 C111.526138,64.8841498 110.91656,64.5677713 110.307081,64.4397068 C108.903151,64.1447116 107.971663,64.4827395 103.76,66.5940907 C100.127709,68.4149965 97.6904773,69.228792 94.6530353,69.228792 C87.4603273,69.228792 81.816401,73.418831 81.816401,78.2642242 C81.816401,84.3300759 91.4221945,88.9575584 101.559396,84.2418277 Z M27.3656449,85.0343371 C17.8951625,91.2021479 8.30629605,84.7350885 8.30629605,75.6900786 C8.30629605,68.5845989 13.8781743,62.793428 20.7915659,62.793428 C22.1773119,62.793428 23.4516872,62.1977056 25.5635208,60.7155473 C29.5632124,57.9084247 30.482446,57.4414116 32.8046451,58.1245318 C33.8834822,58.4418927 34.8443658,59.1400882 35.7144421,60.1983381 C40.8828734,66.4845585 36.9419646,78.7975981 27.3656449,85.0343371 Z M25.2512572,81.8007278 C33.092621,76.6939079 36.2251497,66.9065845 32.7234984,62.6476226 C32.3140291,62.1495963 31.9812103,61.9077642 31.7107673,61.8282081 C31.1206956,61.654627 30.5071732,61.9663246 27.7890974,63.8739648 C25.0673654,65.7841709 23.2052355,66.6546464 20.7915659,66.6546464 C16.0508729,66.6546464 12.1752489,70.6828035 12.1752489,75.6900786 C12.1752489,81.8669616 18.5490363,86.1656618 25.2512572,81.8007278 Z M83.320902,44.3900025 C76.1319909,45.1455876 69.7538399,38.6873478 68.8589771,30.1732969 C68.6431519,28.1198573 67.8183635,26.4120194 65.9708138,23.7100409 C62.8352058,19.1243211 62.2718914,18.0350564 62.5820348,15.4148246 C62.7300484,14.1643388 63.2464538,12.9596166 64.1323736,11.7879749 C69.7790617,4.32014838 82.797183,8.19881876 90.2456816,19.8413685 C97.3186284,30.8969033 92.3996215,43.4357907 83.320902,44.3900025 Z M67.2104807,14.1251165 C66.7225234,14.7704471 66.4798481,15.3365844 66.4164686,15.872043 C66.2703436,17.106573 66.6897557,17.917578 69.1559398,21.5242881 C71.3389895,24.7169238 72.3985773,26.9109465 72.6990433,29.7696896 C73.3878191,36.3229537 78.0589975,41.0527868 82.9164863,40.5422442 C88.9762726,39.905335 92.5949321,30.6811227 86.9951734,21.9282892 C80.7954176,12.237616 70.8730556,9.28130834 67.2104807,14.1251165 Z M31.4677528,105.416645 C23.6408402,94.8814246 27.6731961,82.0299488 36.6632378,80.4447619 C43.7819302,79.1895443 50.5950484,85.1871348 52.0816415,93.6180235 C52.4401817,95.6514057 53.3820936,97.2975491 55.4136233,99.8640672 C58.8614768,104.219887 59.4994022,105.267204 59.3727924,107.902688 C59.3123689,109.160452 58.8812586,110.398262 58.0792265,111.628849 C52.9672226,119.472377 39.7102505,116.511253 31.4677528,105.416645 Z M34.5647667,103.108064 C41.4254074,112.342658 51.5298206,114.599615 54.8455867,109.512118 C55.2873394,108.834321 55.4899318,108.252635 55.5158052,107.714059 C55.5754578,106.472344 55.1004945,105.692571 52.3887265,102.266679 C49.9882876,99.234102 48.7782336,97.119337 48.2790837,94.288517 C47.1348531,87.799263 42.145117,83.4067964 37.3350744,84.2549367 C31.3344781,85.3130037 28.368082,94.7671712 34.5647667,103.108064 Z M102.541876,57.9348657 C107.445022,57.9348657 111.478373,53.609222 111.478373,48.2066955 C111.478373,41.6660453 105.352132,30.9063367 101.294475,30.9063367 C99.3362351,30.9063367 97.9516126,34.2779752 97.4891031,40.5394256 C97.3276449,42.7252463 97.2918292,44.5592984 97.2922128,47.9929009 C97.2922249,48.100472 97.2922249,48.100472 97.2922289,48.2066955 C97.2922289,55.1341507 98.6801544,57.9348657 102.541876,57.9348657 Z M31.0946576,30.6943324 C35.6725294,34.6738155 34.0719411,39.6040682 28.2865506,46.2593986 C28.2170856,46.3393142 28.2170856,46.3393142 28.1465613,46.4204588 C25.8379923,49.0766773 24.5691803,50.4878677 22.9497277,52.1287859 C17.0635022,58.0930323 12.5769155,60.6425859 9.10290937,57.6226784 C4.5047928,53.6255967 8.17740327,39.9060308 13.6868821,33.5681004 C18.5558062,27.9670439 26.3226994,26.5461324 31.0946576,30.6943324 Z M28.5614704,33.6084309 C25.565691,31.0042396 20.1865774,31.9883196 16.6068179,36.1063619 C12.3207821,41.0368821 9.22260621,52.6105647 11.6360966,54.7085799 C12.6768038,55.6132529 15.8605794,53.8040365 20.1953503,49.4118089 C21.7400022,47.8466829 22.9696839,46.4790138 25.2263835,43.8824758 C25.2969455,43.8012877 25.2969455,43.8012877 25.3666148,43.7211371 C29.8919133,38.5153766 30.8414893,35.5904211 28.5614704,33.6084309 Z M74.5793861,86.2973102 C81.7407052,87.8194956 83.6388036,92.470394 82.081206,99.7983143 C82.0628895,99.8845088 82.0628895,99.8845088 82.0442806,99.9721228 C81.4287204,102.870289 81.0532833,104.430008 80.4522784,106.303665 C78.325821,112.932983 75.0417234,116.659599 69.8190931,115.549495 C62.5979387,114.014591 56.6169981,101.743391 58.1133134,94.7037814 C59.4750101,88.2975021 66.9099325,84.6671175 74.5793861,86.2973102 Z M73.7765936,90.0741517 C68.022793,88.8511436 62.7672508,91.4173626 61.8977203,95.508182 C60.8071215,100.639046 65.7264383,110.732094 70.6218855,111.772653 C73.2010307,112.320867 75.1791337,110.076223 76.7678153,105.123443 C77.3169027,103.411641 77.6703979,101.943078 78.2597509,99.1682998 C78.278379,99.0805955 78.278379,99.0805955 78.296799,98.9939138 C79.4621688,93.5112798 78.4662423,91.0709673 73.7765936,90.0741517 Z M84.6713514,60.5090113 C87.6862874,60.5090113 89.9841904,58.6606894 89.9841904,56.6102308 C89.9841904,53.8454711 86.2490443,48.925356 83.8397502,48.925356 C82.8812868,48.925356 82.2124905,50.1467751 81.9418739,52.8944797 C81.8392865,53.9361 81.8161511,54.8246409 81.8164011,56.5031541 L81.8164119,56.6102308 C81.8164119,59.6007445 82.4165475,60.5090113 84.6713514,60.5090113 Z M83.3102895,102.114674 C81.7050976,97.9330064 84.1469406,95.3241303 89.2974753,93.3470253 L89.413588,93.3024439 C91.3506669,92.5586258 92.4069893,92.1761572 93.7232878,91.7772045 C98.7577252,90.2513329 102.214462,90.3064963 103.481806,93.6080414 C105.083753,97.7812549 99.309971,104.699013 94.3813372,106.590938 C89.9146519,108.305538 84.9377056,106.354238 83.3102895,102.114674 Z M86.9150474,100.730937 C87.7465977,102.8972 90.4483389,103.956465 92.9948285,102.97896 C96.1973616,101.749622 100.494706,96.6008323 99.8770482,94.9917783 C99.7152084,94.5701712 97.9401375,94.5418442 94.8465573,95.4794676 C93.6466728,95.8431367 92.6532572,96.2028283 90.8004904,96.9142715 L90.683984,96.959004 C87.2757102,98.2673177 86.3492955,99.2571033 86.9150474,100.730937 Z M65.9330323,36.9210627 C65.4850606,33.7335782 62.5327942,31.5111309 59.3365256,31.9603371 C55.3276754,32.5237443 49.1333444,37.609069 49.4879234,40.1320296 C49.6269717,41.1214095 51.6862531,41.7021691 55.5687242,41.4664135 C57.0027609,41.3793344 58.2033928,41.2361385 60.4516897,40.9198866 L60.5929171,40.9000267 C64.8643061,40.2997222 66.2650224,39.2832951 65.9330323,36.9210627 Z M41.4608176,40.1421977 C43.6328313,39.8369411 45.0953011,41.278197 45.5438995,43.4268922 C45.8537796,44.9111551 45.7180362,46.8055248 45.2174182,48.6923825 C43.9986916,53.2858315 41.1507132,56.6172022 37.4389593,55.7531424 C37.0018639,55.6513908 36.5428275,55.5914436 36.0553284,55.5699582 C34.9752589,55.5223565 34.0339319,55.6313877 32.1651696,55.9594241 C29.9461414,56.3489449 29.1858428,56.4307858 28.1284686,56.2306965 C26.3515919,55.894454 25.2226198,54.6192754 24.9438791,52.6359322 C24.2210067,47.4924281 34.8408416,41.0725746 41.4608176,40.1421977 Z M41.865594,43.9933553 C37.1134788,44.7365241 28.4701997,49.9830079 28.7675204,52.0985544 C28.8227988,52.4918806 28.7519685,52.4118775 28.8430695,52.4291167 C29.2407753,52.5043755 29.8341777,52.4404999 31.4967746,52.1486531 C33.6322043,51.7738068 34.7772526,51.6411792 36.2228947,51.7048927 C36.9398515,51.736491 37.6336997,51.8271031 38.3108745,51.9847427 C39.2906685,52.2128292 40.7358847,50.522314 41.4856161,47.6965339 C41.8431547,46.3489509 41.9367507,45.0427683 41.7643532,44.2170189 C41.7192024,44.0007557 41.7522815,43.9631445 41.8207352,43.9637704 L41.865594,43.9933553 Z" id="Combined-Shape" fill="url(#linearGradient-4)" fill-rule="nonzero"></path>
                </g>
                <circle id="Oval" fill="#16A1B2" cx="43" cy="29" r="4"></circle>
                <circle id="Oval-Copy-3" fill="#16A1B2" cx="37" cy="197" r="4"></circle>
                <circle id="Oval-Copy" fill="#16A1B2" cx="15" cy="51" r="2"></circle>
                <circle id="Oval-Copy-9" fill="#16A1B2" cx="69" cy="5" r="1"></circle>
                <circle id="Oval-Copy-8" fill="#B0B0B0" cx="60" cy="22" r="2"></circle>
                <circle id="Oval-Copy-2" fill="#16A1B2" cx="212" cy="170" r="2"></circle>
                <circle id="Oval-Copy-4" fill="#B0B0B0" cx="60.5" cy="201.5" r="1.5"></circle>
                <circle id="Oval-Copy-7" fill="#B0B0B0" cx="47.5" cy="15.5" r="1.5"></circle>
                <circle id="Oval-Copy-5" fill="#B0B0B0" cx="47.5" cy="209.5" r="1.5"></circle>
                <circle id="Oval-Copy-6" fill="#B0B0B0" cx="208.5" cy="177.5" r="1.5"></circle>
            </g>
        </g>
    </g>
</svg>