<?xml version="1.0" encoding="UTF-8"?>
<svg width="220px" height="220px" viewBox="0 0 220 220" version="1.1" xmlns="http://www.w3.org/2000/svg" xmlns:xlink="http://www.w3.org/1999/xlink">
    <!-- Generator: sketchtool 53 (72520) - https://sketchapp.com -->
    <title>2364C188-C34D-4881-A6D3-5C86080D9752</title>
    <desc>Created with sketchtool.</desc>
    <defs>
        <linearGradient x1="54.7122508%" y1="37.7867954%" x2="16.9705579%" y2="89.6079401%" id="linearGradient-1">
            <stop stop-color="#AA5397" offset="0%"></stop>
            <stop stop-color="#72295E" offset="100%"></stop>
        </linearGradient>
        <path d="M84.7957446,56.4613108 C60.1470784,66.9492674 8.19608607,64.9660099 5.19891343,121.919002 C2.2017408,178.871994 48.0276752,197.356737 74.3107883,191.861273 C100.593901,186.365808 125.407071,181.86952 143.154658,184.867045 C160.902246,187.864571 214.00194,174.307939 216.000055,104.767412 C217.998171,35.2268842 168.6157,18.767813 140.159366,24.998998 C111.703032,31.230183 109.444411,45.9733541 84.7957446,56.4613108 Z" id="path-2"></path>
        <filter x="-3.3%" y="-3.0%" width="106.6%" height="108.3%" filterUnits="objectBoundingBox" id="filter-3">
            <feOffset dx="0" dy="2" in="SourceAlpha" result="shadowOffsetOuter1"></feOffset>
            <feGaussianBlur stdDeviation="2" in="shadowOffsetOuter1" result="shadowBlurOuter1"></feGaussianBlur>
            <feColorMatrix values="0 0 0 0 0.446586277   0 0 0 0 0.162176853   0 0 0 0 0.368513102  0 0 0 0.3 0" type="matrix" in="shadowBlurOuter1"></feColorMatrix>
        </filter>
        <linearGradient x1="54.7122508%" y1="43.6037147%" x2="16.9705579%" y2="70.7434243%" id="linearGradient-4">
            <stop stop-color="#AA5397" offset="0%"></stop>
            <stop stop-color="#72295E" offset="100%"></stop>
        </linearGradient>
        <linearGradient x1="51.8286724%" y1="37.7867954%" x2="37.1823396%" y2="89.6079401%" id="linearGradient-5">
            <stop stop-color="#AA5397" offset="0%"></stop>
            <stop stop-color="#72295E" offset="100%"></stop>
        </linearGradient>
    </defs>
    <g id="propuesta-2" stroke="none" stroke-width="1" fill="none" fill-rule="evenodd">
        <g id="detalle_-MonitoreoTransoperatorio" transform="translate(-42.000000, -213.000000)">
            <g id="MONITOREO-INTRAOPERATORIO_open" transform="translate(42.000000, 213.000000)">
                <path d="M110,214.499928 C160.134191,240.011894 206.370243,171.87234 218.112587,110.885998 C229.854931,49.8996566 185.453233,-17.6773629 122.569038,4.21285499 C59.6848421,26.1030729 0,51.972048 0,110.885998 C0,169.799948 59.8658087,188.987962 110,214.499928 Z" id="Oval" fill="url(#linearGradient-1)"></path>
                <g id="Path-29">
                    <use fill="black" fill-opacity="1" filter="url(#filter-3)" xlink:href="#path-2"></use>
                    <use fill="#FFFFFF" fill-rule="evenodd" xlink:href="#path-2"></use>
                </g>
                <g id="icono" transform="translate(9.000000, 57.000000)">
                    <path d="M17.4636577,41.1047953 L11.9560798,68.8699305 C11.684999,70.2365193 9.49881848,70.4513647 8.87388295,69.1728313 L0,51.5606011 L0.823991419,47.1482925 L9.70376528,63.7049243 L16.3593334,30.1524711 C16.6763818,28.5541473 19.3896233,28.6448941 19.5603907,30.2595334 L24.1561557,73.7133838 L29.175617,54.5852734 C29.4887212,53.392099 31.3210328,53.1074771 32.1027703,54.1305844 L39.2151545,63.438992 L47.3254503,55.7221344 C48.1301166,54.9565032 49.5937897,55.185764 50.0305037,56.1458375 L55.8987825,69.0466792 L63.5502183,41.5668893 C63.9320865,40.1954269 66.1821498,40.1338304 66.6653505,41.4816112 L76,63.438992 L72.9119973,64.2522844 L65.317364,47.1482925 L57.8417197,73.996735 C57.474221,75.31659 55.340737,75.4424852 54.7656674,74.1782504 L47.9722908,59.2436707 L40.2124483,66.6270758 C39.5034327,67.3016965 38.2414274,67.218544 37.6610478,66.4589661 L31.4902754,58.3829028 L25.0516546,82.9191314 C24.6475137,84.4592273 22.0333846,84.3124505 21.8671137,82.7403274 L17.4636577,41.1047953 Z" id="Path-6" fill="url(#linearGradient-4)" fill-rule="nonzero"></path>
                    <path d="M143.463658,41.1047953 L137.95608,68.8699305 C137.684999,70.2365193 135.498818,70.4513647 134.873883,69.1728313 L126,51.5606011 L126.823991,47.1482925 L135.703765,63.7049243 L142.359333,30.1524711 C142.676382,28.5541473 145.389623,28.6448941 145.560391,30.2595334 L150.156156,73.7133838 L155.175617,54.5852734 C155.488721,53.392099 157.321033,53.1074771 158.10277,54.1305844 L165.215155,63.438992 L173.32545,55.7221344 C174.130117,54.9565032 175.59379,55.185764 176.030504,56.1458375 L181.898782,69.0466792 L189.550218,41.5668893 C189.932086,40.1954269 192.18215,40.1338304 192.66535,41.4816112 L202,63.438992 L198.911997,64.2522844 L191.317364,47.1482925 L183.84172,73.996735 C183.474221,75.31659 181.340737,75.4424852 180.765667,74.1782504 L173.972291,59.2436707 L166.212448,66.6270758 C165.503433,67.3016965 164.241427,67.218544 163.661048,66.4589661 L157.490275,58.3829028 L151.051655,82.9191314 C150.647514,84.4592273 148.033385,84.3124505 147.867114,82.7403274 L143.463658,41.1047953 Z" id="Path-6-Copy" fill="url(#linearGradient-4)" fill-rule="nonzero" transform="translate(164.000000, 56.500000) scale(-1, 1) translate(-164.000000, -56.500000) "></path>
                    <path d="M88.5,38.00019 L115.499931,38.00019 C116.880643,38.00019 117.999931,39.1194781 117.999931,40.50019 L117.99994,49.4709458 C117.99994,50.4568311 117.420534,51.3506532 116.520546,51.7531355 C111.680352,53.9177118 106.840159,55 101.999965,55 C97.1597723,55 92.3195792,53.917712 87.479386,51.753136 L87.4793871,51.7531335 C86.5794036,51.3506531 86,50.4568351 86,49.4709544 L86,40.50019 C86,39.1194781 87.1192881,38.00019 88.5,38.00019 Z" id="Rectangle" fill="#EFE1FF"></path>
                    <polygon id="Path" fill="#EFE1FF" fill-rule="nonzero" points="82 25 122 25 122 11.8683566 102 4 82 11.8683566"></polygon>
                    <path d="M89.7880232,44.4184454 L114.211977,44.4184454 C114.152742,42.9697025 112.961211,41.813403 111.5,41.813403 L92.5,41.813403 C91.0387889,41.813403 89.8472582,42.9697025 89.7880232,44.4184454 Z M89.797512,47.1366351 C89.8942127,48.1732207 90.5778032,49.0733236 91.5682193,49.4358392 C95.0705064,50.7177288 98.5415086,51.3529482 102,51.3529482 C105.458481,51.3529482 108.929473,50.7177326 112.431749,49.4358507 C113.42218,49.0733394 114.105767,48.1732467 114.202467,47.1366351 L89.797512,47.1366351 Z M82.3214286,28.9020017 L82.3214286,37.7361184 C82.3214286,42.1826529 83.7919696,46.2852301 86.2725886,49.5827248 C85.9112302,48.7474454 85.7142857,47.8319487 85.7142857,46.8828251 L85.7142857,44.5315927 C85.7142857,40.7785559 88.7523535,37.7361184 92.5,37.7361184 L111.5,37.7361184 C115.247647,37.7361184 118.285714,40.7785559 118.285714,44.5315927 L118.285693,46.8828556 C118.285693,47.8319781 118.088749,48.7474738 117.727391,49.5827516 C120.208022,46.2852523 121.678571,42.1826649 121.678571,37.7361184 L121.678571,32.6833116 C121.678571,31.5574005 122.589992,30.6446693 123.714286,30.6446693 C124.83858,30.6446693 125.75,31.5574005 125.75,32.6833116 L125.75,37.7361184 C125.75,50.8717473 115.116763,61.5202785 102,61.5202785 C88.8832372,61.5202785 78.25,50.8717473 78.25,37.7361184 L78.25,21.9738033 L78.25,10.5542211 C78.25,9.71520965 78.7632903,8.96187823 79.5434128,8.65594166 L101.257698,0.140362897 C101.734923,-0.0467876325 102.265077,-0.0467876325 102.742302,0.140362897 L124.456587,8.65594166 C125.23671,8.96187823 125.75,9.71520965 125.75,10.5542211 L125.75,26.8633594 C125.75,27.9892705 124.83858,28.9020017 123.714286,28.9020017 L82.3214286,28.9020017 Z M82.3214286,24.8247171 L121.678571,24.8247171 L121.678571,11.9452695 L102,4.22802623 L82.3214286,11.9452695 L82.3214286,21.9738033 L82.3214286,24.8247171 Z M89.5629976,53.0089909 C92.9528046,55.7806497 97.2825505,57.4429939 102,57.4429939 C106.717447,57.4429939 111.047191,55.7806515 114.436997,53.0089954 C114.240155,53.1035502 114.037479,53.1892078 113.829385,53.2653732 C109.886256,54.7086129 105.943128,55.4302328 102,55.4302328 C98.0568602,55.4302328 94.1137204,54.7086087 90.1705806,53.2653604 C89.9624969,53.1891969 89.7598307,53.103542 89.5629976,53.0089909 Z M85.7240107,67.7844846 C84.0342709,66.9430576 82.1728252,66.5051667 80.2857143,66.5051667 C73.5399506,66.5051667 68.0714286,71.9815541 68.0714286,78.7370204 L68.0714286,111.127241 C68.0714286,114.880278 71.1094963,117.922715 74.8571429,117.922715 L129.142857,117.922715 C132.890504,117.922715 135.928571,114.880278 135.928571,111.127241 L135.928571,78.8650149 C135.928571,76.9572606 135.482976,75.075953 134.627394,73.3714302 C131.597729,67.335618 124.255734,64.902187 118.228591,67.9362101 L104.034654,75.0813416 C102.889751,75.657678 101.540713,75.6606086 100.393324,75.089252 L85.7240107,67.7844846 Z M87.5367761,64.1336393 L102.20609,71.4384067 L116.400026,64.2932751 C124.436217,60.2479111 134.225543,63.4924856 138.265097,71.5402353 C139.405873,73.8129324 140,76.3213425 140,78.8650149 L140,111.127241 C140,117.1321 135.139092,122 129.142857,122 L74.8571429,122 C68.8609084,122 64,117.1321 64,111.127241 L64,78.7370204 C64,69.729732 71.2913626,62.4278821 80.2857143,62.4278821 C82.8018622,62.4278821 85.2837898,63.0117367 87.5367761,64.1336393 Z" id="Combined-Shape" fill="url(#linearGradient-5)" fill-rule="nonzero"></path>
                    <path d="M103,12.75 L106,12.75 L106,15.5 L103,15.5 L103,21 L100,21 L100,15.5 L97,15.5 L97,12.75 L100,12.75 L100,10 L103,10 L103,12.75 Z" id="Combined-Shape" fill="#9B79C1"></path>
                </g>
                <circle id="Oval" fill="#16A1B2" cx="43" cy="29" r="4"></circle>
                <circle id="Oval-Copy-3" fill="#16A1B2" cx="37" cy="197" r="4"></circle>
                <circle id="Oval-Copy" fill="#16A1B2" cx="15" cy="51" r="2"></circle>
                <circle id="Oval-Copy-9" fill="#16A1B2" cx="69" cy="5" r="1"></circle>
                <circle id="Oval-Copy-8" fill="#B0B0B0" cx="60" cy="22" r="2"></circle>
                <circle id="Oval-Copy-2" fill="#16A1B2" cx="212" cy="170" r="2"></circle>
                <circle id="Oval-Copy-4" fill="#B0B0B0" cx="60.5" cy="201.5" r="1.5"></circle>
                <circle id="Oval-Copy-7" fill="#B0B0B0" cx="47.5" cy="15.5" r="1.5"></circle>
                <circle id="Oval-Copy-5" fill="#B0B0B0" cx="47.5" cy="209.5" r="1.5"></circle>
                <circle id="Oval-Copy-6" fill="#B0B0B0" cx="208.5" cy="177.5" r="1.5"></circle>
            </g>
        </g>
    </g>
</svg>