<?xml version="1.0" encoding="UTF-8"?>
<svg width="220px" height="220px" viewBox="0 0 220 220" version="1.1" xmlns="http://www.w3.org/2000/svg" xmlns:xlink="http://www.w3.org/1999/xlink">
    <!-- Generator: sketchtool 53 (72520) - https://sketchapp.com -->
    <title>9DD351E0-D345-413D-A6DE-E8453390C638</title>
    <desc>Created with sketchtool.</desc>
    <defs>
        <linearGradient x1="54.7122508%" y1="37.7867954%" x2="16.9705579%" y2="89.6079401%" id="linearGradient-1">
            <stop stop-color="#AA5397" offset="0%"></stop>
            <stop stop-color="#72295E" offset="100%"></stop>
        </linearGradient>
        <path d="M84.7957446,56.4613108 C60.1470784,66.9492674 8.19608607,64.9660099 5.19891343,121.919002 C2.2017408,178.871994 48.0276752,197.356737 74.3107883,191.861273 C100.593901,186.365808 125.407071,181.86952 143.154658,184.867045 C160.902246,187.864571 214.00194,174.307939 216.000055,104.767412 C217.998171,35.2268842 168.6157,18.767813 140.159366,24.998998 C111.703032,31.230183 109.444411,45.9733541 84.7957446,56.4613108 Z" id="path-2"></path>
        <filter x="-3.3%" y="-3.0%" width="106.6%" height="108.3%" filterUnits="objectBoundingBox" id="filter-3">
            <feOffset dx="0" dy="2" in="SourceAlpha" result="shadowOffsetOuter1"></feOffset>
            <feGaussianBlur stdDeviation="2" in="shadowOffsetOuter1" result="shadowBlurOuter1"></feGaussianBlur>
            <feColorMatrix values="0 0 0 0 0.446586277   0 0 0 0 0.162176853   0 0 0 0 0.368513102  0 0 0 0.3 0" type="matrix" in="shadowBlurOuter1"></feColorMatrix>
        </filter>
        <linearGradient x1="54.7122508%" y1="42.8105831%" x2="16.9705579%" y2="73.3155837%" id="linearGradient-4">
            <stop stop-color="#AA5397" offset="0%"></stop>
            <stop stop-color="#72295E" offset="100%"></stop>
        </linearGradient>
    </defs>
    <g id="propuesta-2" stroke="none" stroke-width="1" fill="none" fill-rule="evenodd">
        <g id="detalle_Polisomnografía" transform="translate(-42.000000, -213.000000)">
            <g id="POLISOMNOGRAFÍA-(ESTUDIOS-DEL-SUEÑO)_open" transform="translate(42.000000, 213.000000)">
                <path d="M110,214.499928 C160.134191,240.011894 206.370243,171.87234 218.112587,110.885998 C229.854931,49.8996566 185.453233,-17.6773629 122.569038,4.21285499 C59.6848421,26.1030729 0,51.972048 0,110.885998 C0,169.799948 59.8658087,188.987962 110,214.499928 Z" id="Oval" fill="url(#linearGradient-1)"></path>
                <g id="Path-29">
                    <use fill="black" fill-opacity="1" filter="url(#filter-3)" xlink:href="#path-2"></use>
                    <use fill="#FFFFFF" fill-rule="evenodd" xlink:href="#path-2"></use>
                </g>
                <g id="icono" transform="translate(55.000000, 53.000000)" fill-rule="nonzero">
                    <path d="M23.8171274,92.0259878 C28.4244929,91.2207733 32.1538257,91.7374436 34.9669259,93.6545388 C35.9482184,94.3232782 36.9080447,95.1663703 38.2591607,96.4901919 C38.6249715,96.8486129 39.962364,98.1804931 39.9351152,98.1534855 C40.6241288,98.8364009 41.1659436,99.360875 41.7128177,99.8689586 C45.3031996,103.20467 48.5774703,105.217997 52.6798117,106.162153 C62.5723082,108.438917 70.5417126,106.397322 75.2816697,99.56461 C75.2844284,99.56059 75.2872084,99.5565788 75.2900098,99.5525767 C79.7361914,93.1303007 76.8526622,84.0824575 70.8640015,81.0183342 C70.5350458,80.8500226 70.1910072,80.6922034 69.8318993,80.5449305 C69.4371119,80.5579299 69.0446971,80.4185972 68.7442577,80.1461475 C65.3013696,79.0223132 60.6750296,78.731562 54.8747398,79.3114953 C54.0245375,79.3965015 53.2667885,78.7722923 53.1822601,77.917285 C53.0977316,77.0622778 53.7184328,76.3002463 54.5686351,76.2152401 C59.3483808,75.7373444 63.4477952,75.8158908 66.8711512,76.4677885 C65.9053043,73.4247337 66.1848438,70.2657947 67.7125919,67.0712135 C68.082899,66.2968868 69.0072803,65.9710608 69.7772554,66.3434607 C70.5472304,66.7158606 70.8712254,67.6454662 70.5009183,68.4197928 C68.9695644,71.621914 69.0398326,74.6083821 70.7177563,77.5507436 C71.2580091,77.7616501 71.7744237,77.9930688 72.2670286,78.2451122 C79.449447,81.9200266 83.0172459,92.1157489 78.6391664,100.026136 C84.8807381,104.206956 90.9600661,103.932683 97.222925,99.2033172 C97.5043781,98.9907793 97.8494853,98.8811124 98.2012742,98.8924211 C100.101363,98.9236368 102.83485,98.3725237 105.511951,96.6923073 C109.348256,94.2845448 111.943751,90.1038389 112.725178,83.5867009 C114.406283,69.5662096 104.072455,58.5519279 93.0584823,59.1028871 C93.4988779,60.5087576 93.8788138,62.0025942 94.1981948,63.5835941 C94.3682935,64.4256166 93.8274277,65.2468823 92.9901372,65.4179423 C92.1528467,65.5890023 91.3361964,65.0450798 91.1660977,64.2030572 C89.080837,53.8806007 84.413792,48.0135327 77.1291487,46.2992032 C69.8185538,44.5787664 63.9398894,46.9814821 59.2141213,53.6673525 C58.7191126,54.3676756 57.7532953,54.5318478 57.0569079,54.0340415 C56.3605206,53.5362352 56.197271,52.5649595 56.6922797,51.8646364 C58.1190259,49.8461201 59.6630515,48.1563262 61.3193145,46.7981459 C57.3365184,43.7370708 53.1261726,42.5950356 48.596545,43.324725 C44.379588,44.0040455 40.757138,46.0172075 37.688584,49.4040912 C40.5119858,49.9027437 43.4728626,50.7456295 46.5682576,51.9335432 C47.3665031,52.2398843 47.7666661,53.1389858 47.4620465,53.9417427 C47.157427,54.7444996 46.2633783,55.1469241 45.4651328,54.8405829 C29.8442036,48.8457697 18.4746536,52.2119428 10.8695844,65.0704914 C13.5118742,64.600534 16.4373435,65.070726 19.5973899,66.485284 C20.3779483,66.8346919 20.7290567,67.7542867 20.3816124,68.5392565 C20.0341681,69.3242263 19.1197413,69.677319 18.3391829,69.3279111 C12.875182,66.8820147 8.75827741,67.8128748 5.51574266,72.1615045 C2.7361769,75.8892371 2.57436938,79.1787363 3.89846924,81.9819357 C3.92124623,82.0301559 3.9439473,82.0771221 3.96651473,82.1228157 C4.53432554,81.3191565 5.20222709,80.5645018 5.97495579,79.8731486 C12.6594611,73.8925835 19.3937527,72.7411313 28.3122925,74.9264854 C28.3191586,74.9222723 28.3260686,74.9181048 28.3330224,74.9139835 C31.468447,73.0557235 31.6051537,69.9214887 28.3486628,64.7225221 C27.8932839,63.9955126 28.1101719,63.034911 28.8330958,62.5769584 C29.5560197,62.1190058 30.5112228,62.3371196 30.9666018,63.0641292 C34.3667376,68.4924238 34.7766932,72.9449481 31.9677321,75.9643465 C31.9862316,75.9702483 32.0047404,75.9761618 32.0232585,75.9820872 C36.9056405,77.5443379 40.8848998,76.5871142 44.2274438,73.0718501 C44.8179292,72.4508524 45.7972012,72.4288226 46.414709,73.0226452 C47.0322169,73.6164678 47.0541228,74.6012743 46.4636374,75.222272 C42.2916671,79.6098215 37.0767001,80.8642987 31.0851438,78.9471375 C21.1991779,75.7838542 14.6536134,76.2731079 8.03151922,82.1978343 C0.887799464,88.5892543 5.36570514,102.431564 15.2226224,104.245436 C19.81854,105.091177 23.3577133,104.931255 25.9760591,104.090693 C27.4368941,103.621724 28.2424762,103.090565 28.5234662,102.785947 C29.1045288,102.156024 30.0833566,102.119077 30.7097392,102.703424 C31.3361218,103.28777 31.372861,104.27213 30.7917984,104.902053 C29.3045534,106.514356 26.4688642,107.790176 22.0531529,107.93986 C24.1456345,114.224723 28.7405198,116.081296 36.4810692,113.698372 C36.6712057,111.776041 35.8218779,109.883467 33.9886014,107.980244 C33.3941364,107.363098 33.4097115,106.37817 34.0233892,105.780345 C34.637067,105.18252 35.6164601,105.198183 36.2109251,105.815329 C43.068327,112.934367 39.6311407,120.291603 27.0576021,127.044077 C26.3039402,127.448823 25.3667095,127.162517 24.9642387,126.404596 C24.5617678,125.646675 24.8464644,124.704147 25.6001262,124.299402 C30.1365555,121.863164 33.214457,119.555976 34.9145117,117.319117 C26.5835165,119.085836 21.021531,115.876842 18.7939064,107.858065 C17.5191906,107.758202 16.1442965,107.578227 14.6657046,107.306136 C4.66486714,105.46578 -0.841370508,93.9166258 2.323519,85.2656162 C2.29757956,85.2390794 2.27239232,85.2114271 2.24802199,85.1826613 C1.93427787,84.8123301 1.51309843,84.1836803 1.10372241,83.3170065 C-0.690094769,79.5193872 -0.467771879,74.9996283 3.0403482,70.2948167 C4.08147656,68.8985381 5.22033408,67.7724515 6.44937516,66.9172116 C6.47276678,66.7556376 6.52205005,66.5950432 6.59912048,66.4412057 C12.8825733,53.8990372 22.1496873,48.0466048 34.1434639,48.9532592 C34.2010659,48.7799966 34.2902124,48.6140772 34.4117728,48.4640802 C38.1299332,43.8761327 42.7129386,41.1213422 48.1071592,40.2523733 C53.5502918,39.375525 58.6600039,40.7866992 63.3416177,44.4370616 C63.5563358,44.6044822 63.7152089,44.8174874 63.8152061,45.051991 C67.9161188,42.6464142 72.6102054,42.0401581 77.8341443,43.2695323 C84.3365226,44.7997677 89.0491265,49.1091628 91.9564238,56.0664626 C105.232614,54.7274438 117.755025,67.6288532 115.796961,83.9591931 C114.90454,91.4020228 111.788955,96.4204666 107.150083,99.3319404 C104.109058,101.240565 101.041982,101.947015 98.6621714,102.001724 C91.4657854,107.235489 84.0977718,107.432061 76.8884936,102.591442 C72.5955213,107.933717 66.4305384,110.362254 59.1266655,110.152042 C55.9517052,116.555932 49.3060447,122.744059 39.2197234,128.780902 C38.4855218,129.220335 37.536105,128.978014 37.0991418,128.239663 C36.6621785,127.501312 36.9031378,126.546529 37.6373394,126.107097 C46.6423718,120.717424 52.675909,115.290698 55.7626226,109.87988 C54.5307318,109.719008 53.2720172,109.490414 51.9895653,109.195257 C47.2819299,108.111792 43.5662528,105.827047 39.6132506,102.154436 C39.0379274,101.619922 38.4739731,101.074017 37.7632493,100.369583 C37.7823289,100.388494 36.4551817,99.0668167 36.1000192,98.718829 C34.8700558,97.5137125 34.024268,96.7707896 33.2312228,96.2303384 C30.8905012,94.6351638 27.4271397,94.3254556 22.7875956,95.4112995 C21.6963967,97.2424391 19.7472285,98.9545639 16.9736882,100.494293 C16.2256965,100.90954 15.2845971,100.63637 14.8716837,99.8841511 C14.4587703,99.1319321 14.7304049,98.185514 15.4783965,97.770267 C17.8424067,96.4578884 19.3831706,95.1740216 20.1440605,93.8497539 C20.1880798,93.559964 20.3130002,93.2896371 20.5005884,93.0697919 C21.0553428,91.4446835 20.4799684,89.7406971 18.8513737,87.8356359 C18.2943836,87.1840925 18.3680659,86.2018306 19.0159478,85.6416926 C19.6638297,85.0815546 20.6405715,85.1556534 21.1975616,85.8071968 C23.0151919,87.9333839 23.8763599,90.0254133 23.8171274,92.0259878 Z M53.345043,86.5385585 C61.2639603,84.8982351 66.3262852,88.745818 67.9222954,97.7137844 C68.0728177,98.5595678 67.5130504,99.3679229 66.6720201,99.5192959 C65.8309897,99.6706689 65.0271775,99.107738 64.8766552,98.2619545 C63.4305058,90.1360545 59.2534336,87.6406739 51.5013915,90.2670457 C51.4148633,90.2963612 51.3275605,90.317545 51.2403039,90.3310065 C49.106616,92.0720712 45.4684875,92.5914216 40.4711993,91.7879129 C39.627521,91.6522588 39.052936,90.8544876 39.1878278,90.0060411 C39.3227196,89.1575947 40.1160074,88.5797623 40.9596858,88.7154165 C49.4943198,90.0876913 51.8828728,87.7803862 49.5417611,80.8073898 C49.2684446,79.9933169 49.7031055,79.1105613 50.5126034,78.8357 C51.3221014,78.5608388 52.1998961,78.9979562 52.4732127,79.8120291 C53.3646209,82.4670867 53.6444953,84.7167374 53.345043,86.5385585 Z M96.0340691,81.135939 C96.4639233,84.2694129 96.3906294,87.9023743 95.8151077,92.0168637 C95.6960941,92.8677095 94.9137439,93.4604315 94.0676797,93.3407453 C93.2216154,93.2210591 92.6322244,92.4342874 92.751238,91.5834415 C94.4977551,79.0973324 91.4555255,72.3060061 83.6601542,70.5148237 C82.6777134,72.9527844 80.3014282,75.3068686 76.6182668,77.487509 C75.8819945,77.9234239 74.9337349,77.6765629 74.5002698,76.9361295 C74.0668046,76.1956961 74.3122782,75.2420774 75.0485505,74.8061624 C81.2962713,71.1071575 82.4864941,67.899409 79.4199869,64.3582162 C78.8588816,63.7102536 78.9263413,62.7275396 79.5706625,62.1632632 C80.2149837,61.5989868 81.1921749,61.6668278 81.7532802,62.3147904 C83.2344453,64.0252351 84.0264047,65.7422913 84.1565408,67.4377581 C89.6552905,68.6357619 93.2848526,71.841223 95.0517754,76.9263886 C95.1369915,76.9664865 95.2197656,77.0150065 95.2989971,77.0721308 C100.279095,80.6626837 102.982374,79.3586997 104.637038,72.3134492 C104.833433,71.4772344 105.666719,70.959458 106.498235,71.1569632 C107.32975,71.3544685 107.844617,72.1924641 107.648221,73.0286789 C105.788359,80.9476265 101.644533,83.8378696 96.0340691,81.135939 Z M73.6880044,59.2821369 C74.8196473,59.6615268 75.9815609,60.1121208 77.1731803,60.6339409 C77.9565288,60.9769757 78.3150364,61.8936788 77.9739294,62.6814545 C77.6328223,63.4692302 76.721271,63.8297639 75.9379224,63.4867291 C64.4586868,58.4598763 56.8545161,60.6500118 52.4052954,70.0852426 C52.0392038,70.8615939 51.1166078,71.1924978 50.3446195,70.8243373 C49.5726312,70.4561768 49.2435869,69.5283666 49.6096784,68.7520154 C50.3799368,67.1185685 51.2420664,65.6671308 52.1937474,64.3977927 C51.0143574,61.2519273 48.2547346,60.3348495 43.2831368,61.6519331 C42.4569301,61.8708131 41.6107172,61.3746922 41.3930673,60.5438162 C41.1754174,59.7129401 41.6687501,58.8619447 42.4949567,58.6430647 C48.2176795,57.126992 52.3523697,58.2085338 54.4390755,61.8916028 C58.293033,58.3257754 63.261041,57.0701856 69.2383432,58.1289224 C69.2778604,58.1141252 69.3182912,58.100824 69.3595894,58.0891023 C72.4845663,57.2021356 73.3712394,55.337122 72.2568634,51.7303539 C72.0033468,50.9098271 72.4592613,50.0379814 73.275177,49.783032 C74.0910926,49.5280827 74.9580387,49.9865739 75.2115552,50.8071007 C76.3476741,54.4842412 75.8120743,57.3985771 73.6880044,59.2821369 Z M19.7114013,64.6606761 C19.2899871,65.408112 18.3458519,65.670474 17.6026164,65.2466781 C16.859381,64.8228822 16.5984933,63.8734112 17.0199076,63.1259752 C20.9200283,56.2085771 26.800251,53.0599181 34.4067588,53.8401921 C35.2567423,53.9273833 35.8755049,54.6910076 35.7888037,55.5457948 C35.7021026,56.400582 34.9427697,57.0228415 34.0927863,56.9356504 C27.7227608,56.2822145 23.0135715,58.803825 19.7114013,64.6606761 Z M108.694886,79.7003263 C108.671395,78.8414285 109.344713,78.1260033 110.198784,78.1023793 C111.052854,78.0787553 111.764259,78.7558784 111.78775,79.6147762 C111.990205,87.0170082 109.035369,91.7389985 103.031592,93.3060211 C102.204598,93.5218717 101.360189,93.0226529 101.145551,92.1909847 C100.930913,91.3593165 101.427327,90.5101347 102.254321,90.2942841 C106.749552,89.1210014 108.86029,85.747924 108.694886,79.7003263 Z M45.774579,97.5082355 C45.4812521,96.7012365 45.8939891,95.8079021 46.696453,95.5129174 C47.4989169,95.2179328 48.3872308,95.6330024 48.6805577,96.4400015 C50.2438818,100.741008 53.4404655,102.498913 58.7215728,101.853315 C59.5697232,101.749631 60.3408649,102.357026 60.4439658,103.20997 C60.5470668,104.062914 59.9430849,104.838414 59.0949345,104.942098 C52.4450534,105.755024 47.8545135,103.230537 45.774579,97.5082355 Z" id="Combined-Shape" fill="url(#linearGradient-4)"></path>
                    <path d="M37.3216502,11.4938812 L23.8456792,15.927398 C22.7105554,16.3008472 21.4858409,15.6887505 21.1102027,14.5602417 C20.7345644,13.4317329 21.3502491,12.2141554 22.4853729,11.8407062 L39.8969796,6.11238783 C41.5574576,5.5661001 43.1503993,7.10154135 42.6524977,8.76843999 L34.3733018,36.4859239 L51.1457697,30.8907577 C52.2793199,30.5126141 53.5065868,31.1196371 53.886947,32.2465816 C54.2673072,33.373526 53.656726,34.593641 52.5231757,34.9717846 L31.8005122,41.8847056 C30.1384399,42.4391602 28.5373727,40.9023011 29.0364442,39.231486 L37.3216502,11.4938812 Z" id="Path-39" fill="#9B79C1"></path>
                    <path d="M64.9964312,3.96304957 C63.94457,3.38918169 63.5720711,2.09788801 64.1644317,1.07886441 C64.7567922,0.0598408144 66.0896972,-0.301029194 67.1415584,0.272838688 L78.8867227,6.68069235 C80.4315014,7.52348311 80.3524364,9.70359657 78.7504121,10.4392782 L65.3176445,16.6078739 L72.7267178,19.963651 C73.8202919,20.4589614 74.2923414,21.719331 73.7810698,22.7787653 C73.2697983,23.8381996 71.9688138,24.2955124 70.8752397,23.800202 L59.2600685,18.5393652 C57.5849034,17.7806359 57.5785768,15.4749557 59.2495545,14.7076093 L73.0632395,8.36408865 L64.9964312,3.96304957 Z" id="Path-40" fill="#C0A1E2"></path>
                    <path d="M92.1412995,7.2 C90.9586924,7.2 90,6.25979797 90,5.1 C90,3.94020203 90.9586924,3 92.1412995,3 L101.069331,3 C102.863053,3 103.861818,5.03334137 102.743782,6.40894052 L97.5493673,12.8 L101.858701,12.8 C103.041308,12.8 104,13.740202 104,14.9 C104,16.059798 103.041308,17 101.858701,17 L93.1042569,17 C91.3105353,17 90.3117704,14.9666586 91.4298061,13.5910595 L96.6242207,7.2 L92.1412995,7.2 Z" id="Path-42" fill="#EFE1FF"></path>
                </g>
                <circle id="Oval" fill="#16A1B2" cx="43" cy="29" r="4"></circle>
                <circle id="Oval-Copy-3" fill="#16A1B2" cx="37" cy="197" r="4"></circle>
                <circle id="Oval-Copy" fill="#16A1B2" cx="15" cy="51" r="2"></circle>
                <circle id="Oval-Copy-9" fill="#16A1B2" cx="69" cy="5" r="1"></circle>
                <circle id="Oval-Copy-8" fill="#B0B0B0" cx="60" cy="22" r="2"></circle>
                <circle id="Oval-Copy-2" fill="#16A1B2" cx="212" cy="170" r="2"></circle>
                <circle id="Oval-Copy-4" fill="#B0B0B0" cx="60.5" cy="201.5" r="1.5"></circle>
                <circle id="Oval-Copy-7" fill="#B0B0B0" cx="47.5" cy="15.5" r="1.5"></circle>
                <circle id="Oval-Copy-5" fill="#B0B0B0" cx="47.5" cy="209.5" r="1.5"></circle>
                <circle id="Oval-Copy-6" fill="#B0B0B0" cx="208.5" cy="177.5" r="1.5"></circle>
            </g>
        </g>
    </g>
</svg>