<?xml version="1.0" encoding="UTF-8"?>
<svg width="220px" height="220px" viewBox="0 0 220 220" version="1.1" xmlns="http://www.w3.org/2000/svg" xmlns:xlink="http://www.w3.org/1999/xlink">
    <!-- Generator: sketchtool 53 (72520) - https://sketchapp.com -->
    <title>32D9C935-0BAD-448B-8A27-38AC35B82D60</title>
    <desc>Created with sketchtool.</desc>
    <defs>
        <linearGradient x1="54.7122508%" y1="37.7867954%" x2="16.9705579%" y2="89.6079401%" id="linearGradient-1">
            <stop stop-color="#AA5397" offset="0%"></stop>
            <stop stop-color="#72295E" offset="100%"></stop>
        </linearGradient>
        <path d="M84.7957446,56.4613108 C60.1470784,66.9492674 8.19608607,64.9660099 5.19891343,121.919002 C2.2017408,178.871994 48.0276752,197.356737 74.3107883,191.861273 C100.593901,186.365808 125.407071,181.86952 143.154658,184.867045 C160.902246,187.864571 214.00194,174.307939 216.000055,104.767412 C217.998171,35.2268842 168.6157,18.767813 140.159366,24.998998 C111.703032,31.230183 109.444411,45.9733541 84.7957446,56.4613108 Z" id="path-2"></path>
        <filter x="-3.3%" y="-3.0%" width="106.6%" height="108.3%" filterUnits="objectBoundingBox" id="filter-3">
            <feOffset dx="0" dy="2" in="SourceAlpha" result="shadowOffsetOuter1"></feOffset>
            <feGaussianBlur stdDeviation="2" in="shadowOffsetOuter1" result="shadowBlurOuter1"></feGaussianBlur>
            <feColorMatrix values="0 0 0 0 0.446586277   0 0 0 0 0.162176853   0 0 0 0 0.368513102  0 0 0 0.3 0" type="matrix" in="shadowBlurOuter1"></feColorMatrix>
        </filter>
        <linearGradient x1="54.7122508%" y1="44.6132658%" x2="16.9705579%" y2="67.4694073%" id="linearGradient-4">
            <stop stop-color="#AA5397" offset="0%"></stop>
            <stop stop-color="#72295E" offset="100%"></stop>
        </linearGradient>
    </defs>
    <g id="propuesta-2" stroke="none" stroke-width="1" fill="none" fill-rule="evenodd">
        <g id="detalle_potenciales-evocados" transform="translate(-42.000000, -213.000000)">
            <g id="Potenciales-Evocados_open" transform="translate(42.000000, 213.000000)">
                <path d="M110,214.499928 C160.134191,240.011894 206.370243,171.87234 218.112587,110.885998 C229.854931,49.8996566 185.453233,-17.6773629 122.569038,4.21285499 C59.6848421,26.1030729 0,51.972048 0,110.885998 C0,169.799948 59.8658087,188.987962 110,214.499928 Z" id="Oval" fill="url(#linearGradient-1)"></path>
                <g id="Path-29">
                    <use fill="black" fill-opacity="1" filter="url(#filter-3)" xlink:href="#path-2"></use>
                    <use fill="#FFFFFF" fill-rule="evenodd" xlink:href="#path-2"></use>
                </g>
                <g id="icono" transform="translate(34.000000, 67.000000)">
                    <path d="M71.9163196,48.0514742 C71.9230045,48.0649293 71.9295648,48.0784863 71.9359984,48.0921446 L77.6222996,60.1637974 L84.6237719,37.2875448 C85.2697698,35.1768445 88.2966787,35.3461136 88.7057177,37.5158131 L94.9063984,70.4065936 L103.844579,1.84163248 C104.168151,-0.64049248 107.755462,-0.601904538 108.026103,1.88661225 L113.136223,48.8735955 L115.604587,42.5776372 C116.360645,40.6491897 119.1385,40.8492598 119.613246,42.8663536 L125.060181,66.009239 L129.107481,45.7588697 C129.30505,44.7703478 130.168972,44.0591241 131.172157,44.0591241 L151.89408,44.0591241 C153.057148,44.0591241 154,45.0067538 154,46.1757143 C154,47.3446748 153.057148,48.2923046 151.89408,48.2923046 L132.897117,48.2923046 L127.292682,76.3336836 C126.847538,78.5609318 123.698964,78.6148073 123.178645,76.4040793 L117.060742,50.4103965 L113.928646,58.3993101 C113.122546,60.4553957 110.11482,60.0502081 109.875898,57.8533418 L105.743726,19.8584807 L97.3739025,84.0635662 C97.0628868,86.4493742 93.6624187,86.5467699 93.2167241,84.1826354 L86.1500834,46.698472 L80.0530231,66.6196949 C79.4879251,68.4660673 76.9592284,68.6490477 76.1367973,66.9030792 L69.2066649,52.1908526 C66.9737103,55.7515726 64.9226328,59.4137631 62.7713449,63.5733167 C62.2142049,64.6505568 61.6650829,65.7306752 60.9741959,67.1035656 C60.9492263,67.1531837 59.6682794,69.7042704 59.3139558,70.4051699 C58.014312,72.9760398 57.1017663,74.7026234 56.188211,76.2793804 C51.8784677,83.7178106 47.6413951,87 40.8232578,87 C30.5648841,87 24.4452199,81.4910349 23.0198466,71.0218724 C22.8621624,69.863705 23.6684812,68.7963488 24.82081,68.6378657 C25.9731388,68.4793826 27.0351141,69.2897869 27.1927982,70.4479543 C28.3358429,78.8434536 32.6941355,82.7668195 40.8232578,82.7668195 C45.8825466,82.7668195 48.9178133,80.4155923 52.5485155,74.1491575 C53.4123186,72.6582709 54.2929122,70.9921421 55.5589986,68.4876533 C55.9102408,67.7928491 57.188471,65.2471731 57.2157493,65.1929672 C57.9130815,63.8072692 58.4687902,62.7141949 59.0342432,61.6208815 C62.2286589,55.4444216 65.2230639,50.3115008 68.893308,45.0014602 C82.0640002,25.9463485 70.5358217,4.233191 52.1453194,4.233191 C41.2038568,4.233191 32.8844139,9.60485351 26.9573457,20.5844104 C26.4026881,21.6118822 25.1243179,21.9928955 24.1020259,21.4354275 C23.079734,20.8779595 22.7006415,19.593112 23.2552991,18.5656403 C29.8942842,6.26729773 39.6008393,1.04981663e-05 52.1453194,1.04981663e-05 C73.9162283,1.04981663e-05 87.4749255,25.5376206 72.3523861,47.4166283 C72.2059511,47.6284878 72.0606155,47.840075 71.9163196,48.0514742 Z M41.2117173,57.1192311 C39.7470299,63.5124703 34.7864247,65.9023166 27.3933562,64.1377067 C26.2617606,63.8676126 25.5622718,62.7266704 25.8310044,61.5893412 C26.099737,60.4520119 27.2349273,59.748979 28.3665229,60.0190732 C33.6592454,61.2823633 36.2183463,60.0494779 37.1072804,56.169354 C37.9797532,52.361082 36.1209965,50.2417124 30.4804793,49.2478375 C29.352021,49.049 28.5887368,47.9799653 28.7626038,46.8418288 C32.2721237,23.8684454 43.7736746,15.5964182 62.1973861,23.2343461 C63.2725779,23.680089 63.7846687,24.9174665 63.341173,25.9981061 C62.8976773,27.0787457 61.6665378,27.5934313 60.591346,27.1476884 C45.4275523,20.8612263 36.636561,26.6230917 33.249801,45.5274491 C39.6406422,47.2425913 42.5569888,51.2472321 41.2117173,57.1192311 Z" id="Combined-Shape" fill="url(#linearGradient-4)" fill-rule="nonzero"></path>
                    <path d="M16.3498755,35.3112229 C15.7426038,34.3649183 15.9461723,33.0550741 16.8045586,32.385604 C17.6629448,31.7161338 18.8510953,31.9405525 19.458367,32.886857 C25.5040654,42.3078005 25.5040654,52.4921178 19.517026,63.0160215 C18.9583561,63.9980407 17.7833427,64.2948467 16.89256,63.6789563 C16.0017773,63.063066 15.7325466,61.7677043 16.2912165,60.7856851 C21.4827978,51.6600226 21.4827978,43.3097976 16.3498755,35.3112229 Z" id="Path-34" fill="#9B79C1" fill-rule="nonzero"></path>
                    <path d="M10.303109,44.1713682 C9.70021539,43.1806205 10.0247108,41.8947755 11.0278899,41.2993529 C12.0310689,40.7039303 13.3330481,41.0244046 13.9359417,42.0151523 C16.7002257,46.5577577 16.7002257,51.0488548 13.8619715,55.0981179 C13.1958057,56.0485192 11.875652,56.2856297 10.9133256,55.627719 C9.95099915,54.9698084 9.71091351,53.666014 10.3770793,52.7156127 C12.2352958,50.0645438 12.2352958,47.3465708 10.303109,44.1713682 Z" id="Path-35" fill="#9B79C1" fill-rule="nonzero"></path>
                    <circle id="Oval" stroke="#9B79C1" stroke-width="3" fill="#EFE1FF" cx="2.5" cy="48.5" r="2.5"></circle>
                </g>
                <circle id="Oval" fill="#16A1B2" cx="43" cy="29" r="4"></circle>
                <circle id="Oval-Copy-3" fill="#16A1B2" cx="37" cy="197" r="4"></circle>
                <circle id="Oval-Copy" fill="#16A1B2" cx="15" cy="51" r="2"></circle>
                <circle id="Oval-Copy-9" fill="#16A1B2" cx="69" cy="5" r="1"></circle>
                <circle id="Oval-Copy-8" fill="#B0B0B0" cx="60" cy="22" r="2"></circle>
                <circle id="Oval-Copy-2" fill="#16A1B2" cx="212" cy="170" r="2"></circle>
                <circle id="Oval-Copy-4" fill="#B0B0B0" cx="60.5" cy="201.5" r="1.5"></circle>
                <circle id="Oval-Copy-7" fill="#B0B0B0" cx="47.5" cy="15.5" r="1.5"></circle>
                <circle id="Oval-Copy-5" fill="#B0B0B0" cx="47.5" cy="209.5" r="1.5"></circle>
                <circle id="Oval-Copy-6" fill="#B0B0B0" cx="208.5" cy="177.5" r="1.5"></circle>
            </g>
        </g>
    </g>
</svg>