<?xml version="1.0" encoding="UTF-8"?>
<svg width="220px" height="220px" viewBox="0 0 220 220" version="1.1" xmlns="http://www.w3.org/2000/svg" xmlns:xlink="http://www.w3.org/1999/xlink">
    <!-- Generator: sketchtool 53 (72520) - https://sketchapp.com -->
    <title>70CA5C2F-34D6-4B41-BBD3-2985994B0F08</title>
    <desc>Created with sketchtool.</desc>
    <defs>
        <linearGradient x1="54.7122508%" y1="37.7867954%" x2="16.9705579%" y2="89.6079401%" id="linearGradient-1">
            <stop stop-color="#AA5397" offset="0%"></stop>
            <stop stop-color="#72295E" offset="100%"></stop>
        </linearGradient>
        <path d="M84.7957446,56.4613108 C60.1470784,66.9492674 8.19608607,64.9660099 5.19891343,121.919002 C2.2017408,178.871994 48.0276752,197.356737 74.3107883,191.861273 C100.593901,186.365808 125.407071,181.86952 143.154658,184.867045 C160.902246,187.864571 214.00194,174.307939 216.000055,104.767412 C217.998171,35.2268842 168.6157,18.767813 140.159366,24.998998 C111.703032,31.230183 109.444411,45.9733541 84.7957446,56.4613108 Z" id="path-2"></path>
        <filter x="-3.3%" y="-3.0%" width="106.6%" height="108.3%" filterUnits="objectBoundingBox" id="filter-3">
            <feOffset dx="0" dy="2" in="SourceAlpha" result="shadowOffsetOuter1"></feOffset>
            <feGaussianBlur stdDeviation="2" in="shadowOffsetOuter1" result="shadowBlurOuter1"></feGaussianBlur>
            <feColorMatrix values="0 0 0 0 0.446586277   0 0 0 0 0.162176853   0 0 0 0 0.368513102  0 0 0 0.3 0" type="matrix" in="shadowBlurOuter1"></feColorMatrix>
        </filter>
        <linearGradient x1="51.9128557%" y1="37.7867954%" x2="36.5922764%" y2="89.6079401%" id="linearGradient-4">
            <stop stop-color="#AA5397" offset="0%"></stop>
            <stop stop-color="#72295E" offset="100%"></stop>
        </linearGradient>
    </defs>
    <g id="propuesta-2" stroke="none" stroke-width="1" fill="none" fill-rule="evenodd">
        <g id="detalle_-Sistema-nervioso-autónomo" transform="translate(-42.000000, -213.000000)">
            <g id="SISTEMA-NERVIOSO-AUTÓNOMO_open" transform="translate(42.000000, 213.000000)">
                <path d="M110,214.499928 C160.134191,240.011894 206.370243,171.87234 218.112587,110.885998 C229.854931,49.8996566 185.453233,-17.6773629 122.569038,4.21285499 C59.6848421,26.1030729 0,51.972048 0,110.885998 C0,169.799948 59.8658087,188.987962 110,214.499928 Z" id="Oval" fill="url(#linearGradient-1)"></path>
                <g id="Path-29">
                    <use fill="black" fill-opacity="1" filter="url(#filter-3)" xlink:href="#path-2"></use>
                    <use fill="#FFFFFF" fill-rule="evenodd" xlink:href="#path-2"></use>
                </g>
                <g id="icono" transform="translate(39.000000, 35.000000)">
                    <path d="M48,48.2406786 C47.8444781,52 50.5397093,63.1272348 60.3571294,69.5671756 C70.1745494,76.0071165 74.8789927,141.0321 71.7587889,147.211032 C71.7587889,147.737011 73.7392373,148 77.7001341,148 C82.7442816,96.7510086 82.0055977,68.9234625 75.4840824,64.5173618 C57.9166535,53.8324668 63.2953269,42 63.2953269,42 C63.2953269,42 48,48.2406786 48,48.2406786 Z" id="Path-50" fill="#EFE1FF"></path>
                    <path d="M60.5814595,43.4142707 C57.7432911,45.7481705 54.9522952,47.2476378 51.5366722,48.0117932 C50.29247,48.2901505 49.0749933,48.4956579 47.8882745,48.6268451 C49.8983132,57.9889381 53.8900158,64.2852273 59.832636,67.6050351 C68.174536,72.2651856 73.1626361,105.555715 73.1626361,129.434196 C73.1626361,136.954532 72.8631715,143.019523 72.2614972,147.637757 C72.1769155,148.286976 69.7719392,147.987549 69.8565209,147.33833 C70.4434141,142.83355 70.7382332,136.862643 70.7382332,129.434196 C70.7382332,106.801687 65.7712871,73.6523391 58.6297416,69.6627591 C51.9488002,65.9304928 47.5653582,58.9429303 45.4476104,48.7924705 C39.3951044,48.9336438 34.2860592,46.9575472 30.7211437,42.6451658 C24.69418,46.5789222 18.5345134,46.4191764 12.5183276,42.1659282 C10.5288039,42.121468 7.96472475,41.5473676 5.42242511,39.9963133 C3.6041048,38.886958 2.06574116,37.4011873 0.867643308,35.5124131 C1.62748859,35.105492 2.39999993,34.7278669 3.18907613,34.3734337 C4.15986136,35.840417 5.37459157,36.9864989 6.79190537,37.8512005 C9.02996425,39.2166379 11.3151618,39.664503 12.9036381,39.6391353 C13.197734,39.6299453 13.486244,39.7190667 13.721539,39.8917868 C18.9572952,43.7351327 24.0396194,43.9580221 29.2575795,40.5604549 C26.5765711,35.8516358 27.4597801,30.146329 30.4840777,26.2571831 C33.9126151,25.2189551 37.6542432,23.9931041 41.7685547,22.4863281 C43.0746425,22.0080022 44.3517841,21.5020811 45.5985215,20.9738546 C46.7969431,21.0028 48.0575818,21.0818135 49.3805674,21.2103964 C50.0913373,21.2794771 50.6102441,21.8987463 50.5395782,22.5935728 C50.4689124,23.2883992 49.8354335,23.7956664 49.1246635,23.7265856 C43.1980962,23.1505739 38.7375823,23.6315277 35.757625,25.1136578 C30.7510987,27.6037349 28.3404655,34.9565157 32.0574777,40.1756146 C32.0598197,40.1788669 32.0621438,40.1821266 32.0644501,40.1853934 C36.0270589,45.7380354 42.6894888,47.3971489 50.9596256,45.5469244 C54.389187,44.7796507 57.1264806,43.1435088 60.1280434,40.4327241 C60.5852306,40.0198271 61.0381884,39.5936103 61.6142044,39.0386352 C61.5914244,39.0605831 62.7094858,37.9782231 63.015304,37.6869503 C64.1448383,36.6111392 64.9472541,35.9259956 65.7676155,35.3825408 C68.11937,33.8246026 71.2370959,33.4047275 75.0888581,34.0590896 C75.0393396,32.4333115 75.7592769,30.733212 77.2788176,29.0053541 C77.7444619,28.4758736 78.561019,28.4156568 79.1026489,28.8708561 C79.6442788,29.3260554 79.7058773,30.1242961 79.240233,30.6537765 C77.8787263,32.2019353 77.3977127,33.5866894 77.8614879,34.9073429 C78.0183118,35.0860013 78.1227454,35.305684 78.1595456,35.5411834 C78.7956503,36.6173571 80.0837304,37.6606986 82.0600453,38.7272105 C82.685367,39.0646633 82.9124538,39.8337754 82.5672578,40.4450704 C82.2220618,41.0563653 81.4353017,41.2783583 80.80998,40.9409055 C78.4912975,39.6896361 76.861791,38.2982682 75.9495477,36.8101823 C72.0708842,35.9277651 69.1755106,36.1794512 67.2186651,37.4757789 C66.5556784,37.9149796 65.848599,38.5187201 64.8203484,39.4980648 C64.5581448,39.7477974 63.6622527,40.6146031 63.4673431,40.8032834 C63.4700446,40.8982697 63.461018,40.9951078 63.4391563,41.0921037 C62.5338821,45.108614 62.6567936,48.5922525 63.8217139,51.571717 C63.9918811,51.5543014 64.1683959,51.5698077 64.3420628,51.6229398 C70.9097558,53.632274 74.7998807,52.1409 76.5635425,46.9915873 C72.8720035,46.8699463 70.5013645,45.8331441 69.2580262,44.5228963 C68.7722573,44.0109861 68.8029713,43.2110406 69.3266278,42.7361682 C69.8502843,42.2612957 70.6685853,42.2913207 71.1543542,42.8032309 C71.3892621,43.0507803 72.0627296,43.48243 73.283989,43.8635401 C75.4729287,44.5466275 78.431681,44.6765895 82.2738727,43.9892929 C90.5142652,42.5152401 94.2577988,31.2662088 88.285642,26.0721853 C82.7495647,21.2574229 77.2774664,20.8598282 69.0127892,23.4304882 C64.0038422,24.98848 59.6441247,23.9690221 56.1563534,20.4034552 C55.662707,19.8987979 55.6810204,19.0984894 56.1972576,18.6159161 C56.7134947,18.1333428 57.5321671,18.1512454 58.0258135,18.6559027 C60.8201835,21.5126019 64.1468483,22.2904952 68.2285244,21.0209233 C68.2440055,21.016108 68.2594789,21.0113023 68.2749445,21.0065063 C65.9266503,18.5527751 66.2693736,14.9344062 69.1118904,10.5230719 C69.4925877,9.93226346 70.2911385,9.75501207 70.8955036,10.1271698 C71.4998686,10.4993276 71.6811872,11.2799659 71.30049,11.8707743 C68.5780604,16.0957438 68.6923474,18.6427974 71.3135654,20.1529228 C71.3193788,20.156272 71.3251556,20.1596588 71.3308956,20.1630825 C78.7868037,18.3871422 84.4166781,19.3228764 90.0049311,24.1830163 C90.650933,24.7448484 91.2092994,25.3581228 91.6839898,26.011221 C91.7028562,25.9740879 91.7218343,25.9359205 91.7408759,25.896734 C92.8478247,23.6186982 92.7125534,20.9454682 90.3888337,17.9161053 C87.6780715,14.3821668 84.2363352,13.6256981 79.6684251,15.6133696 C79.0158775,15.8973179 78.2514157,15.6103751 77.960952,14.972465 C77.6704882,14.3345548 77.9640152,13.5872409 78.6165628,13.3032926 C81.2583647,12.1537441 83.7040599,11.77164 85.9130167,12.1535534 C82.7419385,6.94166025 78.7879609,3.64876924 74.0005789,2.26163221 C75.0029301,1.3076159 75.6845922,0.607131765 76.0193589,0.255260454 C81.5361492,2.25210082 86.0441672,6.59477586 89.4831288,13.2674722 C89.5475597,13.3924891 89.5887606,13.522997 89.608316,13.6543011 C90.6357956,14.3493166 91.5878816,15.2644372 92.4582659,16.3991308 C95.3910578,20.2225226 95.5769199,23.8955301 94.077287,26.9816869 C93.7350482,27.6859942 93.3829418,28.19687 93.1206514,28.4978217 C93.1002778,28.5211984 93.0792212,28.5436703 93.0575349,28.5652332 C95.7033876,35.5955252 91.1001674,44.9810126 82.7394565,46.4765881 C81.5033522,46.6977042 80.3539394,46.8439626 79.2882757,46.9251167 C77.3931905,53.5563553 72.6115537,56.1400457 65.4414061,54.5340968 C67.1233532,56.8593457 69.6249899,58.7977501 72.9558932,60.3691926 C79.5117572,63.4620964 81.6334326,80.2408807 80.9552561,106.861079 C80.7236728,115.95133 80.1610989,125.537914 79.3888625,135.024979 C79.118613,138.345043 78.8414396,141.4158 78.5724854,144.162573 C78.4783069,145.124399 78.3918644,145.977185 78.3150504,146.711593 C78.2688816,147.153007 78.236128,147.457347 78.2186822,147.615274 C78.1468028,148.265954 75.736414,148.011494 75.8082934,147.360814 C75.8252538,147.207282 75.8575276,146.9074 75.9032219,146.470523 C75.9795131,145.741113 76.0654411,144.893402 76.1591134,143.936747 C76.4268757,141.202146 76.7029171,138.143931 76.9720988,134.836984 C77.7410944,125.389733 78.3012383,115.844557 78.5316047,106.802073 C79.1732847,81.6144607 77.0647016,64.9392144 71.9021635,62.5036492 C63.3757337,58.4810783 59.5640943,52.0389125 60.5814595,43.4142707 Z M14.5434921,30.6166578 C15.3696556,30.3959966 16.2184105,30.1733333 17.0919394,29.9452507 C17.1457915,31.1179241 17.2684139,32.3689002 17.4598737,33.6994519 C17.5593692,34.3908966 17.0666377,35.0302711 16.3593272,35.1275347 C15.6520167,35.2247984 14.9979711,34.7431195 14.8984756,34.0516749 C14.7264879,32.8564448 14.6081497,31.7112165 14.543496,30.6166568 Z M72.5710807,3.58969981 C75.9407567,4.65007635 78.6925086,6.98920052 80.7713405,10.5733314 C81.1236432,11.1807395 80.9055409,11.9523324 80.2841953,12.2967326 C79.6628498,12.6411327 78.8735518,12.4279227 78.5212491,11.8205147 C76.4524379,8.25366064 73.7230306,6.20897576 70.2437231,5.63167067 C71.1076104,4.89840064 71.8847849,4.21270554 72.5710807,3.58969981 Z M5.31884808,33.4853296 C6.3593917,33.0821256 7.43204259,32.7075013 8.54472846,32.3490447 C8.85199521,32.464772 9.17549239,32.5655991 9.51528696,32.6518109 C10.2066551,32.8272231 10.621657,33.5173154 10.4422198,34.1931753 C10.2627826,34.8690351 9.55685544,35.2747281 8.86548734,35.0993159 C7.49169946,34.7507618 6.30886726,34.2101295 5.31884808,33.4853296 Z M50.4034915,29.5996993 C50.1531491,28.1191861 50.3871244,26.2909948 51.1323426,24.1333472 C51.3608355,23.4717863 52.0946727,23.1165603 52.7714138,23.3399279 C53.4481549,23.5632954 53.8115319,24.2806717 53.5830389,24.9422327 C51.6258673,30.6088776 53.6226999,32.4839221 60.7576624,31.3687352 C61.4629783,31.2584951 62.1261677,31.7280738 62.2389374,32.4175686 C62.3517071,33.1070634 61.8713535,33.7553766 61.1660375,33.8656167 C56.9882997,34.5185926 53.9468207,34.0965396 52.1630555,32.6816535 C52.0901089,32.670714 52.0171237,32.6534988 51.944786,32.6296754 C45.4640712,30.4953396 41.9720347,32.5232247 40.7630524,39.1267831 C40.6372156,39.8141138 39.9652278,40.2715828 39.2621256,40.1485687 C38.5590234,40.0255546 38.0910574,39.3686403 38.2168942,38.6813096 C39.5511603,31.3934412 43.7832689,28.2666812 50.4034915,29.5996993 Z M56.7324069,38.5142692 C54.9935796,43.1645301 51.1558837,45.2160685 45.5965766,44.5554391 C44.887522,44.47118 44.3825925,43.8409657 44.4687851,43.1478161 C44.5549776,42.4546665 45.1996528,41.9610632 45.9087073,42.0453223 C50.3237183,42.5699716 52.9960653,41.1414001 54.3030058,37.6461627 C54.5482274,36.9903504 55.2908587,36.6530417 55.9617193,36.8927627 C56.6325799,37.1324836 56.9776285,37.8584568 56.7324069,38.5142692 Z" id="Combined-Shape" fill="url(#linearGradient-4)" fill-rule="nonzero"></path>
                    <circle id="Oval" stroke="#9B79C1" stroke-width="2" fill="#EFE1FF" cx="116" cy="57" r="5"></circle>
                    <circle id="Oval-Copy" stroke="#9B79C1" stroke-width="2" fill="#EFE1FF" cx="112" cy="106" r="5"></circle>
                    <circle id="Oval-Copy-2" stroke="#9B79C1" stroke-width="2" fill="#EFE1FF" cx="27" cy="101" r="5"></circle>
                    <path d="M32,97.5912272 L64.1416368,87.2057292" id="Path-51" stroke="#9B79C1" stroke-dasharray="2,2"></path>
                    <path d="M78.5,64.5 L110.130507,58.8574219" id="Path-52" stroke="#9B79C1" stroke-dasharray="2"></path>
                    <path d="M82,102.045044 L107,104.954956" id="Path-53" stroke="#9B79C1" stroke-dasharray="2"></path>
                </g>
                <circle id="Oval" fill="#16A1B2" cx="43" cy="29" r="4"></circle>
                <circle id="Oval-Copy-3" fill="#16A1B2" cx="37" cy="197" r="4"></circle>
                <circle id="Oval-Copy" fill="#16A1B2" cx="15" cy="51" r="2"></circle>
                <circle id="Oval-Copy-9" fill="#16A1B2" cx="69" cy="5" r="1"></circle>
                <circle id="Oval-Copy-8" fill="#B0B0B0" cx="60" cy="22" r="2"></circle>
                <circle id="Oval-Copy-2" fill="#16A1B2" cx="212" cy="170" r="2"></circle>
                <circle id="Oval-Copy-4" fill="#B0B0B0" cx="60.5" cy="201.5" r="1.5"></circle>
                <circle id="Oval-Copy-7" fill="#B0B0B0" cx="47.5" cy="15.5" r="1.5"></circle>
                <circle id="Oval-Copy-5" fill="#B0B0B0" cx="47.5" cy="209.5" r="1.5"></circle>
                <circle id="Oval-Copy-6" fill="#B0B0B0" cx="208.5" cy="177.5" r="1.5"></circle>
            </g>
        </g>
    </g>
</svg>