<?xml version="1.0" encoding="UTF-8"?>
<svg width="220px" height="220px" viewBox="0 0 220 220" version="1.1" xmlns="http://www.w3.org/2000/svg" xmlns:xlink="http://www.w3.org/1999/xlink">
    <!-- Generator: sketchtool 53 (72520) - https://sketchapp.com -->
    <title>7ABA8301-3CB1-489E-87F0-E999341E4E44</title>
    <desc>Created with sketchtool.</desc>
    <defs>
        <linearGradient x1="54.7122508%" y1="37.7867954%" x2="16.9705579%" y2="89.6079401%" id="linearGradient-1">
            <stop stop-color="#AA5397" offset="0%"></stop>
            <stop stop-color="#72295E" offset="100%"></stop>
        </linearGradient>
        <path d="M84.7957446,56.4613108 C60.1470784,66.9492674 8.19608607,64.9660099 5.19891343,121.919002 C2.2017408,178.871994 48.0276752,197.356737 74.3107883,191.861273 C100.593901,186.365808 125.407071,181.86952 143.154658,184.867045 C160.902246,187.864571 214.00194,174.307939 216.000055,104.767412 C217.998171,35.2268842 168.6157,18.767813 140.159366,24.998998 C111.703032,31.230183 109.444411,45.9733541 84.7957446,56.4613108 Z" id="path-2"></path>
        <filter x="-3.3%" y="-3.0%" width="106.6%" height="108.3%" filterUnits="objectBoundingBox" id="filter-3">
            <feOffset dx="0" dy="2" in="SourceAlpha" result="shadowOffsetOuter1"></feOffset>
            <feGaussianBlur stdDeviation="2" in="shadowOffsetOuter1" result="shadowBlurOuter1"></feGaussianBlur>
            <feColorMatrix values="0 0 0 0 0.446586277   0 0 0 0 0.162176853   0 0 0 0 0.368513102  0 0 0 0.3 0" type="matrix" in="shadowBlurOuter1"></feColorMatrix>
        </filter>
        <linearGradient x1="51.6875169%" y1="37.7867954%" x2="38.1717368%" y2="89.6079401%" id="linearGradient-4">
            <stop stop-color="#AA5397" offset="0%"></stop>
            <stop stop-color="#72295E" offset="100%"></stop>
        </linearGradient>
    </defs>
    <g id="propuesta-2" stroke="none" stroke-width="1" fill="none" fill-rule="evenodd">
        <g id="detalle_tamizNeonatal" transform="translate(-42.000000, -213.000000)">
            <g id="TAMÃZ-NEONATAL_open" transform="translate(42.000000, 213.000000)">
                <path d="M110,214.499928 C160.134191,240.011894 206.370243,171.87234 218.112587,110.885998 C229.854931,49.8996566 185.453233,-17.6773629 122.569038,4.21285499 C59.6848421,26.1030729 0,51.972048 0,110.885998 C0,169.799948 59.8658087,188.987962 110,214.499928 Z" id="Oval" fill="url(#linearGradient-1)"></path>
                <g id="Path-29">
                    <use fill="black" fill-opacity="1" filter="url(#filter-3)" xlink:href="#path-2"></use>
                    <use fill="#FFFFFF" fill-rule="evenodd" xlink:href="#path-2"></use>
                </g>
                <g id="icono" transform="translate(43.000000, 41.000000)">
                    <path d="M40.7607479,42.7753445 C48.0092056,29.5025229 62.5197655,30.6540652 73.8450873,39.2043202 C85.1704091,47.7545752 102.56251,46.8455239 101.407184,59.7011423 C100.251858,72.5567608 90.4421017,89.2492415 90.3970809,111.949403 C90.35206,134.649565 76.2665873,138.509388 64.5664646,137.035083 C52.866342,135.560778 45.3769758,124.629301 48.8772066,100.856247 C52.3774373,77.0831925 33.5122902,56.0481661 40.7607479,42.7753445 Z M39.0498814,31.9684542 C33.8031763,31.9684542 29.5498814,27.1205051 29.5498814,21.1402568 C29.5498814,15.1600085 33.8031763,10.3120594 39.0498814,10.3120594 C44.2965865,10.3120594 48.5498814,15.1600085 48.5498814,21.1402568 C48.5498814,27.1205051 44.2965865,31.9684542 39.0498814,31.9684542 Z M60.7641671,27.9078802 C57.0165206,27.9078802 53.9784528,24.5749152 53.9784528,20.4634945 C53.9784528,16.3520738 57.0165206,13.0191087 60.7641671,13.0191087 C64.5118136,13.0191087 67.5498814,16.3520738 67.5498814,20.4634945 C67.5498814,24.5749152 64.5118136,27.9078802 60.7641671,27.9078802 Z M75.6927385,33.3219789 C72.6946213,33.3219789 70.2641671,30.5950075 70.2641671,27.2311178 C70.2641671,23.8672282 72.6946213,21.1402568 75.6927385,21.1402568 C78.6908557,21.1402568 81.12131,23.8672282 81.12131,27.2311178 C81.12131,30.5950075 78.6908557,33.3219789 75.6927385,33.3219789 Z M89.2641671,41.4431269 C86.2660499,41.4431269 83.8355957,38.7161555 83.8355957,35.3522659 C83.8355957,31.9883762 86.2660499,29.2614048 89.2641671,29.2614048 C92.2622843,29.2614048 94.6927385,31.9883762 94.6927385,35.3522659 C94.6927385,38.7161555 92.2622843,41.4431269 89.2641671,41.4431269 Z M101.478453,46.8572256 C99.2298649,46.8572256 97.4070242,45.0392447 97.4070242,42.7966516 C97.4070242,40.5540585 99.2298649,38.7360776 101.478453,38.7360776 C103.727041,38.7360776 105.549881,40.5540585 105.549881,42.7966516 C105.549881,45.0392447 103.727041,46.8572256 101.478453,46.8572256 Z" id="Combined-Shape" stroke="url(#linearGradient-4)" stroke-width="3" transform="translate(67.549881, 73.812059) rotate(35.000000) translate(-67.549881, -73.812059) "></path>
                    <path d="M94.355626,123 C103.37556,123 111,116.762838 111,104.849658 C111,96.9075377 105.451875,86.6243185 94.355626,74 C83.4518753,86.7598897 78,97.0431089 78,104.849658 C78,116.453309 85.3356925,123 94.355626,123 Z" id="Oval" stroke="#9B79C1" stroke-width="2" fill="#EFE1FF" stroke-linecap="round" stroke-linejoin="round"></path>
                    <path d="M97.1601897,117.734059 C96.4250918,117.89249 95.6996974,117.429824 95.5399759,116.700665 C95.3802545,115.971507 95.8466893,115.251973 96.5817873,115.093542 C101.333535,114.069429 103.005788,110.861832 101.728387,104.816795 C101.574064,104.086493 102.045809,103.370374 102.782059,103.217298 C103.518309,103.064222 104.240261,103.532156 104.394584,104.262457 C105.957487,111.658571 103.502742,116.36709 97.1601897,117.734059 Z" id="Path-45" fill="#FFFFFF" fill-rule="nonzero" transform="translate(100.180083, 110.476718) rotate(7.000000) translate(-100.180083, -110.476718) "></path>
                    <circle id="Oval" fill="#FFFFFF" cx="103.5" cy="99.5" r="1.5"></circle>
                </g>
                <circle id="Oval" fill="#16A1B2" cx="43" cy="29" r="4"></circle>
                <circle id="Oval-Copy-3" fill="#16A1B2" cx="37" cy="197" r="4"></circle>
                <circle id="Oval-Copy" fill="#16A1B2" cx="15" cy="51" r="2"></circle>
                <circle id="Oval-Copy-9" fill="#16A1B2" cx="69" cy="5" r="1"></circle>
                <circle id="Oval-Copy-8" fill="#B0B0B0" cx="60" cy="22" r="2"></circle>
                <circle id="Oval-Copy-2" fill="#16A1B2" cx="212" cy="170" r="2"></circle>
                <circle id="Oval-Copy-4" fill="#B0B0B0" cx="60.5" cy="201.5" r="1.5"></circle>
                <circle id="Oval-Copy-7" fill="#B0B0B0" cx="47.5" cy="15.5" r="1.5"></circle>
                <circle id="Oval-Copy-5" fill="#B0B0B0" cx="47.5" cy="209.5" r="1.5"></circle>
                <circle id="Oval-Copy-6" fill="#B0B0B0" cx="208.5" cy="177.5" r="1.5"></circle>
            </g>
        </g>
    </g>
</svg>