<?xml version="1.0" encoding="UTF-8"?>
<svg width="220px" height="220px" viewBox="0 0 220 220" version="1.1" xmlns="http://www.w3.org/2000/svg" xmlns:xlink="http://www.w3.org/1999/xlink">
    <!-- Generator: sketchtool 53 (72520) - https://sketchapp.com -->
    <title>D51D4165-832F-46D3-AB02-1D363B5FCDCD</title>
    <desc>Created with sketchtool.</desc>
    <defs>
        <linearGradient x1="54.7122508%" y1="37.7867954%" x2="16.9705579%" y2="89.6079401%" id="linearGradient-1">
            <stop stop-color="#AA5397" offset="0%"></stop>
            <stop stop-color="#72295E" offset="100%"></stop>
        </linearGradient>
        <path d="M88.7957446,56.4613108 C64.1470784,66.9492674 12.1960861,64.9660099 9.19891343,121.919002 C6.2017408,178.871994 52.0276752,197.356737 78.3107883,191.861273 C104.593901,186.365808 129.407071,181.86952 147.154658,184.867045 C164.902246,187.864571 218.00194,174.307939 220.000055,104.767412 C221.998171,35.2268842 172.6157,18.767813 144.159366,24.998998 C115.703032,31.230183 113.444411,45.9733541 88.7957446,56.4613108 Z" id="path-2"></path>
        <filter x="-3.3%" y="-3.0%" width="106.6%" height="108.3%" filterUnits="objectBoundingBox" id="filter-3">
            <feOffset dx="0" dy="2" in="SourceAlpha" result="shadowOffsetOuter1"></feOffset>
            <feGaussianBlur stdDeviation="2" in="shadowOffsetOuter1" result="shadowBlurOuter1"></feGaussianBlur>
            <feColorMatrix values="0 0 0 0 0.446586277   0 0 0 0 0.162176853   0 0 0 0 0.368513102  0 0 0 0.3 0" type="matrix" in="shadowBlurOuter1"></feColorMatrix>
        </filter>
        <linearGradient x1="52.6047004%" y1="37.7867954%" x2="31.7429491%" y2="89.6079401%" id="linearGradient-4">
            <stop stop-color="#72295E" offset="0%"></stop>
            <stop stop-color="#AA5397" offset="100%"></stop>
        </linearGradient>
    </defs>
    <g id="propuesta-2" stroke="none" stroke-width="1" fill="none" fill-rule="evenodd">
        <g id="detalle_-VelocidadesConducciónNerviosa" transform="translate(-40.000000, -213.000000)">
            <g id="VELOCIDADES-DE-CONDU_open" transform="translate(36.000000, 213.000000)">
                <path d="M114,214.499928 C164.134191,240.011894 210.370243,171.87234 222.112587,110.885998 C233.854931,49.8996566 189.453233,-17.6773629 126.569038,4.21285499 C63.6848421,26.1030729 4,51.972048 4,110.885998 C4,169.799948 63.8658087,188.987962 114,214.499928 Z" id="Oval" fill="url(#linearGradient-1)"></path>
                <g id="Path-29">
                    <use fill="black" fill-opacity="1" filter="url(#filter-3)" xlink:href="#path-2"></use>
                    <use fill="#FFFFFF" fill-rule="evenodd" xlink:href="#path-2"></use>
                </g>
                <g id="icono" transform="translate(0.000000, 16.000000)">
                    <path d="M95.5124003,14.4034144 C95.3240337,13.5812539 95.8330382,12.7609552 96.6492938,12.5712258 C97.4655494,12.3814965 98.2799566,12.8941832 98.4683233,13.7163437 C104.332741,39.3126587 110.262918,52.2543235 115.192022,52.2543235 C119.80921,52.2543235 125.304782,40.8987475 130.80189,18.423498 C130.80189,18.423498 133.598934,19.7709086 133.598934,19.7709086 C127.757082,43.5410841 121.909618,55.309879 115.192022,55.309879 C107.986686,55.309879 101.782423,41.7700624 95.5124003,14.4034144 Z M134.87165,117.604888 C135.060017,118.427049 134.551012,119.247347 133.734757,119.437077 C132.918501,119.626806 132.104094,119.114119 131.915727,118.291959 C126.051309,92.6956439 120.121133,79.7539792 115.192028,79.7539792 C110.147171,79.7539792 89.6799487,115.460698 56.6565991,183.394413 C56.2882204,184.15222 55.3796786,184.465754 54.6273141,184.094711 C53.8749496,183.723667 53.5636675,182.808553 53.9320462,182.050745 C88.6378634,110.655956 108.102445,76.6984236 115.192028,76.6984236 C122.397364,76.6984236 128.601628,90.2382403 134.87165,117.604888 Z M169.519975,74.7617254 C170.32617,75.0096753 170.782067,75.8606356 170.53825,76.6623983 C170.294432,77.464161 169.443229,77.9131151 168.637034,77.6651651 C143.537766,69.9457427 129.364867,68.6105938 126.900315,72.8793235 C124.435762,77.1480532 132.678485,88.7545691 151.913335,106.631462 C152.531163,107.205672 152.567959,108.167313 151.995521,108.779346 C151.423083,109.39138 150.458181,109.422041 149.840352,108.847831 C129.275151,89.7345081 120.651458,77.5915497 124.254126,71.3515457 C127.856794,65.1115418 142.684751,66.5084 169.519975,74.7617254 Z M60.8643613,57.2470909 C60.0581661,56.999141 59.6022688,56.1481807 59.8460862,55.346418 C60.0899036,54.5446552 60.9411069,54.0957012 61.7473021,54.3436511 C86.8465702,62.0630736 101.019469,63.3982225 103.484021,59.1294928 C105.948573,54.8607631 97.7058512,43.2542472 78.4710012,25.3773546 C77.8531727,24.8031441 77.8163766,23.8415033 78.3888148,23.2294699 C78.961253,22.6174365 79.9261549,22.5867751 80.5439834,23.1609856 C101.109185,42.2743082 109.732878,54.4172666 106.13021,60.6572706 C102.527542,66.8972745 87.6995848,65.5004163 60.8643613,57.2470909 Z M148.474767,28.6218185 C131.701057,44.6638887 124.587994,55.1282419 126.900315,59.1332991 C129.364867,63.4020288 143.537766,62.0668799 168.637034,54.3474575 C169.443229,54.0995075 170.294432,54.5484616 170.53825,55.3502243 C170.782067,56.151987 170.32617,57.0029473 169.519975,57.2508972 C142.684751,65.5042226 127.856794,66.9010808 124.254126,60.6610769 C120.887141,54.8292871 128.199171,43.8416097 145.95769,26.826716 C145.95769,26.826716 148.474767,28.6218185 148.474767,28.6218185 Z M45.7238611,177.210841 C45.2517702,177.90877 44.3036169,178.096749 43.6061015,177.630704 C42.9085861,177.164659 42.7258435,176.221072 43.1979344,175.523143 C85.5185822,112.957226 106.207897,77.3787323 103.685468,73.0097576 C101.220916,68.7410279 87.0480175,70.0761768 61.9487494,77.7955992 C61.1425542,78.0435491 60.2913509,77.5945951 60.0475335,76.7928324 C59.8037162,75.9910696 60.2596135,75.1401094 61.0658086,74.8921595 C87.9010321,66.6388341 102.728989,65.2419759 106.331657,71.4819798 C109.876449,77.6217387 90.2006536,111.457327 45.7238611,177.210841 Z" id="Combined-Shape" fill="url(#linearGradient-4)" fill-rule="nonzero" transform="translate(106.769826, 98.391232) rotate(-120.000000) translate(-106.769826, -98.391232) "></path>
                    <rect id="Rectangle" stroke="#9B79C1" stroke-width="3" fill="#EFE1FF" x="95.5" y="97.5" width="27" height="20" rx="10"></rect>
                    <rect id="Rectangle-Copy" stroke="#9B79C1" stroke-width="3" fill="#EFE1FF" x="131.5" y="97.5" width="27" height="20" rx="10"></rect>
                    <rect id="Rectangle-Copy-2" stroke="#9B79C1" stroke-width="3" fill="#EFE1FF" x="169.5" y="97.5" width="27" height="20" rx="10"></rect>
                    <circle id="Oval" stroke="#72295E" stroke-width="3" cx="75.5" cy="106.5" r="6.5"></circle>
                </g>
                <circle id="Oval" fill="#16A1B2" cx="47" cy="29" r="4"></circle>
                <circle id="Oval-Copy-3" fill="#16A1B2" cx="41" cy="197" r="4"></circle>
                <circle id="Oval-Copy" fill="#16A1B2" cx="19" cy="51" r="2"></circle>
                <circle id="Oval-Copy-9" fill="#16A1B2" cx="73" cy="5" r="1"></circle>
                <circle id="Oval-Copy-8" fill="#B0B0B0" cx="64" cy="22" r="2"></circle>
                <circle id="Oval-Copy-2" fill="#16A1B2" cx="216" cy="170" r="2"></circle>
                <circle id="Oval-Copy-4" fill="#B0B0B0" cx="64.5" cy="201.5" r="1.5"></circle>
                <circle id="Oval-Copy-7" fill="#B0B0B0" cx="51.5" cy="15.5" r="1.5"></circle>
                <circle id="Oval-Copy-5" fill="#B0B0B0" cx="51.5" cy="209.5" r="1.5"></circle>
                <circle id="Oval-Copy-6" fill="#B0B0B0" cx="212.5" cy="177.5" r="1.5"></circle>
            </g>
        </g>
    </g>
</svg>