<?xml version="1.0" encoding="UTF-8"?>
<svg width="68px" height="68px" viewBox="0 0 68 68" version="1.1" xmlns="http://www.w3.org/2000/svg" xmlns:xlink="http://www.w3.org/1999/xlink">
    <!-- Generator: sketchtool 53 (72520) - https://sketchapp.com -->
    <title>B812874D-E72B-47F9-8E13-79D72529363C</title>
    <desc>Created with sketchtool.</desc>
    <defs>
        <circle id="path-1" cx="30" cy="30" r="30"></circle>
        <filter x="-11.7%" y="-8.3%" width="123.3%" height="123.3%" filterUnits="objectBoundingBox" id="filter-2">
            <feOffset dx="0" dy="2" in="SourceAlpha" result="shadowOffsetOuter1"></feOffset>
            <feGaussianBlur stdDeviation="2" in="shadowOffsetOuter1" result="shadowBlurOuter1"></feGaussianBlur>
            <feColorMatrix values="0 0 0 0 0.446586277   0 0 0 0 0.162176853   0 0 0 0 0.368513102  0 0 0 0.2 0" type="matrix" in="shadowBlurOuter1"></feColorMatrix>
        </filter>
        <linearGradient x1="54.7122508%" y1="42.8911626%" x2="16.9705579%" y2="73.0542609%" id="linearGradient-3">
            <stop stop-color="#AA5397" offset="0%"></stop>
            <stop stop-color="#72295E" offset="100%"></stop>
        </linearGradient>
    </defs>
    <g id="propuesta-2" stroke="none" stroke-width="1" fill="none" fill-rule="evenodd">
        <g id="servicios_estudios" transform="translate(-58.000000, -682.000000)">
            <g id="CARD_ESTUDIO" transform="translate(42.000000, 660.000000)">
                <g id="1">
                    <g id="estudio/electroencefalograma" transform="translate(20.000000, 24.000000)">
                        <g id="Oval">
                            <use fill="black" fill-opacity="1" filter="url(#filter-2)" xlink:href="#path-1"></use>
                            <use fill="#FFFFFF" fill-rule="evenodd" xlink:href="#path-1"></use>
                        </g>
                        <path d="M15.2660032,33.2989702 C17.2519366,32.9538454 18.8594076,33.1752966 20.0719508,33.9969869 C20.4949217,34.2836167 20.9086399,34.6449762 21.4910175,35.2123822 C21.6486946,35.3660058 22.2251569,35.9368659 22.2134117,35.9252901 C22.5104003,36.2179959 22.7439412,36.4427919 22.9796628,36.6605627 C24.5272412,38.0902891 25.9385648,38.9532257 27.7068154,39.3579024 C31.9708225,40.3337508 35.4059106,39.4586985 37.4489955,36.5301152 C37.4501846,36.5283921 37.4513829,36.5266729 37.4525904,36.5249576 C39.369048,33.7722921 38.1261475,29.8942766 35.5448282,28.5809561 C35.403037,28.5088158 35.2547445,28.4411725 35.0999566,28.3780496 C34.9297896,28.3836213 34.7606453,28.3239016 34.6311456,28.2071263 C33.1471421,27.7254373 31.15303,27.6008178 28.6529051,27.8493843 C28.2864386,27.8858189 27.9598226,27.6182753 27.923388,27.2518088 C27.8869533,26.8853423 28.1544969,26.5587264 28.5209634,26.5222917 C30.5811986,26.3174598 32.3481876,26.3511257 33.8237721,26.630537 C33.4074588,25.3262468 33.5279499,23.9722872 34.186462,22.6030508 C34.3460771,22.271165 34.7445174,22.1315121 35.0764032,22.2911272 C35.408289,22.4507423 35.547942,22.8491825 35.3883268,23.1810683 C34.7282605,24.5535364 34.7585485,25.8335728 35.4817915,27.0947047 C35.7146591,27.1851018 35.9372516,27.2842907 36.1495813,27.3923195 C39.2454513,28.9674325 40.7832957,33.3374429 38.8961924,36.7279307 C41.5865251,38.519881 44.206925,38.4023244 46.9064332,36.3752607 C47.0277492,36.2841644 47.1765023,36.2371598 47.3281354,36.2420068 C48.1471393,36.2553863 49.3253663,36.0191725 50.4792891,35.2990114 C52.1328689,34.2670151 53.2516168,32.4751138 53.5884388,29.6817893 C54.313053,23.6724365 49.8588167,18.9515816 45.1114148,19.1877294 C45.3012405,19.7903025 45.4650059,20.4305791 45.6026702,21.1082148 C45.6759886,21.4691159 45.4428568,21.8211203 45.0819557,21.8944387 C44.7210546,21.9677571 44.3690502,21.7346253 44.2957318,21.3737242 C43.3969125,16.949394 41.3852552,14.4346974 38.2453227,13.699915 C35.0942042,12.9625149 32.5602971,13.992348 30.5233282,16.8579933 C30.3099623,17.1581602 29.8936618,17.2285264 29.5934948,17.0151606 C29.2933278,16.8017948 29.2229616,16.3854942 29.4363275,16.0853273 C30.0513043,15.2201666 30.7168325,14.4959005 31.430739,13.9137679 C29.7140165,12.6017539 27.8992123,12.1122638 25.9467866,12.4250175 C24.1291327,12.7161825 22.5677319,13.5790482 21.2450793,15.0307077 C22.4620629,15.2444362 23.7383029,15.6057073 25.0725248,16.1148615 C25.4165962,16.246163 25.5890802,16.6315289 25.4577787,16.9756002 C25.3264772,17.3196716 24.9411113,17.4921556 24.59704,17.3608541 C17.8638809,14.7914043 12.9632128,16.234187 9.68516571,21.745517 C10.8240837,21.5440876 12.0850618,21.7456176 13.4471508,22.3519143 C13.7835984,22.5016748 13.9349382,22.8958243 13.7851778,23.2322719 C13.6354173,23.5687195 13.2412678,23.7200593 12.9048202,23.5702988 C10.5496474,22.521958 8.77511957,22.9209359 7.37747529,24.7848114 C6.17938659,26.3825628 6.10964197,27.7924821 6.68037467,28.9939674 C6.69019234,29.0146352 6.69997728,29.0347655 6.70970463,29.0543503 C6.95445067,28.7098923 7.24233926,28.3864381 7.57541198,28.0901157 C10.4566643,25.5267729 13.3593761,25.0332465 17.2035744,25.9699158 C17.2065339,25.96811 17.2095123,25.9663238 17.2125097,25.9645573 C18.5639858,25.1680845 18.6229111,23.8247134 17.2192512,21.5963732 C17.0229672,21.2847681 17.1164534,20.8730426 17.4280585,20.6767585 C17.7396636,20.4804745 18.1513892,20.5739607 18.3476732,20.8855658 C19.813249,23.2121989 19.989954,25.1206048 18.7791949,26.4147557 C18.7871688,26.4172852 18.7951467,26.4198198 18.8031287,26.4223595 C20.9076036,27.0919591 22.6228016,26.6816814 24.0635534,25.1749966 C24.3180729,24.9088294 24.7401729,24.8993872 25.0063401,25.1539067 C25.2725073,25.4084263 25.2819495,25.8305263 25.0274299,26.0966935 C23.2291669,27.9772505 20.9813363,28.5149346 18.3987689,27.6932161 C14.1375767,26.3373945 11.3162127,26.5470945 8.46186173,29.0865042 C5.38267218,31.8259444 7.31280394,37.7589266 11.5614752,38.5363739 C13.5424741,38.898869 15.0679799,38.8303242 16.1965772,38.4700492 C16.8262474,38.2690435 17.1734811,38.0413821 17.2945975,37.9108192 C17.5450555,37.6408267 17.966964,37.6249908 18.2369566,37.8754489 C18.5069491,38.1259069 18.5227849,38.5478154 18.2723269,38.8178079 C17.631273,39.5088609 16.4089932,40.0556928 14.5056693,40.1198489 C15.4076011,42.8136177 17.3881551,43.6093672 20.7245988,42.5880171 C20.8065542,41.764083 20.4404646,40.9529025 19.6502592,40.137158 C19.3940243,39.8726418 19.4007377,39.4504895 19.665254,39.1942547 C19.9297702,38.9380198 20.3519225,38.9447331 20.6081574,39.2092494 C23.563934,42.2605552 22.0823882,45.4139559 16.6627595,48.3081486 C16.3379053,48.4816274 15.9339265,48.3589133 15.7604477,48.0340591 C15.5869689,47.7092049 15.7096829,47.3052261 16.0345372,47.1317473 C17.9898946,46.0875464 19.3165763,45.0986574 20.0493585,44.1399124 C16.4584123,44.8971495 14.0610047,43.521736 13.1008217,40.0847909 C12.5513752,40.0419884 11.9587485,39.9648485 11.3214244,39.8482272 C7.01071812,39.0594283 4.63733977,34.1093195 6.00151726,30.4013916 C5.99033602,30.3900188 5.97947945,30.3781667 5.968975,30.3658373 C5.83374046,30.2071089 5.6521976,29.9376619 5.47574242,29.566195 C4.70254536,27.9384892 4.79837419,26.0012657 6.31049491,23.9847263 C6.75925714,23.3862644 7.250144,22.90361 7.77990309,22.5370438 C7.78998568,22.4677912 7.81122847,22.3989585 7.84444848,22.3330219 C10.5528333,16.9572961 14.547279,14.4488725 19.7170103,14.8374756 C19.7418388,14.7632132 19.780264,14.6920981 19.8326607,14.6278075 C21.435316,12.6613576 23.4107494,11.4806209 25.7358445,11.1081702 C28.0820223,10.7323424 30.2844844,11.3371888 32.3024214,12.9017785 C32.3949723,12.973537 32.4634521,13.0648336 32.5065544,13.1653447 C34.2741891,12.1342852 36.2975023,11.8744365 38.5492001,12.4013612 C41.3519494,13.0572387 43.3832442,14.9042978 44.6363896,17.886281 C50.3588853,17.3123613 55.7564762,22.842062 54.9124833,29.841444 C54.5278192,33.0315312 53.1848944,35.1824971 51.1853806,36.4303902 C49.8745941,37.2484497 48.5525783,37.5512427 47.526798,37.574692 C44.4249075,39.817947 41.2490396,39.9022004 38.1415921,37.8274522 C36.291173,40.1172162 33.6338528,41.1581167 30.4856317,41.0680169 C29.1171143,43.8128023 26.2526055,46.4651083 21.9050532,49.0525728 C21.588587,49.2409191 21.1793556,49.1370573 20.9910094,48.8205911 C20.8026631,48.5041249 20.9065249,48.0948935 21.2229911,47.9065473 C25.1044706,45.596468 27.7051332,43.2705075 29.0356132,40.9513651 C28.5046258,40.8824133 27.9620764,40.7844353 27.4092954,40.6579275 C25.3801422,40.1935413 23.7785572,39.2142717 22.074677,37.6401462 C21.8266928,37.4110467 21.5836091,37.1770652 21.2772626,36.8751364 C21.2854866,36.8832418 20.7134404,36.3167549 20.5603531,36.1676032 C20.0301965,35.6510756 19.6656328,35.3326498 19.3238029,35.1010059 C18.3148712,34.4172947 16.822043,34.28455 14.8222395,34.7499559 C14.3518951,35.5348045 13.5117364,36.268642 12.3162449,36.9285885 C11.9938347,37.1065684 11.5881884,36.9894846 11.4102085,36.6670744 C11.2322286,36.3446642 11.3493124,35.9390179 11.6717226,35.761038 C12.6906925,35.1985366 13.3548149,34.6482557 13.6827847,34.0806584 C13.7017585,33.956451 13.7556035,33.8405856 13.8364605,33.7463573 C14.0755788,33.0498161 13.8275726,32.3194668 13.1255921,31.5029344 C12.8855102,31.223675 12.9172698,30.8026656 13.1965292,30.5625837 C13.4757887,30.3225017 13.8967981,30.3542614 14.13688,30.6335208 C14.9203414,31.5448304 15.2915344,32.4414996 15.2660032,33.2989702 Z M27.993553,30.9469913 C31.4068795,30.2439288 33.588916,31.8930496 34.2768515,35.7368288 C34.3417318,36.0993419 34.1004527,36.4458127 33.7379397,36.510693 C33.3754266,36.5755733 33.0289558,36.3342943 32.9640755,35.9717812 C32.3407353,32.4889218 30.5402731,31.4193714 27.1988756,32.5450662 C27.161579,32.5576312 27.1239485,32.5667108 27.0863379,32.5724806 C26.1666448,33.3187221 24.598486,33.541322 22.4444825,33.1969284 C22.080828,33.1387853 21.8331621,32.7968509 21.8913051,32.4331965 C21.9494481,32.069542 22.2913825,31.8218761 22.655037,31.8800191 C26.3337585,32.4681927 27.3633072,31.4792538 26.3542074,28.4905428 C26.2363985,28.1416213 26.4237524,27.7632615 26.7726739,27.6454526 C27.1215954,27.5276438 27.4999552,27.7149976 27.6177641,28.0639191 C28.0019918,29.2019091 28.1226273,30.1661367 27.993553,30.9469913 Z M46.3939953,28.631363 C46.5792773,29.9744079 46.5476851,31.5315393 46.2996154,33.2950594 C46.2483164,33.6597423 45.9110965,33.9137902 45.5464137,33.8624912 C45.1817308,33.8111922 44.9276829,33.4739723 44.9789819,33.1092895 C45.731791,27.7575914 44.4204851,24.8467465 41.0604113,24.079024 C40.6369454,25.1239636 39.6126846,26.1329526 38.025115,27.0676016 C37.7077563,27.25444 37.2990237,27.1486324 37.1121852,26.8312737 C36.9253468,26.5139149 37.0311544,26.1051823 37.3485132,25.9183439 C40.0414963,24.3329054 40.5545233,22.9580255 39.232753,21.4402273 C38.9908972,21.1625026 39.0199747,20.7412995 39.2976994,20.4994437 C39.575424,20.257588 39.9966271,20.2866655 40.2384829,20.5643902 C40.8769161,21.2975075 41.2182779,22.0334586 41.274371,22.7601563 C43.6445218,23.2736353 45.2089882,24.6475348 45.9705929,26.8270986 C46.0073239,26.844285 46.0430024,26.8650813 46.0771539,26.8895655 C48.223748,28.42852 49.3889544,27.8696166 50.1021714,24.8499367 C50.1868246,24.4915249 50.5459997,24.2695997 50.9044115,24.3542528 C51.2628233,24.4389059 51.4847485,24.798081 51.4000954,25.1564929 C50.5984308,28.55065 48.8122987,29.7894432 46.3939953,28.631363 Z M36.7620709,19.264558 C37.249848,19.4271692 37.7506728,19.6202992 38.2643019,19.8439576 C38.6019521,19.9909865 38.7564812,20.3838966 38.6094523,20.7215468 C38.4624234,21.0591971 38.0695133,21.2137262 37.7318631,21.0666973 C32.7839167,18.9121272 29.5062569,19.8508458 27.5884894,23.8949003 C27.4306913,24.2276539 27.0330206,24.3694834 26.700267,24.2116853 C26.3675135,24.0538872 26.225684,23.6562165 26.3834821,23.3234629 C26.71549,22.6233478 27.0870976,22.0012439 27.4973049,21.4571902 C26.9889472,20.1088341 25.7994546,19.7157634 23.6565245,20.2802815 C23.3004009,20.3740961 22.935654,20.1614527 22.8418393,19.8053291 C22.7480247,19.4492055 22.9606681,19.0844586 23.3167917,18.9906439 C25.7834825,18.3408367 27.5656766,18.8043987 28.4651188,20.3830068 C30.1263073,18.8546499 32.2676901,18.3164889 34.8441135,18.7702763 C34.8611467,18.763934 34.8785738,18.758233 34.8963747,18.7532089 C36.2433476,18.3730442 36.6255342,17.5736767 36.1451997,16.0277721 C36.0359254,15.6760844 36.2324402,15.3024007 36.584128,15.1931263 C36.9358158,15.0838519 37.3094994,15.2803668 37.4187738,15.6320546 C37.9084802,17.2081217 37.6776182,18.4572414 36.7620709,19.264558 Z M13.4962937,21.5698652 C13.3146496,21.8902253 12.9076948,22.0026769 12.5873347,21.8210328 C12.2669746,21.6393887 12.154523,21.2324339 12.3361671,20.9120738 C14.0172536,17.947193 16.5518323,16.5976395 19.8304995,16.9320744 C20.1968717,16.9694456 20.4635797,17.2967442 20.4262085,17.6631164 C20.3888373,18.0294886 20.0615387,18.2961966 19.6951665,18.2588254 C16.9494659,17.9787549 14.9196429,19.0595478 13.4962937,21.5698652 Z M51.851244,28.0160419 C51.8411184,27.6479079 52.1313416,27.341268 52.4994756,27.3311425 C52.8676097,27.3210169 53.1742496,27.6112401 53.1843751,27.9793741 C53.2716399,31.1520607 51.998004,33.175963 49.4101691,33.847608 C49.0537061,33.9401241 48.6897364,33.7261529 48.5972203,33.3696898 C48.5047041,33.0132267 48.7186753,32.6492571 49.0751384,32.5567409 C51.0127377,32.0538577 51.922539,30.6081158 51.851244,28.0160419 Z M24.730422,35.6487281 C24.603988,35.3028385 24.7818919,34.9199446 25.1277815,34.7935105 C25.4736711,34.6670765 25.856565,34.8449804 25.982999,35.19087 C26.6568456,37.0343337 28.0346834,37.7877932 30.3110228,37.5110818 C30.6766048,37.4666418 31.0089935,37.7269788 31.0534336,38.0925609 C31.0978736,38.4581429 30.8375366,38.7905316 30.4719545,38.8349717 C27.6056265,39.1834019 25.6269455,38.1013762 24.730422,35.6487281 Z" id="Combined-Shape" fill="url(#linearGradient-3)" fill-rule="nonzero"></path>
                        <circle id="Oval" stroke="#9B79C1" fill="#FFFFFF" cx="24" cy="18" r="4"></circle>
                        <circle id="Oval-Copy-10" stroke="#9B79C1" fill="#FFFFFF" cx="18" cy="32" r="4"></circle>
                        <circle id="Oval" stroke="#9B79C1" fill="#EFE1FF" cx="24" cy="18" r="2"></circle>
                        <circle id="Oval-Copy-11" stroke="#9B79C1" fill="#EFE1FF" cx="18" cy="32" r="2"></circle>
                    </g>
                </g>
            </g>
        </g>
    </g>
</svg>