<?xml version="1.0" encoding="UTF-8"?>
<svg width="31px" height="29px" viewBox="0 0 31 29" version="1.1" xmlns="http://www.w3.org/2000/svg" xmlns:xlink="http://www.w3.org/1999/xlink">
    <!-- Generator: Sketch 53 (72520) - https://sketchapp.com -->
    <title>doctoralia_white</title>
    <desc>Created with Sketch.</desc>
    <g id="Symbols" stroke="none" stroke-width="1" fill="none" fill-rule="evenodd">
        <g id="cta_terciario" transform="translate(-167.000000, -10.000000)" fill="#FFFFFF">
            <g id="doctoralia_white" transform="translate(167.000000, 10.000000)">
                <path d="M3.55267693,24.7563782 L10.2021484,29 C14.9182751,20.4676208 21.8508923,15.2341156 31,13.2994843 C31,13.2994843 29.0787497,7.6259079 29.0787497,7.6259079 C17.8900434,8.95578257 9.38135244,14.6659393 3.55267693,24.7563782 Z" id="Path-37"></path>
                <path d="M17.2763385,23.5866165 C17.9451737,21.3981349 19.5899562,19.4875463 22.2106862,17.8548508 C22.2106862,17.8548508 23.7869825,20.4238129 26.9395752,25.5617371 L22.1079568,29 L17.2763385,23.5866165 Z" id="Path-41"></path>
                <path d="M6.80707146,16.1222229 C9.78188189,12.9322052 13.9438118,10.5579453 19.292861,8.99944305 C19.292861,8.99944305 19.0304912,5.9996287 18.5057517,1.77635684e-15 L12.5236314,1.77635684e-15 L11.622774,9.79573059 L1.87294635,7.6259079 L3.55271368e-15,13.2926254 L6.80707146,16.1222229 Z" id="Path-47"></path>
            </g>
        </g>
    </g>
</svg>