<?xml version="1.0" encoding="UTF-8"?>
<svg width="20px" height="20px" viewBox="0 0 20 20" version="1.1" xmlns="http://www.w3.org/2000/svg" xmlns:xlink="http://www.w3.org/1999/xlink">
    <!-- Generator: Sketch 53 (72520) - https://sketchapp.com -->
    <title>email</title>
    <desc>Created with Sketch.</desc>
    <defs>
        <linearGradient x1="54.7122508%" y1="42.1835491%" x2="16.9705579%" y2="75.3490817%" id="linearGradient-1">
            <stop stop-color="#AA5397" offset="0%"></stop>
            <stop stop-color="#72295E" offset="100%"></stop>
        </linearGradient>
    </defs>
    <g id="email" stroke="none" stroke-width="1" fill="none" fill-rule="evenodd">
        <path d="M1.03722156,16.2712354 L6.496696,9.86429248 C4.92349638,8.60299356 3.10187386,6.6041342 1.00853002,3.86879619 C1.00290306,3.9117333 1,3.95552763 1,4 L1,16 C1,16.0940054 1.01297125,16.1849813 1.03722156,16.2712354 Z M1.75566037,16.9699348 C1.83385802,16.9895716 1.91571117,17 2,17 L18,17 C18.0918659,17 18.1808385,16.9876125 18.2653386,16.9644167 L12.7144092,10.4510667 C11.6972459,11.1377965 10.7949094,11.4813232 10,11.4813232 C9.20860158,11.4813232 8.31186974,11.1409191 7.30251314,10.4604494 L1.75566037,16.9699348 Z M18.9689307,16.2483036 C18.989216,16.1689096 19,16.0857142 19,16 L19,4 C19,3.96482552 18.9981839,3.93007521 18.9946405,3.8958377 C16.9065169,6.61046921 15.089306,8.59710554 13.5200916,9.85474414 L18.9689307,16.2483036 Z M18.3677606,3.06979221 C18.2539281,3.02475082 18.1298545,3 18,3 L2,3 C1.87734453,3 1.75984671,3.02208257 1.65126537,3.06248891 C5.41416844,8.01076401 8.24845689,10.4813232 10,10.4813232 C11.7510601,10.4813232 14.5916499,8.01305879 18.3677606,3.06979221 Z M2,2 L18,2 C19.1045695,2 20,2.8954305 20,4 L20,16 C20,17.1045695 19.1045695,18 18,18 L2,18 C0.8954305,18 1.3527075e-16,17.1045695 0,16 L0,4 C-1.3527075e-16,2.8954305 0.8954305,2 2,2 Z" id="Combined-Shape" fill="url(#linearGradient-1)" fill-rule="nonzero"></path>
    </g>
</svg>