<?xml version="1.0" encoding="UTF-8"?>
<svg width="16px" height="16px" viewBox="0 0 16 16" version="1.1" xmlns="http://www.w3.org/2000/svg" xmlns:xlink="http://www.w3.org/1999/xlink">
    <!-- Generator: Sketch 53 (72520) - https://sketchapp.com -->
    <title>favicon</title>
    <desc>Created with Sketch.</desc>
    <defs>
        <polygon id="path-1" points="0 0.00732285714 6.8833383 0.00732285714 6.8833383 10.9589108 0 10.9589108"></polygon>
    </defs>
    <g id="favicon" stroke="none" stroke-width="1" fill="none" fill-rule="evenodd">
        <circle id="Oval" fill="#FFFFFF" cx="8" cy="8" r="8"></circle>
        <g id="Group-6" transform="translate(3.000000, 1.000000)">
            <g id="Group-3">
                <mask id="mask-2" fill="white">
                    <use xlink:href="#path-1"></use>
                </mask>
                <g id="Clip-2"></g>
                <path d="M6.04244468,9.45679429 C6.04244468,9.45679429 5.9803383,9.48696571 5.86387021,9.54338 C5.74993404,9.59775143 5.57925319,9.70115143 5.36567872,9.77469429 C5.16059362,9.86410857 4.89518936,9.93623714 4.60431702,9.99343714 C4.31016809,10.0399514 3.98429574,10.0426229 3.65752979,9.98039429 C3.00563617,9.83126571 2.37087021,9.36219429 1.9903383,8.62173714 C1.60801915,7.88426571 1.50644468,6.94250857 1.6839766,6.03626571 C1.76872128,5.57913714 1.94491277,5.13850857 2.1394234,4.70872286 C2.36491277,4.29355143 2.59695532,3.87696571 2.89452979,3.51475143 C3.02693404,3.32099429 3.18748723,3.15426571 3.33612553,2.98015143 C3.47895532,2.80006571 3.64546596,2.64889429 3.79991277,2.49049429 C3.94989149,2.32675143 4.11074255,2.18328 4.26921064,2.04468 C4.42693404,1.90560857 4.56901915,1.75333714 4.72763617,1.63689429 C5.03861489,1.39678 5.3153383,1.15069429 5.58267872,0.964008571 C5.84704043,0.773551429 6.07163617,0.585294286 6.27061489,0.456908571 C6.66127447,0.184265714 6.8833383,0.00732285714 6.8833383,0.00732285714 C6.8833383,0.00732285714 6.61361489,0.0436228571 6.14387021,0.144508571 C5.90676383,0.189137143 5.62676383,0.269908571 5.30804043,0.378022857 C4.98321064,0.471208571 4.63112553,0.620337143 4.24895532,0.79618 C3.87244468,0.982551429 3.4549766,1.18385143 3.05240213,1.47456571 C2.64208298,1.75019429 2.22491277,2.08365143 1.83708298,2.49002286 C1.63452979,2.68425143 1.44940213,2.90598 1.27261489,3.14420857 C1.08123191,3.36813714 0.932593617,3.63842286 0.769806383,3.89802286 C0.473125532,4.44173714 0.230508511,5.04280857 0.099593617,5.68772286 C-0.0186617021,6.33358 -0.0392148936,7.00992286 0.0790404255,7.65923714 C0.191040426,8.30808 0.436934043,8.92643714 0.789465957,9.44359429 C1.14259362,9.96075143 1.60623191,10.3718371 2.10725319,10.6286086 C2.60827447,10.8900943 3.14146596,10.9782514 3.60987021,10.9554657 C4.08229574,10.9317371 4.48382766,10.7793086 4.80284894,10.6091229 C5.1214234,10.4373657 5.36299787,10.2376371 5.54499787,10.0547229 C5.73950851,9.88893714 5.83393404,9.72048 5.92121064,9.62022286 C6.00029574,9.51352286 6.04244468,9.45679429 6.04244468,9.45679429" id="Fill-1" fill="#722D56" mask="url(#mask-2)"></path>
            </g>
            <path d="M3.85514783,4.50875666 C3.85514783,4.50875666 3.918307,4.47845186 4.03674936,4.42178819 C4.1526169,4.36717641 4.326191,4.26331933 4.54338583,4.18945137 C4.75194739,4.09964182 5.02185058,4.0271944 5.31765358,3.96974155 C5.61678871,3.92302164 5.948185,3.92033841 6.2803386,3.98284206 C6.94328264,4.13262986 7.58896014,4.60377485 7.9757911,5.34750522 C8.3647425,6.08823668 8.46803878,7.03415692 8.28749748,7.94440587 C8.20131627,8.4035552 8.02198665,8.8461316 7.82433027,9.2778172 C7.59501858,9.69482392 7.35904261,10.1132512 7.05642388,10.4770666 C6.9217752,10.6716803 6.75850043,10.8391459 6.60734252,11.0140299 C6.46209159,11.1949117 6.29260692,11.3467514 6.13569351,11.5058516 C5.98317245,11.6703183 5.81959476,11.8144239 5.65844044,11.9536366 C5.49789196,12.0933228 5.35354979,12.2462674 5.19224401,12.363225 C4.87599381,12.6044007 4.59457959,12.8515742 4.3227074,13.0390852 C4.05386444,13.2303843 3.82546151,13.4194736 3.62310984,13.5484269 C3.22567663,13.822275 3,14 3,14 C3,14 3.27429556,13.9635395 3.75200301,13.8622078 C3.99312864,13.817382 4.277875,13.7362535 4.60200117,13.6276613 C4.93233723,13.5340637 5.29023917,13.3842759 5.67903911,13.2076557 C6.06193208,13.0204604 6.48647678,12.8182705 6.89572394,12.5262711 C7.31314998,12.2494241 7.73739175,11.9144929 8.13179575,11.5063251 C8.33778247,11.3112379 8.52604828,11.0885292 8.70583228,10.8492475 C8.90045945,10.6243291 9.05161735,10.3528485 9.21716404,10.0921009 C9.518874,9.54598314 9.76560369,8.94225464 9.89873776,8.29448948 C10.0189977,7.64577729 10.0397478,6.96644462 9.91963935,6.31426001 C9.80574081,5.6625489 9.55567899,5.04145828 9.19717121,4.52201502 C8.83805759,4.00257175 8.36656003,3.58966881 7.85704581,3.33176231 C7.34753159,3.06912068 6.80530182,2.98057384 6.32895752,3.00346028 C5.84852378,3.02729374 5.44003393,3.18039613 5.1157563,3.35133416 C4.79178159,3.52385057 4.54611212,3.72446205 4.36102699,3.90818492 C4.16321915,4.0747035 4.06704153,4.24390531 3.97843694,4.34460565 C3.89801124,4.45177732 3.85514783,4.50875666 3.85514783,4.50875666" id="Fill-4" fill="#009AA0"></path>
        </g>
    </g>
</svg>