<?xml version="1.0" encoding="UTF-8"?>
<svg width="20px" height="20px" viewBox="0 0 20 20" version="1.1" xmlns="http://www.w3.org/2000/svg" xmlns:xlink="http://www.w3.org/1999/xlink">
    <!-- Generator: Sketch 53 (72520) - https://sketchapp.com -->
    <title>mapa pin</title>
    <desc>Created with Sketch.</desc>
    <defs>
        <linearGradient x1="52.6506411%" y1="37.7867954%" x2="31.4209388%" y2="89.6079401%" id="linearGradient-1">
            <stop stop-color="#AA5397" offset="0%"></stop>
            <stop stop-color="#72295E" offset="100%"></stop>
        </linearGradient>
    </defs>
    <g id="mapa-pin" stroke="none" stroke-width="1" fill="none" fill-rule="evenodd">
        <path d="M10.3789831,20.3261469 C10.1794961,20.557951 9.82050391,20.557951 9.62101693,20.3261469 C4.87873375,14.8156093 2.5,10.73778 2.5,8 C2.5,3.85786438 5.85786438,0.5 10,0.5 C14.1421356,0.5 17.5,3.85786438 17.5,8 C17.5,10.73778 15.1212662,14.8156093 10.3789831,20.3261469 Z M16.5,8 C16.5,4.41014913 13.5898509,1.5 10,1.5 C6.41014913,1.5 3.5,4.41014913 3.5,8 C3.5,10.3494305 5.66201726,14.1213107 10,19.2305246 C14.3379827,14.1213107 16.5,10.3494305 16.5,8 Z M10,11.5 C8.06700338,11.5 6.5,9.93299662 6.5,8 C6.5,6.06700338 8.06700338,4.5 10,4.5 C11.9329966,4.5 13.5,6.06700338 13.5,8 C13.5,9.93299662 11.9329966,11.5 10,11.5 Z M10,10.5 C11.3807119,10.5 12.5,9.38071187 12.5,8 C12.5,6.61928813 11.3807119,5.5 10,5.5 C8.61928813,5.5 7.5,6.61928813 7.5,8 C7.5,9.38071187 8.61928813,10.5 10,10.5 Z" id="Combined-Shape" fill="url(#linearGradient-1)" fill-rule="nonzero"></path>
    </g>
</svg>