<?xml version="1.0" encoding="UTF-8"?>
<svg width="68px" height="68px" viewBox="0 0 68 68" version="1.1" xmlns="http://www.w3.org/2000/svg" xmlns:xlink="http://www.w3.org/1999/xlink">
    <!-- Generator: sketchtool 53 (72520) - https://sketchapp.com -->
    <title>0EBE4029-C893-4394-90AC-F19F0F39747A</title>
    <desc>Created with sketchtool.</desc>
    <defs>
        <circle id="path-1" cx="30" cy="30" r="30"></circle>
        <filter x="-11.7%" y="-8.3%" width="123.3%" height="123.3%" filterUnits="objectBoundingBox" id="filter-2">
            <feOffset dx="0" dy="2" in="SourceAlpha" result="shadowOffsetOuter1"></feOffset>
            <feGaussianBlur stdDeviation="2" in="shadowOffsetOuter1" result="shadowBlurOuter1"></feGaussianBlur>
            <feColorMatrix values="0 0 0 0 0.446586277   0 0 0 0 0.162176853   0 0 0 0 0.368513102  0 0 0 0.2 0" type="matrix" in="shadowBlurOuter1"></feColorMatrix>
        </filter>
        <linearGradient x1="54.7122508%" y1="44.6674411%" x2="16.9705579%" y2="67.2937145%" id="linearGradient-3">
            <stop stop-color="#AA5397" offset="0%"></stop>
            <stop stop-color="#72295E" offset="100%"></stop>
        </linearGradient>
    </defs>
    <g id="propuesta-2" stroke="none" stroke-width="1" fill="none" fill-rule="evenodd">
        <g id="servicios_estudios" transform="translate(-58.000000, -902.000000)">
            <g id="CARD_ESTUDIO-4" transform="translate(42.000000, 880.000000)">
                <g id="1">
                    <g id="estudio/electroencefalograma" transform="translate(20.000000, 24.000000)">
                        <g id="Oval" transform="translate(30.000000, 30.000000) scale(-1, 1) translate(-30.000000, -30.000000) ">
                            <use fill="black" fill-opacity="1" filter="url(#filter-2)" xlink:href="#path-1"></use>
                            <use fill="#FFFFFF" fill-rule="evenodd" xlink:href="#path-1"></use>
                        </g>
                        <path d="M28.670861,29.2767239 C28.6732417,29.2814916 28.6755781,29.2862954 28.6778694,29.2911352 L30.7029824,33.5686469 L33.1964791,25.4625955 C33.4265441,24.7146825 34.5045441,24.7746619 34.6502188,25.5434808 L36.8585224,37.1981151 L40.0417561,12.9025668 C40.1569926,12.0230419 41.4345737,12.0367153 41.5309596,12.9185051 L43.350872,29.5680372 L44.2299525,27.3371053 C44.4992142,26.6537725 45.4885164,26.724666 45.6575918,27.4394101 L47.5974576,35.6399411 L49.0388585,28.4643544 C49.1092205,28.1140781 49.4168965,27.8620605 49.7741699,27.8620605 L57.1540527,27.8620605 C57.5682663,27.8620605 57.9040527,28.197847 57.9040527,28.6120605 C57.9040527,29.0262741 57.5682663,29.3620605 57.1540527,29.3620605 L50.3884952,29.3620605 L48.392538,39.298341 C48.2340047,40.0875519 47.1126752,40.1066423 46.9273692,39.3232852 L44.748546,30.1125927 L43.6330847,32.9434123 C43.3460013,33.6719728 42.2748331,33.5283972 42.1897435,32.749952 L40.7181164,19.2867199 L37.7372966,42.0373746 C37.6265318,42.8827702 36.4154928,42.9172817 36.2567636,42.079566 L33.740058,28.7972963 L31.5686576,35.8562522 C31.3674042,36.5105022 30.466837,36.5753402 30.1739373,35.9566676 L27.7058475,30.7434857 C26.9106055,32.0052037 26.1801371,33.3028771 25.4139797,34.7767879 C25.2155605,35.1585009 25.0199968,35.5412338 24.7739451,36.0277086 C24.7650524,36.0452905 24.3088574,36.9492515 24.182669,37.1976107 C23.7198153,38.1085817 23.3948223,38.7203854 23.0694696,39.279099 C21.5346024,41.9148584 20.0256161,43.0778809 17.5974121,43.0778809 C13.9440062,43.0778809 11.7645557,41.1258149 11.2569248,37.4161352 C11.2007673,37.0057461 11.4879288,36.6275354 11.8983179,36.5713779 C12.308707,36.5152205 12.6869177,36.802382 12.7430752,37.2127711 C13.1501579,40.1876617 14.7023154,41.5778809 17.5974121,41.5778809 C19.3992216,41.5778809 20.4801982,40.7447388 21.7732325,38.5242683 C22.0808664,37.9959823 22.39448,37.4056004 22.8453827,36.5181511 C22.9704737,36.2719518 23.4257012,35.369908 23.435416,35.3507005 C23.6837631,34.8596874 23.8816726,34.4723637 24.0830524,34.0849552 C25.2207082,31.8963667 26.2871323,30.0775496 27.5942489,28.1959712 C32.2848448,21.4439163 28.179212,13.75 21.6296387,13.75 C17.7329582,13.75 14.770081,15.6534137 12.6592214,19.5439483 C12.4616862,19.9080263 12.0064089,20.0430359 11.642331,19.8455007 C11.278253,19.6479655 11.1432434,19.1926882 11.3407786,18.8286103 C13.7051795,14.4707725 17.1620613,12.25 21.6296387,12.25 C29.3831063,12.25 34.2118858,21.2990862 28.8261612,29.0517704 C28.77401,29.1268414 28.7222504,29.2018159 28.670861,29.2767239 Z M17.7357576,32.4898246 C17.2141255,34.7552274 15.447461,35.6020539 12.8145017,34.9767758 C12.4114965,34.8810697 12.1623813,34.4767843 12.2580875,34.0737791 C12.3537936,33.6707738 12.758079,33.4216587 13.1610842,33.5173648 C15.0460286,33.9650034 15.957424,33.5281385 16.274008,32.1532418 C16.5847295,30.8038054 15.9227539,30.0528206 13.9139463,29.7006474 C13.5120584,29.6301906 13.2402232,29.2513852 13.302144,28.8480939 C14.5520206,20.7076248 18.6481703,17.7764857 25.2095707,20.4829358 C25.5924883,20.6408819 25.7748638,21.0793386 25.6169177,21.4622562 C25.4589716,21.8451738 25.0205149,22.0275493 24.6375973,21.8696032 C19.2371805,19.6420362 16.1063665,21.6837158 14.9002095,28.382352 C17.1762367,28.9901015 18.2148611,30.4091199 17.7357576,32.4898246 Z" id="Combined-Shape" fill="url(#linearGradient-3)" fill-rule="nonzero"></path>
                        <path d="M8.52163991,24.6079605 C8.28241456,24.2698124 8.36260727,23.8017588 8.70075534,23.5625335 C9.0389034,23.3233081 9.50695702,23.4035008 9.74618236,23.7416489 C12.1277923,27.1080849 12.1277923,30.7473013 9.76929017,34.507864 C9.54921078,34.8587741 9.08633229,34.9648334 8.73542214,34.744754 C8.38451199,34.5246746 8.2784527,34.0617962 8.4985321,33.710886 C10.5436758,30.4499643 10.5436758,27.4661339 8.52163991,24.6079605 Z" id="Path-34" fill="#9B79C1" fill-rule="nonzero"></path>
                        <path d="M6.54551378,27.59286 C6.33214607,27.2378289 6.44698697,26.7770506 6.80201809,26.5636829 C7.15704922,26.3503152 7.61782751,26.4651561 7.83119521,26.8201872 C8.80949203,28.4480147 8.80949203,30.0573844 7.80501669,31.5084244 C7.56925661,31.8489975 7.10204622,31.9339653 6.76147309,31.6982052 C6.42089996,31.4624451 6.3359322,30.9952347 6.57169229,30.6546616 C7.22932633,29.7046599 7.22932633,28.7306833 6.54551378,27.59286 Z" id="Path-35" fill="#9B79C1" fill-rule="nonzero"></path>
                        <circle id="Oval" stroke="#9B79C1" fill="#EFE1FF" cx="4" cy="29" r="1"></circle>
                    </g>
                </g>
            </g>
        </g>
    </g>
</svg>