<?xml version="1.0" encoding="UTF-8"?>
<svg width="68px" height="68px" viewBox="0 0 68 68" version="1.1" xmlns="http://www.w3.org/2000/svg" xmlns:xlink="http://www.w3.org/1999/xlink">
    <!-- Generator: sketchtool 53 (72520) - https://sketchapp.com -->
    <title>728DCB91-BA9C-4E6B-9303-732FED17D2E2</title>
    <desc>Created with sketchtool.</desc>
    <defs>
        <circle id="path-1" cx="30" cy="30" r="30"></circle>
        <filter x="-11.7%" y="-8.3%" width="123.3%" height="123.3%" filterUnits="objectBoundingBox" id="filter-2">
            <feOffset dx="0" dy="2" in="SourceAlpha" result="shadowOffsetOuter1"></feOffset>
            <feGaussianBlur stdDeviation="2" in="shadowOffsetOuter1" result="shadowBlurOuter1"></feGaussianBlur>
            <feColorMatrix values="0 0 0 0 0.446586277   0 0 0 0 0.162176853   0 0 0 0 0.368513102  0 0 0 0.2 0" type="matrix" in="shadowBlurOuter1"></feColorMatrix>
        </filter>
        <linearGradient x1="54.7122508%" y1="42.8911626%" x2="16.9705579%" y2="73.0542609%" id="linearGradient-3">
            <stop stop-color="#AA5397" offset="0%"></stop>
            <stop stop-color="#72295E" offset="100%"></stop>
        </linearGradient>
    </defs>
    <g id="propuesta-2" stroke="none" stroke-width="1" fill="none" fill-rule="evenodd">
        <g id="servicios_estudios" transform="translate(-698.000000, -902.000000)">
            <g id="CARD_ESTUDIO-6" transform="translate(682.000000, 880.000000)">
                <g id="1">
                    <g id="estudio/electroencefalograma" transform="translate(20.000000, 24.000000)">
                        <g id="Oval" transform="translate(30.000000, 30.000000) scale(-1, 1) translate(-30.000000, -30.000000) ">
                            <use fill="black" fill-opacity="1" filter="url(#filter-2)" xlink:href="#path-1"></use>
                            <use fill="#FFFFFF" fill-rule="evenodd" xlink:href="#path-1"></use>
                        </g>
                        <path d="M18.2128025,37.8391761 C19.8015493,37.5630763 21.0875261,37.7402373 22.0575607,38.3975895 C22.3959374,38.6268934 22.726912,38.915981 23.192814,39.3699058 C23.3189557,39.4928047 23.7801255,39.9494927 23.7707294,39.9402321 C24.0083203,40.1743967 24.195153,40.3542335 24.3837302,40.5284502 C25.621793,41.6722313 26.7508518,42.3625805 28.1654523,42.6863219 C31.576658,43.4670006 34.3247285,42.7669588 35.9591964,40.4240921 C35.9601477,40.4227137 35.9611063,40.4213383 35.9620723,40.4199661 C37.4952384,38.2178337 36.500918,35.1154213 34.4358626,34.0647649 C34.3224296,34.0070526 34.2037956,33.952938 34.0799653,33.9024397 C33.9438317,33.906897 33.8085162,33.8591213 33.7049165,33.7657011 C32.5177136,33.3803498 30.922424,33.2806543 28.9223241,33.4795074 C28.6291509,33.5086552 28.3678581,33.2946202 28.3387104,33.0014471 C28.3095626,32.7082739 28.5235975,32.4469811 28.8167707,32.4178334 C30.4649589,32.2539678 31.8785501,32.2809006 33.0590176,32.5044296 C32.725967,31.4609974 32.8223599,30.3778297 33.3491696,29.2824407 C33.4768617,29.016932 33.7956139,28.9052096 34.0611225,29.0329017 C34.3266312,29.1605938 34.4383536,29.479346 34.3106615,29.7448547 C33.7826084,30.8428291 33.8068388,31.8668583 34.3854332,32.8757638 C34.5717273,32.9480814 34.7498013,33.0274325 34.919665,33.1138556 C37.396361,34.373946 38.6266365,37.8699543 37.1169539,40.5823445 C39.26922,42.0159048 41.36554,41.9218595 43.5251465,40.3002085 C43.6221993,40.2273315 43.7412018,40.1897279 43.8625083,40.1936055 C44.5177114,40.204309 45.4602931,40.015338 46.3834313,39.4392091 C47.7062951,38.6136121 48.6012934,37.180091 48.8707511,34.9454314 C49.4504424,30.1379492 45.8870534,26.3612653 42.0891318,26.5501835 C42.2409924,27.032242 42.3720047,27.5444633 42.4821361,28.0865718 C42.5407909,28.3752927 42.3542854,28.6568963 42.0655645,28.715551 C41.7768437,28.7742057 41.4952401,28.5877003 41.4365854,28.2989794 C40.71753,24.7595152 39.1082041,22.7477579 36.5962582,22.159932 C34.0753634,21.5700119 32.0482377,22.3938784 30.4186625,24.6863946 C30.2479699,24.9265282 29.9149294,24.9828211 29.6747958,24.8121285 C29.4346623,24.6414358 29.3783693,24.3083954 29.549062,24.0682618 C30.0410434,23.3761333 30.573466,22.7967204 31.1445912,22.3310143 C29.7712132,21.2814032 28.3193699,20.889811 26.7574293,21.140014 C25.3033062,21.372946 24.0541855,22.0632386 22.9960635,23.2245662 C23.9696503,23.395549 24.9906423,23.6845659 26.0580199,24.0918892 C26.3332769,24.1969304 26.4712642,24.5052231 26.3662229,24.7804802 C26.2611817,25.0557373 25.9528891,25.1937245 25.677632,25.0886833 C20.2911047,23.0331234 16.3705702,24.1873496 13.7481326,28.5964136 C14.659267,28.4352701 15.6680495,28.5964941 16.7577206,29.0815315 C17.0268787,29.2013398 17.1479506,29.5166594 17.0281422,29.7858175 C16.9083338,30.0549756 16.5930142,30.1760474 16.3238562,30.0562391 C14.4397179,29.2175664 13.0200957,29.5367487 11.9019802,31.0278491 C10.9435093,32.3060503 10.8877136,33.4339857 11.3442997,34.3951739 C11.3521539,34.4117082 11.3599818,34.4278124 11.3677637,34.4434803 C11.5635605,34.1679138 11.7938714,33.9091505 12.0603296,33.6720926 C14.3653314,31.6214183 16.6875009,31.2265972 19.7628595,31.9759326 C19.7652271,31.974488 19.7676099,31.973059 19.7700077,31.9716459 C20.8511886,31.3344676 20.8983289,30.2597707 19.775401,28.4770986 C19.6183737,28.2278145 19.6931627,27.8984341 19.9424468,27.7414068 C20.1917309,27.5843796 20.5211113,27.6591686 20.6781386,27.9084527 C21.8505992,29.7697591 21.9919632,31.2964839 21.0233559,32.3318045 C21.029735,32.3338282 21.0361174,32.3358559 21.0425029,32.3378876 C22.7260829,32.8735673 24.0982413,32.5453451 25.2508427,31.3399973 C25.4544583,31.1270635 25.7921384,31.1195097 26.0050721,31.3231254 C26.2180058,31.5267411 26.2255596,31.8644211 26.0219439,32.0773548 C24.5833335,33.5818004 22.785069,34.0119477 20.7190151,33.3545729 C17.3100613,32.2699156 15.0529702,32.4376756 12.7694894,34.4692034 C10.3061377,36.6607556 11.8502432,41.4071413 15.2491801,42.0290991 C16.8339793,42.3190952 18.0543839,42.2642594 18.9572618,41.9760393 C19.460998,41.8152348 19.7387849,41.6331057 19.835678,41.5286554 C20.0360444,41.3126614 20.3735712,41.2999927 20.5895652,41.5003591 C20.8055593,41.7007255 20.8182279,42.0382523 20.6178615,42.2542463 C20.1050184,42.8070887 19.1271945,43.2445542 17.6045355,43.2958791 C18.3260809,45.4508942 19.9105241,46.0874938 22.579679,45.2704137 C22.6452433,44.6112664 22.3523717,43.962322 21.7202074,43.3097264 C21.5152195,43.0981134 21.5205902,42.7603916 21.7322032,42.5554037 C21.9438162,42.3504158 22.281538,42.3557865 22.4865259,42.5673995 C24.8511472,45.0084442 23.6659106,47.5311647 19.3302076,49.8465189 C19.0703242,49.9853019 18.7471412,49.8871307 18.6083582,49.6272473 C18.4695751,49.3673639 18.5677463,49.0441809 18.8276297,48.9053978 C20.3919157,48.0700371 21.453261,47.2789259 22.0394868,46.5119299 C19.1667298,47.1177196 17.2488038,46.0173888 16.4806574,43.2678327 C16.0411002,43.2335907 15.5669988,43.1718788 15.0571395,43.0785817 C11.6085745,42.4475426 9.70987182,38.4874556 10.8012138,35.5211133 C10.7922688,35.5120151 10.7835836,35.5025333 10.77518,35.4926698 C10.6669924,35.3656871 10.5217581,35.1501295 10.3805939,34.852956 C9.76203629,33.5507914 9.83869935,32.0010126 11.0483959,30.387781 C11.4074057,29.9090115 11.8001152,29.522888 12.2239225,29.229635 C12.2319885,29.1742329 12.2489828,29.1191668 12.2755588,29.0664175 C14.4422667,24.7658369 17.6378232,22.759098 21.7736082,23.0699805 C21.793471,23.0105705 21.8242112,22.9536785 21.8661286,22.902246 C23.1482528,21.329086 24.7285995,20.3844967 26.5886756,20.0865362 C28.4656179,19.7858739 30.2275875,20.2697511 31.8419371,21.5214228 C31.9159779,21.5788296 31.9707617,21.6518669 32.0052435,21.7322758 C33.4193513,20.9074282 35.0380019,20.6995492 36.8393601,21.121089 C39.0815595,21.645791 40.7065953,23.1234382 41.7091116,25.5090248 C46.2871082,25.049889 50.6051809,29.4736496 49.9299866,35.0731552 C49.6222553,37.6252249 48.5479155,39.3459977 46.9483045,40.3443121 C45.8996753,40.9987598 44.8420626,41.2409942 44.0214384,41.2597536 C41.539926,43.0543576 38.9992316,43.1217603 36.5132736,41.4619618 C35.0329384,43.293773 32.9070822,44.1264934 30.3885054,44.0544135 C29.2936915,46.2502418 27.0020844,48.3720866 23.5240426,50.4420583 C23.2708696,50.5927353 22.9434845,50.5096459 22.7928075,50.2564729 C22.6421305,50.0032999 22.7252199,49.6759148 22.9783929,49.5252378 C26.0835765,47.6771744 28.1641065,45.816406 29.2284906,43.9610921 C28.8037006,43.9059306 28.3696611,43.8275483 27.9274363,43.726342 C26.3041138,43.354833 25.0228458,42.5714174 23.6597416,41.312117 C23.4613543,41.1288374 23.2668873,40.9416522 23.0218101,40.7001091 C23.0283893,40.7065934 22.5707523,40.2534039 22.4482825,40.1340825 C22.0241572,39.7208605 21.7325062,39.4661199 21.4590423,39.2808047 C20.651897,38.7338357 19.4576344,38.62764 17.8577916,38.9999647 C17.4815161,39.6278436 16.8093891,40.2149136 15.8529959,40.7428708 C15.5950678,40.8852547 15.2705507,40.7915876 15.1281668,40.5336595 C14.9857829,40.2757314 15.0794499,39.9512143 15.3373781,39.8088304 C16.152554,39.3588293 16.6838519,38.9186045 16.9462278,38.4645268 C16.9614068,38.3651608 17.0044828,38.2724685 17.0691684,38.1970858 C17.260463,37.6398529 17.0620581,37.0555734 16.5004737,36.4023476 C16.3084081,36.17894 16.3338158,35.8421325 16.5572234,35.6500669 C16.7806309,35.4580014 17.1174384,35.4834091 17.309504,35.7068167 C17.9362731,36.4358643 18.2332275,37.1531997 18.2128025,37.8391761 Z M28.3948424,35.9575931 C31.1255036,35.395143 32.8711328,36.7144396 33.4214812,39.7894631 C33.4733854,40.0794735 33.2803622,40.3566501 32.9903517,40.4085544 C32.7003413,40.4604586 32.4231647,40.2674354 32.3712604,39.977425 C31.8725882,37.1911374 30.4322185,36.3354971 27.7591005,37.236053 C27.7292632,37.2461049 27.6991588,37.2533687 27.6690703,37.2579845 C26.9333158,37.8549777 25.6787888,38.0330576 23.955586,37.7575427 C23.6646624,37.7110283 23.4665296,37.4374807 23.5130441,37.1465572 C23.5595585,36.8556336 23.833106,36.6575008 24.1240296,36.7040153 C27.0670068,37.1745542 27.8906458,36.383403 27.0833659,33.9924343 C26.9891188,33.713297 27.1390019,33.4106092 27.4181391,33.3163621 C27.6972764,33.222115 27.9999642,33.3719981 28.0942113,33.6511353 C28.4015934,34.5615273 28.4981018,35.3329093 28.3948424,35.9575931 Z M43.1151963,34.1050904 C43.2634218,35.1795264 43.2381481,36.4252315 43.0396923,37.8360476 C42.9986531,38.1277938 42.7288772,38.3310321 42.4371309,38.2899929 C42.1453846,38.2489538 41.9421464,37.9791779 41.9831855,37.6874316 C42.5854328,33.4060732 41.5363881,31.0773972 38.848329,30.4632192 C38.5095563,31.2991708 37.6901477,32.1063621 36.420092,32.8540813 C36.166205,33.003552 35.8392189,32.9189059 35.6897482,32.6650189 C35.5402774,32.4111319 35.6249235,32.0841459 35.8788105,31.9346751 C38.033197,30.6663243 38.4436187,29.5664204 37.3862024,28.3521818 C37.1927178,28.1300021 37.2159798,27.7930396 37.4381595,27.599555 C37.6603392,27.4060704 37.9973017,27.4293324 38.1907863,27.6515121 C38.7015329,28.238006 38.9746223,28.8267669 39.0194968,29.4081251 C40.9156174,29.8189082 42.1671906,30.9180279 42.7764743,32.6616789 C42.8058592,32.675428 42.8344019,32.692065 42.8617231,32.7116524 C44.5789984,33.942816 45.5111635,33.4956933 46.0817371,31.0799494 C46.1494597,30.7932199 46.4367997,30.6156797 46.7235292,30.6834022 C47.0102586,30.7511248 47.1877988,31.0384648 47.1200763,31.3251943 C46.4787446,34.04052 45.0498389,35.0315546 43.1151963,34.1050904 Z M35.4096567,26.6116464 C35.7998784,26.7417353 36.2005382,26.8962394 36.6114415,27.0751661 C36.8815617,27.1927892 37.005185,27.5071173 36.8875619,27.7772375 C36.7699387,28.0473577 36.4556107,28.170981 36.1854905,28.0533578 C32.2271334,26.3297017 29.6050056,27.0806767 28.0707915,30.3159203 C27.944553,30.5821231 27.6264165,30.6955867 27.3602136,30.5693482 C27.0940108,30.4431098 26.9805472,30.1249732 27.1067857,29.8587703 C27.372392,29.2986782 27.6696781,28.8009951 27.9978439,28.3657522 C27.5911577,27.2870673 26.6395637,26.9726108 24.9252196,27.4242252 C24.6403207,27.4992769 24.3485232,27.3291621 24.2734715,27.0442633 C24.1984198,26.7593644 24.3685345,26.4675668 24.6534334,26.3925152 C26.626786,25.8726694 28.0525413,26.243519 28.772095,27.5064054 C30.1010459,26.2837199 31.8141521,25.8531911 33.8752908,26.216221 C33.8889174,26.2111472 33.902859,26.2065864 33.9170998,26.2025671 C34.994678,25.8984354 35.3004274,25.2589414 34.9161598,24.0222177 C34.8287403,23.7408675 34.9859522,23.4419206 35.2673024,23.3545011 C35.5486526,23.2670816 35.8475995,23.4242935 35.935019,23.7056437 C36.3267842,24.9664973 36.1420946,25.9657931 35.4096567,26.6116464 Z M16.7970349,28.4558922 C16.6517197,28.7121803 16.3261558,28.8021415 16.0698677,28.6568263 C15.8135796,28.511511 15.7236184,28.1859471 15.8689337,27.9296591 C17.2138028,25.5577544 19.2414659,24.4781116 21.8643996,24.7456595 C22.1574973,24.7755565 22.3708637,25.0373954 22.3409668,25.3304931 C22.3110699,25.6235909 22.0492309,25.8369573 21.7561332,25.8070603 C19.5595727,25.5830039 17.9357143,26.4476382 16.7970349,28.4558922 Z M47.4809952,33.6128335 C47.4728947,33.3183263 47.7050733,33.0730144 47.9995805,33.064914 C48.2940877,33.0568135 48.5393997,33.2889921 48.5475001,33.5834993 C48.6173119,36.1216485 47.5984032,37.7407704 45.5281353,38.2780864 C45.2429648,38.3520993 44.9517892,38.1809223 44.8777762,37.8957519 C44.8037633,37.6105814 44.9749402,37.3194057 45.2601107,37.2453927 C46.8101902,36.8430862 47.5380312,35.6864926 47.4809952,33.6128335 Z M25.7843376,39.7189825 C25.6831904,39.4422708 25.8255135,39.1359556 26.1022252,39.0348084 C26.3789369,38.9336612 26.685252,39.0759843 26.7863992,39.352696 C27.3254765,40.827467 28.4277467,41.4302345 30.2488182,41.2088655 C30.5412839,41.1733134 30.8071948,41.381583 30.8427468,41.6740487 C30.8782989,41.9665144 30.6700293,42.2324253 30.3775636,42.2679773 C28.0845012,42.5467215 26.5015564,41.681101 25.7843376,39.7189825 Z" id="Combined-Shape" fill="url(#linearGradient-3)" fill-rule="nonzero"></path>
                        <path d="M22.9041064,10.1632131 L18.2356255,11.7081195 C17.8423845,11.8382518 17.4181066,11.6249602 17.2879743,11.2317192 C17.1578419,10.8384783 17.3711336,10.4142004 17.7643745,10.284068 L23.7962779,8.28797427 C24.3715173,8.09761448 24.9233601,8.63265539 24.7508721,9.21350404 L21.88271,18.8719575 L27.6931965,16.9222621 C28.0858923,16.7904939 28.5110544,17.0020175 28.6428226,17.3947134 C28.7745908,17.7874092 28.5630671,18.2125713 28.1703713,18.3443395 L20.9914185,20.7532207 C20.4156267,20.9464263 19.860969,20.4108914 20.0338623,19.828678 L22.9041064,10.1632131 Z" id="Path-39" fill="#9B79C1" fill-rule="nonzero"></path>
                        <path d="M32.4973329,7.65349877 C32.1364155,7.45024645 32.0086027,6.99289653 32.211855,6.63197913 C32.4151073,6.27106173 32.8724573,6.14324892 33.2333747,6.34650123 L37.2634066,8.61603248 C37.7934552,8.91453181 37.7663262,9.68668359 37.2166353,9.94724704 L32.6075485,12.132038 L35.1497694,13.3205859 C35.5249994,13.4960147 35.6869703,13.942412 35.5115414,14.317642 C35.3361126,14.6928721 34.8897154,14.854843 34.5144853,14.6794141 L30.5290569,12.8161329 C29.9542698,12.5474064 29.952099,11.7307814 30.5254494,11.459003 L35.2652376,9.21225717 L32.4973329,7.65349877 Z" id="Path-40" fill="#C0A1E2" fill-rule="nonzero"></path>
                        <path d="M41.6627197,8.75 C41.2485062,8.75 40.9127197,8.41421356 40.9127197,8 C40.9127197,7.58578644 41.2485062,7.25 41.6627197,7.25 L44.7898039,7.25 C45.4180631,7.25 45.7678851,7.97619335 45.376288,8.46747876 L43.5569204,10.75 L45.0662842,10.75 C45.4804977,10.75 45.8162842,11.0857864 45.8162842,11.5 C45.8162842,11.9142136 45.4804977,12.25 45.0662842,12.25 L42,12.25 C41.3717408,12.25 41.0219188,11.5238067 41.4135159,11.0325212 L43.2328835,8.75 L41.6627197,8.75 Z" id="Path-42" fill="#EFE1FF" fill-rule="nonzero"></path>
                    </g>
                </g>
            </g>
        </g>
    </g>
</svg>