<?xml version="1.0" encoding="UTF-8"?>
<svg width="20px" height="20px" viewBox="0 0 20 20" version="1.1" xmlns="http://www.w3.org/2000/svg" xmlns:xlink="http://www.w3.org/1999/xlink">
    <!-- Generator: Sketch 53 (72520) - https://sketchapp.com -->
    <title>tel</title>
    <desc>Created with Sketch.</desc>
    <defs>
        <linearGradient x1="54.6703623%" y1="37.7867954%" x2="17.2641656%" y2="89.6079401%" id="linearGradient-1">
            <stop stop-color="#AA5397" offset="0%"></stop>
            <stop stop-color="#72295E" offset="100%"></stop>
        </linearGradient>
        <linearGradient x1="54.7122508%" y1="37.7888693%" x2="16.9705579%" y2="89.6012144%" id="linearGradient-2">
            <stop stop-color="#AA5397" offset="0%"></stop>
            <stop stop-color="#72295E" offset="100%"></stop>
        </linearGradient>
        <linearGradient x1="54.7122508%" y1="37.7955598%" x2="16.9705579%" y2="89.5795169%" id="linearGradient-3">
            <stop stop-color="#AA5397" offset="0%"></stop>
            <stop stop-color="#72295E" offset="100%"></stop>
        </linearGradient>
    </defs>
    <g id="tel" stroke="none" stroke-width="1" fill="none" fill-rule="evenodd">
        <g id="126509" fill-rule="nonzero">
            <path d="M15.7998312,12.3842194 C15.3905485,11.9580591 14.8968776,11.730211 14.3736709,11.730211 C13.8546835,11.730211 13.3567932,11.9538397 12.9306329,12.38 L11.5972996,13.7091139 C11.4875949,13.6500422 11.3778903,13.5951899 11.2724051,13.5403376 C11.1205063,13.4643882 10.9770464,13.3926582 10.8546835,13.3167089 C9.6057384,12.5234599 8.4707173,11.4897046 7.3821097,10.1521519 C6.85468354,9.48548523 6.50025316,8.9243038 6.2428692,8.35468354 C6.58886076,8.03822785 6.90953586,7.70911392 7.22177215,7.39265823 C7.33991561,7.27451477 7.45805907,7.1521519 7.57620253,7.03400844 C8.46227848,6.14793249 8.46227848,5.00025316 7.57620253,4.11417722 L6.4243038,2.96227848 C6.29350211,2.83147679 6.15848101,2.6964557 6.03189873,2.5614346 C5.77873418,2.29983122 5.51291139,2.02978903 5.23864979,1.77662447 C4.82936709,1.37156118 4.33991561,1.15637131 3.82514768,1.15637131 C3.31037975,1.15637131 2.81248945,1.37156118 2.39054852,1.77662447 C2.38632911,1.78084388 2.38632911,1.78084388 2.3821097,1.78506329 L0.947510549,3.23232068 C0.40742616,3.77240506 0.0994092827,4.43063291 0.0318987342,5.19434599 C-0.0693670886,6.4264135 0.29350211,7.57409283 0.571983122,8.32514768 C1.25552743,10.1690295 2.27662447,11.8778903 3.79983122,13.7091139 C5.64793249,15.915865 7.87156118,17.658481 10.4116456,18.8863291 C11.3821097,19.3462447 12.6774684,19.8905485 14.1247257,19.9833755 C14.2133333,19.9875949 14.3061603,19.9918143 14.3905485,19.9918143 C15.3652321,19.9918143 16.1837975,19.6416034 16.8251477,18.9454008 C16.8293671,18.936962 16.8378059,18.9327426 16.8420253,18.9243038 C17.0614346,18.658481 17.3145992,18.4179747 17.5804219,18.1605907 C17.7618565,17.9875949 17.9475105,17.8061603 18.1289451,17.6162869 C18.5466667,17.1816878 18.7660759,16.6753586 18.7660759,16.1563713 C18.7660759,15.6331646 18.5424473,15.1310549 18.1162869,14.7091139 L15.7998312,12.3842194 Z M17.3103797,16.8272574 C17.3061603,16.8272574 17.3061603,16.8314768 17.3103797,16.8272574 C17.1458228,17.0044726 16.9770464,17.1648101 16.7956118,17.3420253 C16.5213502,17.6036287 16.2428692,17.8778903 15.9812658,18.1859072 C15.5551055,18.6416034 15.0529958,18.8567932 14.3947679,18.8567932 C14.3314768,18.8567932 14.2639662,18.8567932 14.2006751,18.8525738 C12.9475105,18.7724051 11.7829536,18.2829536 10.9095359,17.8652321 C8.52135021,16.7091139 6.4243038,15.0677637 4.68168776,12.9875949 C3.2428692,11.2534177 2.28084388,9.65004219 1.64371308,7.92852321 C1.25130802,6.8778903 1.1078481,6.05932489 1.17113924,5.287173 C1.21333333,4.79350211 1.40320675,4.38421941 1.75341772,4.03400844 L3.19223629,2.59518987 C3.39898734,2.40109705 3.61839662,2.29561181 3.8335865,2.29561181 C4.09940928,2.29561181 4.31459916,2.45594937 4.44962025,2.59097046 C4.45383966,2.59518987 4.45805907,2.59940928 4.46227848,2.60362869 C4.71966245,2.84413502 4.96438819,3.09308017 5.22177215,3.35890295 C5.35257384,3.49392405 5.48759494,3.62894515 5.62261603,3.76818565 L6.77451477,4.92008439 C7.22177215,5.36734177 7.22177215,5.78084388 6.77451477,6.22810127 C6.6521519,6.35046414 6.53400844,6.472827 6.41164557,6.59097046 C6.05721519,6.95383966 5.71966245,7.29139241 5.35257384,7.62050633 C5.34413502,7.62894515 5.3356962,7.63316456 5.33147679,7.64160338 C4.96860759,8.00447257 5.03611814,8.35890295 5.11206751,8.59940928 C5.11628692,8.61206751 5.12050633,8.62472574 5.12472574,8.63738397 C5.4243038,9.36312236 5.84624473,10.0466667 6.48759494,10.8610127 L6.49181435,10.8652321 C7.65637131,12.2998312 8.88421941,13.4179747 10.2386498,14.2745148 C10.4116456,14.3842194 10.5888608,14.472827 10.7576371,14.5572152 C10.9095359,14.6331646 11.0529958,14.7048945 11.1753586,14.7808439 C11.1922363,14.7892827 11.2091139,14.8019409 11.2259916,14.8103797 C11.3694515,14.8821097 11.5044726,14.915865 11.6437131,14.915865 C11.9939241,14.915865 12.2133333,14.6964557 12.2850633,14.6247257 L13.7281013,13.1816878 C13.8715612,13.0382278 14.0994093,12.8652321 14.3652321,12.8652321 C14.6268354,12.8652321 14.8420253,13.029789 14.972827,13.1732489 C14.9770464,13.1774684 14.9770464,13.1774684 14.9812658,13.1816878 L17.3061603,15.5065823 C17.7407595,15.936962 17.7407595,16.38 17.3103797,16.8272574 Z" id="Shape" fill="url(#linearGradient-1)"></path>
            <path d="M10.8040506,4.75552743 C11.9095359,4.94118143 12.9137553,5.46438819 13.715443,6.26607595 C14.5171308,7.06776371 15.0361181,8.07198312 15.2259916,9.17746835 C15.2724051,9.45594937 15.5129114,9.65004219 15.787173,9.65004219 C15.8209283,9.65004219 15.8504641,9.64582278 15.8842194,9.64160338 C16.1964557,9.59097046 16.4032068,9.29561181 16.3525738,8.98337553 C16.1247257,7.64582278 15.4918143,6.4264135 14.5255696,5.46016878 C13.5593249,4.49392405 12.3399156,3.86101266 11.0023629,3.63316456 C10.6901266,3.58253165 10.3989873,3.7892827 10.344135,4.09729958 C10.2892827,4.40531646 10.4918143,4.70489451 10.8040506,4.75552743 Z" id="Path" fill="url(#linearGradient-2)"></path>
            <path d="M19.9686076,8.81881857 C19.5930802,6.61628692 18.5551055,4.61206751 16.9601688,3.0171308 C15.3652321,1.42219409 13.3610127,0.384219409 11.158481,0.00869198312 C10.8504641,-0.0461603376 10.5593249,0.164810127 10.5044726,0.472827004 C10.4538397,0.785063291 10.6605907,1.07620253 10.972827,1.13105485 C12.9390717,1.46438819 14.7323207,2.39687764 16.158481,3.81881857 C17.5846414,5.2449789 18.5129114,7.03822785 18.8462447,9.00447257 C18.8926582,9.28295359 19.1331646,9.47704641 19.4074262,9.47704641 C19.4411814,9.47704641 19.4707173,9.472827 19.5044726,9.46860759 C19.8124895,9.42219409 20.0234599,9.12683544 19.9686076,8.81881857 Z" id="Path" fill="url(#linearGradient-3)"></path>
        </g>
    </g>
</svg>