<?xml version="1.0" encoding="UTF-8"?>
<svg width="68px" height="68px" viewBox="0 0 68 68" version="1.1" xmlns="http://www.w3.org/2000/svg" xmlns:xlink="http://www.w3.org/1999/xlink">
    <!-- Generator: sketchtool 53 (72520) - https://sketchapp.com -->
    <title>F65992C6-1413-4A2E-B2F2-F25AF1DF8A81</title>
    <desc>Created with sketchtool.</desc>
    <defs>
        <circle id="path-1" cx="30" cy="30" r="30"></circle>
        <filter x="-11.7%" y="-8.3%" width="123.3%" height="123.3%" filterUnits="objectBoundingBox" id="filter-2">
            <feOffset dx="0" dy="2" in="SourceAlpha" result="shadowOffsetOuter1"></feOffset>
            <feGaussianBlur stdDeviation="2" in="shadowOffsetOuter1" result="shadowBlurOuter1"></feGaussianBlur>
            <feColorMatrix values="0 0 0 0 0.446586277   0 0 0 0 0.162176853   0 0 0 0 0.368513102  0 0 0 0.2 0" type="matrix" in="shadowBlurOuter1"></feColorMatrix>
        </filter>
        <linearGradient x1="54.7122508%" y1="37.7867954%" x2="16.9705579%" y2="89.6079401%" id="linearGradient-3">
            <stop stop-color="#AA5397" offset="0%"></stop>
            <stop stop-color="#72295E" offset="100%"></stop>
        </linearGradient>
        <linearGradient x1="54.7122508%" y1="38.3916811%" x2="16.9705579%" y2="87.6462702%" id="linearGradient-4">
            <stop stop-color="#AA5397" offset="0%"></stop>
            <stop stop-color="#72295E" offset="100%"></stop>
        </linearGradient>
    </defs>
    <g id="propuesta-2" stroke="none" stroke-width="1" fill="none" fill-rule="evenodd">
        <g id="servicios_estudios" transform="translate(-58.000000, -1122.000000)">
            <g id="CARD_ESTUDIO-7" transform="translate(42.000000, 1100.000000)">
                <g id="1">
                    <g id="estudio/electroencefalograma" transform="translate(20.000000, 24.000000)">
                        <g id="Oval" transform="translate(30.000000, 30.000000) scale(-1, 1) translate(-30.000000, -30.000000) ">
                            <use fill="black" fill-opacity="1" filter="url(#filter-2)" xlink:href="#path-1"></use>
                            <use fill="#FFFFFF" fill-rule="evenodd" xlink:href="#path-1"></use>
                        </g>
                        <g id="Group" transform="translate(9.000000, 9.000000)">
                            <circle id="Oval" stroke="url(#linearGradient-3)" cx="21" cy="21" r="21"></circle>
                            <path d="M24.0199703,20.3463439 C28.5137132,23.345885 25.0925853,18.8311025 25.0925853,16.4244071 C25.0925853,14.0177117 22.7147261,14.3407487 19.104683,14.3407487 C15.4946399,14.3407487 15.0324845,17.5038777 15.0324845,19.9105731 C15.0324845,22.3172685 19.5262274,17.3468027 24.0199703,20.3463439 Z" id="Oval" fill="#EFE1FF"></path>
                            <ellipse id="Oval" fill="#9B79C1" cx="20.5642292" cy="23.6146245" rx="6.53656126" ry="4.35770751"></ellipse>
                            <path d="M16.1543648,14.724458 C15.813575,14.4731001 15.5990873,14.1155866 15.530515,13.6276691 C15.2862459,11.8896042 17.99824,9.66718801 19.9782861,9.38891068 C21.7745853,9.13645729 23.4357075,10.3843376 23.6876818,12.1772275 C23.9316018,13.9128088 22.8333814,14.7083424 20.7667039,14.9987949 L20.7190425,15.0054972 C19.9247225,15.1172284 19.4936148,15.1686636 18.9631511,15.2009587 C18.2967879,15.2415275 17.7095428,15.2271352 17.2169804,15.1385382 C17.2301495,15.2318646 17.2232481,15.3295164 17.1931075,15.4254208 L15.8039789,19.8454918 C17.078205,19.0669785 18.7501443,18.6032609 20.5642292,18.6032609 C22.4185898,18.6032609 24.124423,19.0877977 25.4087584,19.8978084 L24.1815532,15.4015549 C24.0864978,15.0532897 24.291765,14.6939075 24.6400301,14.5988522 C24.9882952,14.5037969 25.3476774,14.709064 25.4427328,15.0573291 L26.4477249,18.7394349 C26.4502389,18.2817642 26.4615329,17.9890119 26.4958012,17.6403722 C26.6459943,16.1123325 27.1898539,15.1170949 28.4381327,15.1170949 C30.0656625,15.1170949 31.8216403,17.4347871 31.8216403,19.026314 C31.8216403,20.5121532 30.4053182,21.6536561 28.7191293,21.6536561 C27.986979,21.6536561 27.4535577,21.4551503 27.0883273,21.0864841 L27.2871192,21.8148207 C27.5792034,22.3519856 27.7438036,22.9369214 27.7539479,23.5539113 C28.7952116,22.5918579 30.3615654,21.9913319 32.0919224,21.9913319 C32.8629182,21.9913319 33.5231294,21.7704447 34.5823392,21.238388 C35.0991284,20.9787972 35.4993104,20.782716 35.829818,20.6401097 C35.487251,20.7328079 35.1280484,20.7821146 34.7575477,20.7821146 C32.4802698,20.7821146 31.6763889,19.1567024 31.6763889,16.1810866 C31.6763876,16.1452449 31.6763876,16.1452449 31.6763835,16.1088468 C31.6762504,14.9151027 31.688803,14.271018 31.7464502,13.4890279 C31.95262,10.692311 32.6395256,9.01630435 34.3360528,9.01630435 C36.6274166,9.01630435 39.0844862,13.3403764 39.0844862,16.1810866 C39.0844862,18.0662445 38.0158214,19.6956829 36.4784697,20.4045012 C36.8924517,20.2933463 37.2139663,20.305955 37.6507356,20.3979132 C38.0830806,20.48894 38.4891011,20.700092 38.873036,21.0343098 C41.3707858,23.2086166 39.4623326,27.4762926 34.9778831,29.5665949 C30.822932,31.5033107 26.5904318,29.5258829 26.4506923,26.5117416 C25.142491,27.804109 22.9793274,28.6259881 20.5642292,28.6259881 C16.6358333,28.6259881 13.3740119,26.4514405 13.3740119,23.6146245 C13.3740119,23.5447254 13.3759922,23.4752283 13.3799141,23.406156 C13.3671465,23.3134715 13.3741703,23.2165722 13.4040827,23.1213939 L13.4098681,23.1029851 C13.4669865,22.6985845 13.5911999,22.3104972 13.7742585,21.9435306 L15.9459369,15.0334632 C15.9854695,14.9076741 16.0595132,14.8022892 16.1543648,14.724458 Z M26.4456426,23.6967608 L26.0730422,22.3316219 C25.2420554,20.9464005 23.1131514,19.9105731 20.5642292,19.9105731 C17.9361375,19.9105731 15.7545606,21.0117455 14.9817675,22.4616876 L14.6936798,23.3783546 C14.6854832,23.456648 14.6813241,23.5354364 14.6813241,23.6146245 C14.6813241,25.5911993 17.272539,27.3186759 20.5642292,27.3186759 C23.8102422,27.3186759 26.3750852,25.6388095 26.4456426,23.6967608 Z M9.88784585,7.85542287 C9.88784585,5.80822093 11.9695669,4.23150425 14.4631056,4.23150425 C15.0393594,4.23150425 15.5395773,4.06110325 16.3527528,3.64520649 C17.7695531,2.92058719 18.1025879,2.79728829 18.8619442,2.96007149 C19.2272316,3.03837817 19.5683213,3.21898794 19.8874779,3.50186711 C21.9355219,5.31711746 20.3920675,8.8313386 16.7939274,10.5390064 C13.3853304,12.1567175 9.88784585,10.4377733 9.88784585,7.85542287 Z M19.0203443,4.4802048 C18.863909,4.34155093 18.724145,4.26754479 18.5879212,4.23834249 C18.2648213,4.16907956 18.0281491,4.25670229 16.9480356,4.80912385 C15.9646327,5.31208307 15.2990491,5.53881651 14.4631056,5.53881651 C12.6249606,5.53881651 11.1951581,6.62176345 11.1951581,7.85542287 C11.1951581,9.39607502 13.6308009,10.593145 16.2334042,9.35795638 C19.1092085,7.99310724 20.1948661,5.52122301 19.0203443,4.4802048 Z M34.4255694,28.3816836 C38.1806856,26.6313398 39.618375,23.4163841 38.0146773,22.0203552 C37.7933135,21.8276567 37.5873384,21.7205388 37.3813964,21.6771793 C36.907011,21.5773013 36.5922628,21.6917491 35.1691493,22.4066 C33.9418047,23.0231133 33.1182686,23.2986441 32.0919224,23.2986441 C29.6615192,23.2986441 27.7544466,24.7172868 27.7544466,26.3578161 C27.7544466,28.4115622 31.0002271,29.9783124 34.4255694,28.3816836 Z M9.35563369,28.6500075 C6.15557463,30.7382744 2.91551383,28.5486894 2.91551383,25.4862746 C2.91551383,23.0805364 4.79824151,21.1197904 7.13426415,21.1197904 C7.60250525,21.1197904 8.03311438,20.9180936 8.74669917,20.4162718 C10.0981878,19.4658501 10.4087952,19.3077311 11.1934621,19.5390186 C11.5579992,19.6464691 11.8826801,19.8828606 12.1766773,20.2411577 C13.923081,22.3695151 12.5914549,26.5384032 9.35563369,28.6500075 Z M8.64118587,27.555188 C11.2907687,25.8261462 12.3492445,22.5124026 11.1660428,21.0704243 C11.0276838,20.901805 10.915225,20.8199267 10.8238427,20.792991 C10.6244586,20.7342208 10.4171505,20.8397538 9.49871753,21.4856332 C8.57904916,22.1323813 7.94983881,22.4271026 7.13426415,22.4271026 C5.53239249,22.4271026 4.22282609,23.7909362 4.22282609,25.4862746 C4.22282609,27.5776132 6.37651742,29.0330458 8.64118587,27.555188 Z M28.2648577,14.8762415 C25.8308717,15.1320637 23.6718904,12.9502371 23.3695179,10.0733546 C23.296591,9.37950102 23.0174645,8.80247105 22.392134,7.88958736 C21.3308412,6.34026757 21.1401978,5.97223857 21.2453867,5.08682572 C21.2955873,4.66426917 21.4705102,4.25715045 21.7705364,3.86118381 C23.6828479,1.33736606 28.0900899,2.64707453 30.6110915,6.58063326 C33.0049846,10.3158627 31.3386857,14.5531692 28.2648577,14.8762415 Z M22.8125195,4.65070048 C22.6472676,4.86879562 22.5650657,5.06011367 22.5435698,5.24105258 C22.4940097,5.65821746 22.635952,5.9322311 23.4706684,7.15078514 C24.2095538,8.22944103 24.5681416,8.97073902 24.6696686,9.93670322 C24.9024047,12.1510394 26.4835818,13.7489479 28.1282064,13.5760909 C30.1798989,13.3604493 31.405709,10.2432816 29.5104277,7.28604415 C27.4120727,4.01194759 24.0528898,3.01369283 22.8125195,4.65070048 Z M10.7334047,35.5476422 C8.0847865,31.9885011 9.45144686,27.6452814 12.4952508,27.1085767 C14.9054625,26.6835913 17.2113811,28.7095002 17.7136982,31.5582824 C17.8348483,32.2453586 18.1535464,32.8015121 18.8410332,33.6685512 C20.0078158,35.1400649 20.2236672,35.4938988 20.1804979,36.3844924 C20.1598956,36.8095214 20.0137979,37.2278504 19.7421238,37.6437813 C18.0105232,40.2948473 13.5226564,39.2957628 10.7334047,35.5476422 Z M11.7821804,34.7671713 C14.1038133,37.8869184 17.5244481,38.6484167 18.647605,36.9288729 C18.7972409,36.6997817 18.8658968,36.5031955 18.8747187,36.3211979 C18.8950581,35.9015921 18.7343473,35.6381473 17.8166622,34.4807885 C17.0043335,33.4563022 16.5949089,32.7418238 16.426247,31.7852948 C16.0396135,29.5925875 14.3508236,28.1088688 12.7222632,28.3960279 C10.6906109,28.754263 9.6852294,31.9493456 11.7821804,34.7671713 Z M34.7575477,19.4748024 C36.4143116,19.4748024 37.7771739,18.0102473 37.7771739,16.1810866 C37.7771739,13.9665856 35.7071279,10.3236166 34.3360528,10.3236166 C33.6743672,10.3236166 33.2065058,11.4651693 33.0502246,13.5851402 C32.9956682,14.3252046 32.9835661,14.9461689 32.9836957,16.1087011 C32.9836998,16.1451219 32.9836998,16.1451219 32.9837012,16.1810866 C32.9837012,18.5265501 33.4526787,19.4748024 34.7575477,19.4748024 Z M10.623376,10.2511356 C12.1702307,11.5957958 11.6272762,13.2641565 9.66848728,15.5174854 C9.64496816,15.5445428 9.64496816,15.5445428 9.62109041,15.5720163 C8.83946636,16.4713455 8.40989447,16.9491535 7.86166263,17.5047921 C5.86900397,19.5243724 4.35083285,20.3883485 3.17697241,19.3679271 C1.62327705,18.0173204 2.86991333,13.3749836 4.73528545,11.2291184 C6.38378172,9.33274042 9.01093992,8.84946623 10.623376,10.2511356 Z M9.76570204,11.2377767 C8.75343354,10.3578251 6.93394382,10.692526 5.72192653,12.0867925 C4.2707817,13.7561436 3.21913234,17.6723705 4.03464642,18.3812861 C4.38629953,18.6869734 5.46362544,18.073878 6.93107156,16.5866061 C7.45398118,16.0566318 7.87030503,15.5935595 8.63436737,14.7144366 C8.65825792,14.6869484 8.65825792,14.6869484 8.6818462,14.6598114 C10.2139994,12.8972707 10.5361163,11.9074876 9.76570204,11.2377767 Z M25.3111552,29.0773222 C27.7309521,29.5916659 28.3717315,31.1659468 27.8443678,33.6469978 C27.8381663,33.6761811 27.8381663,33.6761811 27.8318658,33.7058451 C27.6234521,34.6870918 27.4963669,35.2151796 27.2930129,35.8495811 C26.5735121,38.0942017 25.4632123,39.3562839 23.6984949,38.9811816 C21.2584797,38.4625404 19.2390448,34.3090006 19.7456598,31.9255643 C20.2066963,29.7565579 22.7196606,28.526483 25.3111552,29.0773222 Z M25.0393497,30.3560666 C23.0951507,29.9428143 21.3188055,30.8123204 21.0244041,32.1973698 C20.6551546,33.9345524 22.3161375,37.3508341 23.9703004,37.7024373 C24.8417889,37.8876779 25.5105532,37.1274908 26.0480941,35.4505292 C26.2338815,34.8709301 26.3535394,34.3737057 26.5530799,33.4342351 C26.5593869,33.4045406 26.5593869,33.4045406 26.5656234,33.3751923 C26.9601886,31.5189092 26.6239736,30.6928888 25.0393497,30.3560666 Z M28.7191293,20.3463439 C29.7378708,20.3463439 30.5143281,19.7205482 30.5143281,19.026314 C30.5143281,18.0902354 29.2522289,16.4244071 28.4381327,16.4244071 C28.1142696,16.4244071 27.8882846,16.8379491 27.7968437,17.7682534 C27.7621796,18.12092 27.7543622,18.4217578 27.7544467,18.9900605 L27.7544503,19.026314 C27.7544503,20.0388274 27.9572351,20.3463439 28.7191293,20.3463439 Z M28.2523159,34.4336493 C27.7099244,33.0206712 28.5370501,32.1383569 30.2808927,31.4689584 L30.3202055,31.4538643 C30.9760522,31.2020262 31.3336914,31.0725183 31.7793332,30.9373801 C33.483776,30.4205182 34.6538278,30.4383798 35.0820612,31.553966 C35.6233561,32.9640874 33.667433,35.3034943 31.9987205,35.944053 C30.4864123,36.5245737 28.8022169,35.8661903 28.2523159,34.4336493 Z M29.472797,33.9651505 C29.7537764,34.6971267 30.6680439,35.0545309 31.5302217,34.7235718 C32.6145195,34.3073489 34.0702856,32.5661612 33.8615801,32.0224648 C33.8068947,31.8800045 33.2060607,31.8708323 32.1587082,32.1884357 C31.7524792,32.3116221 31.4161383,32.4334175 30.7888377,32.6742943 L30.7493915,32.6894396 C29.595435,33.132402 29.2816305,33.4671446 29.472797,33.9651505 Z M22.3930922,12.3591702 C22.2417234,11.2821249 21.2424056,10.5314102 20.1602288,10.6835003 C18.8029321,10.8742559 16.705293,12.5932225 16.8251046,13.4457264 C16.8720887,13.780036 17.5692289,13.9760892 18.8837079,13.8960625 C19.3692263,13.8665037 19.7757279,13.8180042 20.5369452,13.7109294 L20.5847612,13.7042054 C22.030947,13.5009572 22.5052711,13.1573643 22.3930922,12.3591702 Z M14.1232245,13.4557569 C14.8586142,13.3524046 15.3536164,13.8392849 15.5052943,14.5653115 C15.6100694,15.0668318 15.5639352,15.7069734 15.3942689,16.3446107 C14.981226,17.8969028 14.0166981,19.0228764 12.7601201,18.731247 C12.6121457,18.6969048 12.4567391,18.6766908 12.2916924,18.6694761 C11.9260264,18.6534917 11.6073188,18.6904223 10.9745963,18.8014439 C10.2232815,18.9332744 9.96586568,18.9610002 9.6078977,18.8934864 C9.0063462,18.7800321 8.62423817,18.3492401 8.53005219,17.679072 C8.28579491,15.9410911 11.8818657,13.7707593 14.1232245,13.4557569 Z M14.2599071,14.7570689 C12.6509525,15.0086373 9.72417764,16.7822899 9.82464177,17.4971293 C9.84332023,17.6300335 9.81934726,17.6030061 9.85018899,17.608823 C9.98483001,17.6342166 10.1857394,17.612577 10.7486587,17.5138036 C11.4716689,17.3869396 11.8593511,17.3420164 12.3487845,17.363411 C12.5915159,17.3740216 12.826418,17.4045757 13.0556689,17.4577808 C13.3873686,17.5347624 13.8768215,16.9633833 14.1309157,16.0084503 C14.2520903,15.5530534 14.2839002,15.1116708 14.22561,14.8326568 C14.2103438,14.7595832 14.2215467,14.7468709 14.2447224,14.747076 L14.2599071,14.7570689 Z" id="Combined-Shape" fill="url(#linearGradient-4)" fill-rule="nonzero"></path>
                        </g>
                    </g>
                </g>
            </g>
        </g>
    </g>
</svg>