<?xml version="1.0" encoding="UTF-8"?>
<svg width="68px" height="68px" viewBox="0 0 68 68" version="1.1" xmlns="http://www.w3.org/2000/svg" xmlns:xlink="http://www.w3.org/1999/xlink">
    <!-- Generator: sketchtool 53 (72520) - https://sketchapp.com -->
    <title>6462DD47-20D8-4F98-8B06-A12173032C85</title>
    <desc>Created with sketchtool.</desc>
    <defs>
        <circle id="path-1" cx="30" cy="30" r="30"></circle>
        <filter x="-11.7%" y="-8.3%" width="123.3%" height="123.3%" filterUnits="objectBoundingBox" id="filter-2">
            <feOffset dx="0" dy="2" in="SourceAlpha" result="shadowOffsetOuter1"></feOffset>
            <feGaussianBlur stdDeviation="2" in="shadowOffsetOuter1" result="shadowBlurOuter1"></feGaussianBlur>
            <feColorMatrix values="0 0 0 0 0.446586277   0 0 0 0 0.162176853   0 0 0 0 0.368513102  0 0 0 0.2 0" type="matrix" in="shadowBlurOuter1"></feColorMatrix>
        </filter>
        <linearGradient x1="54.7122508%" y1="38.5247414%" x2="16.9705579%" y2="87.2147501%" id="linearGradient-3">
            <stop stop-color="#AA5397" offset="0%"></stop>
            <stop stop-color="#72295E" offset="100%"></stop>
        </linearGradient>
        <linearGradient x1="54.7122508%" y1="38.9222634%" x2="16.9705579%" y2="85.9255693%" id="linearGradient-4">
            <stop stop-color="#AA5397" offset="0%"></stop>
            <stop stop-color="#72295E" offset="100%"></stop>
        </linearGradient>
        <linearGradient x1="51.8339367%" y1="37.7867954%" x2="37.1454412%" y2="89.6079401%" id="linearGradient-5">
            <stop stop-color="#AA5397" offset="0%"></stop>
            <stop stop-color="#72295E" offset="100%"></stop>
        </linearGradient>
    </defs>
    <g id="propuesta-2" stroke="none" stroke-width="1" fill="none" fill-rule="evenodd">
        <g id="servicios_estudios" transform="translate(-700.000000, -1122.000000)">
            <g id="CARD_ESTUDIO-8-Copy" transform="translate(684.000000, 1100.000000)">
                <g id="1">
                    <g id="estudio/electroencefalograma" transform="translate(20.000000, 24.000000)">
                        <g id="Oval">
                            <use fill="black" fill-opacity="1" filter="url(#filter-2)" xlink:href="#path-1"></use>
                            <use fill="#FFFFFF" fill-rule="evenodd" xlink:href="#path-1"></use>
                        </g>
                        <path d="M4.74116628,23.4017438 L3.24592726,33.4981565 C3.17233219,33.9950979 2.57881131,34.0732235 2.40914907,33.6083023 L0,27.2038549 L0.223703442,25.5993791 L2.63445182,31.6199725 L4.44135595,19.4190804 C4.52743067,18.8378718 5.26404205,18.8708706 5.31040328,19.4580121 L6.55809644,35.2594123 L7.92081787,28.3037358 C8.00582179,27.8698542 8.50327162,27.7663553 8.71550366,28.1383943 L10.6464277,31.5232698 L12.8482723,28.7171398 C13.0667292,28.4387284 13.4640983,28.522096 13.5826608,28.8712136 L15.1758256,33.5624288 L17.2530954,23.5697779 C17.3567679,23.0710643 17.9676322,23.0486656 18.0988152,23.5387677 L20.6330566,31.5232698 L19.7947022,31.8190125 L17.7328536,25.5993791 L15.7033089,35.3624491 C15.6035376,35.8423964 15.0243232,35.8881764 14.8681989,35.4284547 L13.0238815,29.9976984 L10.9171806,32.682573 C10.7246916,32.9278896 10.3820729,32.8976524 10.224507,32.6214422 L8.5492189,29.6846919 L6.80121327,38.6069569 C6.69149403,39.1669917 5.98179041,39.1136184 5.93664995,38.5419372 L4.74116628,23.4017438 Z" id="Path-6" fill="url(#linearGradient-3)" fill-rule="nonzero"></path>
                        <path d="M43.8254844,23.4017438 L42.3036536,33.4981565 C42.2287497,33.9950979 41.6246735,34.0732235 41.451994,33.6083023 L39,27.2038549 L39.2276818,25.5993791 L41.6813036,31.6199725 L43.5203421,19.4190804 C43.6079476,18.8378718 44.3576591,18.8708706 44.4048448,19.4580121 L45.6747272,35.2594123 L47.0616836,28.3037358 C47.1481993,27.8698542 47.6544959,27.7663553 47.8705023,28.1383943 L49.8357664,31.5232698 L52.0767692,28.7171398 C52.2991112,28.4387284 52.7035472,28.522096 52.8242181,28.8712136 L54.4457162,33.5624288 L56.5599287,23.5697779 C56.6654449,23.0710643 57.287173,23.0486656 57.4206889,23.5387677 L60,31.5232698 L59.1467361,31.8190125 L57.048219,25.5993791 L54.9825804,35.3624491 C54.8810348,35.8423964 54.2915194,35.8881764 54.1326186,35.4284547 L52.2555014,29.9976984 L50.1113344,32.682573 C49.9154222,32.9278896 49.5667102,32.8976524 49.4063421,32.6214422 L47.7012603,29.6846919 L45.9221677,38.6069569 C45.8104972,39.1669917 45.088172,39.1136184 45.0422288,38.5419372 L43.8254844,23.4017438 Z" id="Path-6-Copy" fill="url(#linearGradient-4)" fill-rule="nonzero" transform="translate(49.500000, 29.000000) scale(-1, 1) translate(-49.500000, -29.000000) "></path>
                        <path d="M26.5,22 L33.5,22 C34.8807119,22 36,23.1192881 36,24.5 L35.9999922,25.3650106 C35.9999922,26.4147759 35.3441692,27.352725 34.3581943,27.7130871 C32.9054629,28.2440434 31.4527314,28.5095215 30,28.5095215 C28.5472643,28.5095215 27.0945286,28.2440418 25.6417928,27.7130824 L25.6417956,27.713075 C24.6558219,27.3527122 24,26.4147638 24,25.3649994 L24,24.5 C24,23.1192881 25.1192881,22 26.5,22 Z" id="Rectangle" fill="#EFE1FF"></path>
                        <polygon id="Path" fill="#EFE1FF" fill-rule="nonzero" points="22.75 17.25 37.25 17.25 37.25 12.5117555 30 9.67264413 22.75 12.5117555"></polygon>
                        <path d="M25.5008506,24.458374 L34.4991494,24.458374 C34.4773259,23.9253932 34.0383409,23.5 33.5,23.5 L26.5,23.5 C25.9616591,23.5 25.5226741,23.9253932 25.5008506,24.458374 Z M25.5043465,25.458374 C25.5399731,25.8397255 25.7918222,26.170866 26.1567124,26.3042326 C27.4470287,26.7758294 28.725819,27.0095215 30,27.0095215 C31.2741773,27.0095215 32.5529637,26.7758308 33.8432761,26.3042368 C34.2081715,26.1708718 34.4600195,25.839735 34.4956457,25.458374 L25.5043465,25.458374 Z M22.75,18.75 L22.75,22 C22.75,23.6358441 23.2917783,25.145149 24.2056905,26.3582706 C24.0725585,26.0509781 24,25.7141743 24,25.3649994 L24,24.5 C24,23.1192881 25.1192881,22 26.5,22 L33.5,22 C34.8807119,22 36,23.1192881 36,24.5 L35.9999922,25.3650106 C35.9999922,25.7141851 35.9274339,26.0509885 35.794302,26.3582805 C36.7082188,25.1451572 37.25,23.6358485 37.25,22 L37.25,20.1411133 C37.25,19.7268997 37.5857864,19.3911133 38,19.3911133 C38.4142136,19.3911133 38.75,19.7268997 38.75,20.1411133 L38.75,22 C38.75,26.8324916 34.8324916,30.75 30,30.75 C25.1675084,30.75 21.25,26.8324916 21.25,22 L21.25,16.2011719 L21.25,12 C21.25,11.6913345 21.439107,11.41419 21.7265205,11.3016384 L29.7265205,8.16882587 C29.9023399,8.09997471 30.0976601,8.09997471 30.2734795,8.16882587 L38.2734795,11.3016384 C38.560893,11.41419 38.75,11.6913345 38.75,12 L38.75,18 C38.75,18.4142136 38.4142136,18.75 38,18.75 L22.75,18.75 Z M22.75,17.25 L37.25,17.25 L37.25,12.5117555 L30,9.67264413 L22.75,12.5117555 L22.75,16.2011719 L22.75,17.25 Z M25.4179465,27.6187662 C26.6668227,28.638437 28.2619923,29.25 30,29.25 C31.7380068,29.25 33.3331755,28.6384377 34.5820515,27.6187678 C34.5095306,27.6535538 34.4348606,27.6850665 34.3581943,27.7130871 C32.9054629,28.2440434 31.4527314,28.5095215 30,28.5095215 C28.5472643,28.5095215 27.0945286,28.2440418 25.6417928,27.7130824 C25.5651304,27.6850625 25.4904639,27.6535508 25.4179465,27.6187662 Z M24.0035829,33.0545507 C23.3810472,32.7449965 22.6952514,32.5839 22,32.5839 C19.5147186,32.5839 17.5,34.5986186 17.5,37.0839 L17.5,49 C17.5,50.3807119 18.6192881,51.5 20,51.5 L40,51.5 C41.3807119,51.5 42.5,50.3807119 42.5,49 L42.5,37.1309881 C42.5,36.4291408 42.3358333,35.7370229 42.0206188,35.1099428 C40.9044263,32.8894163 38.1994811,31.9941768 35.9789547,33.1103693 L30.7496095,35.7390054 C30.3278032,35.9510349 29.8307891,35.952113 29.4080668,35.7419155 L24.0035829,33.0545507 Z M24.6714438,31.7114343 L30.0759277,34.3987991 L35.3052729,31.770163 C38.2659748,30.2819063 41.8725684,31.475559 43.3608251,34.436261 C43.7811111,35.2723679 44,36.1951916 44,37.1309881 L44,49 C44,51.209139 42.209139,53 40,53 L20,53 C17.790861,53 16,51.209139 16,49 L16,37.0839 C16,33.7701915 18.6862915,31.0839 22,31.0839 C22.9270018,31.0839 23.8413962,31.2986954 24.6714438,31.7114343 Z" id="Combined-Shape" fill="url(#linearGradient-5)" fill-rule="nonzero"></path>
                        <path d="M30.5,13 L31.5,13 L31.5,14 L30.5,14 L30.5,16 L29.5,16 L29.5,14 L28.5,14 L28.5,13 L29.5,13 L29.5,12 L30.5,12 L30.5,13 Z" id="Combined-Shape" fill="#9B79C1"></path>
                    </g>
                </g>
            </g>
        </g>
    </g>
</svg>