<?xml version="1.0" encoding="UTF-8"?>
<svg width="68px" height="68px" viewBox="0 0 68 68" version="1.1" xmlns="http://www.w3.org/2000/svg" xmlns:xlink="http://www.w3.org/1999/xlink">
    <!-- Generator: sketchtool 53 (72520) - https://sketchapp.com -->
    <title>96C18F42-DBCC-4D6E-A4EF-28C86BA6E7F6</title>
    <desc>Created with sketchtool.</desc>
    <defs>
        <circle id="path-1" cx="30" cy="30" r="30"></circle>
        <filter x="-11.7%" y="-8.3%" width="123.3%" height="123.3%" filterUnits="objectBoundingBox" id="filter-2">
            <feOffset dx="0" dy="2" in="SourceAlpha" result="shadowOffsetOuter1"></feOffset>
            <feGaussianBlur stdDeviation="2" in="shadowOffsetOuter1" result="shadowBlurOuter1"></feGaussianBlur>
            <feColorMatrix values="0 0 0 0 0.446586277   0 0 0 0 0.162176853   0 0 0 0 0.368513102  0 0 0 0.2 0" type="matrix" in="shadowBlurOuter1"></feColorMatrix>
        </filter>
        <linearGradient x1="51.6135565%" y1="37.7867954%" x2="38.6901455%" y2="89.6079401%" id="linearGradient-3">
            <stop stop-color="#AA5397" offset="0%"></stop>
            <stop stop-color="#72295E" offset="100%"></stop>
        </linearGradient>
    </defs>
    <g id="propuesta-2" stroke="none" stroke-width="1" fill="none" fill-rule="evenodd">
        <g id="servicios_estudios" transform="translate(-379.000000, -1122.000000)">
            <g id="CARD_ESTUDIO-8" transform="translate(363.000000, 1100.000000)">
                <g id="1">
                    <g id="estudio/electroencefalograma" transform="translate(20.000000, 24.000000)">
                        <g id="Oval" transform="translate(30.000000, 30.000000) scale(-1, 1) translate(-30.000000, -30.000000) ">
                            <use fill="black" fill-opacity="1" filter="url(#filter-2)" xlink:href="#path-1"></use>
                            <use fill="#FFFFFF" fill-rule="evenodd" xlink:href="#path-1"></use>
                        </g>
                        <path d="M19.0380545,17.6408187 C19.0380545,14.7257212 20.1163037,23.9390211 24.2843499,26.6636304 C28.4523961,29.3882398 30.4496965,56.8990016 29.1249947,59.5131836 C29.1249947,59.7357146 29.9658063,59.8469801 31.6474295,59.8469801 C33.7889534,38.1645631 33.4753406,26.3912884 30.7065911,24.5271558 C23.2482309,20.0065918 25.5317798,15.0005132 25.5317798,15.0005132 C25.5317798,15.0005132 19.0380545,17.6408187 19.0380545,17.6408187 Z" id="Path-50" fill="#EFE1FF"></path>
                        <path d="M24.8032915,15.7864758 C23.6326245,16.7712352 22.4814149,17.4039163 21.0725637,17.726342 C20.5593642,17.8437913 20.0571883,17.9305026 19.5676992,17.9858553 C20.3967853,21.9360714 22.0432537,24.5927106 24.4944223,25.9934613 C27.9352283,27.9597526 29.9926835,42.006268 29.9926835,52.0814897 C29.9926835,55.2545999 29.8691625,57.8136456 29.6209883,59.7622509 C29.5861006,60.0361806 28.5941135,59.9098412 28.6290012,59.6359115 C28.8710786,57.7351769 28.9926835,55.2158283 28.9926835,52.0814897 C28.9926835,42.53199 26.9439538,28.5450443 23.9982612,26.8616918 C21.2425552,25.2869095 19.434505,22.3385963 18.5609919,18.0557389 C16.0644984,18.1153051 13.9571567,17.2815163 12.4867264,15.4619618 C10.0007684,17.1217603 7.460074,17.0543576 4.97856158,15.2597536 C4.6627417,15.252534 4.31182099,15.212215 3.93982019,15.1280384 C4.12833103,14.7984214 4.32291531,14.4727246 4.52342053,14.1511005 C4.74628632,14.1838365 4.95325073,14.1966153 5.13749166,14.1936055 C5.25879818,14.1897279 5.37780066,14.2273315 5.47485345,14.3002085 C7.63445997,15.9218595 9.73077996,16.0159048 11.8830461,14.5823445 C10.3733635,11.8699543 11.603639,8.37394597 14.080335,7.11385562 C14.1453966,7.08075366 14.2116626,7.0486892 14.2791338,7.01766008 C14.9406441,6.10328068 15.0743447,5.17871934 14.682033,4.20001883 C15.0296331,3.99319669 15.3817678,3.79319959 15.7382525,3.60021235 C16.2022855,4.58935452 16.2587496,5.56630077 15.9084789,6.51064538 C17.0954743,6.28141201 18.5198863,6.25246112 20.1832293,6.41783336 C20.4764025,6.44698111 20.6904374,6.70827386 20.6612896,7.00144706 C20.6321419,7.29462025 20.3708491,7.50865516 20.0776759,7.47950741 C17.6331287,7.23646659 15.7932885,7.43939894 14.5641374,8.0647649 C12.499082,9.11542128 11.5047616,12.2178337 13.0379277,14.4199661 C13.0388937,14.4213383 13.0398523,14.4227137 13.0408036,14.4240921 C14.6752715,16.7669588 17.423342,17.4670006 20.8345477,16.6863219 C22.2491482,16.3625805 23.378207,15.6722313 24.6162698,14.5284502 C24.804847,14.3542335 24.9916797,14.1743967 25.2292706,13.9402321 C25.2198745,13.9494927 25.6810443,13.4928047 25.807186,13.3699058 C26.273088,12.915981 26.6040626,12.6268934 26.9424393,12.3975895 C27.9124739,11.7402373 29.1984507,11.5630763 30.7871975,11.8391761 C30.7667725,11.1531997 31.0637269,10.4358643 31.690496,9.70681665 C31.8825616,9.4834091 32.2193691,9.45800139 32.4427766,9.65006695 C32.6661842,9.8421325 32.6915919,10.17894 32.4995263,10.4023476 C31.9379419,11.0555734 31.739537,11.6398529 31.9308316,12.1970858 C31.9955172,12.2724685 32.0385932,12.3651608 32.0537722,12.4645268 C32.3161481,12.9186045 32.847446,13.3588293 33.6626219,13.8088304 C33.9205501,13.9512143 34.0142171,14.2757314 33.8718332,14.5336595 C33.7294493,14.7915876 33.4049322,14.8852547 33.1470041,14.7428708 C32.1906109,14.2149136 31.5184839,13.6278436 31.1422084,12.9999647 C29.5423656,12.62764 28.348103,12.7338357 27.5409577,13.2808047 C27.2674938,13.4661199 26.9758428,13.7208605 26.5517175,14.1340825 C26.4435657,14.239454 26.0740346,14.6051917 25.9936398,14.6848029 C25.9947541,14.7248812 25.9910308,14.7657408 25.9820135,14.806667 C25.6086126,16.5013824 25.6593102,17.9712594 26.139808,19.2284066 C26.2099974,19.2210583 26.2828049,19.227601 26.3544377,19.2500194 C29.0634318,20.0978324 30.6680022,19.4685661 31.3954645,17.2958791 C29.8728055,17.2445542 28.8949816,16.8070887 28.3821385,16.2542463 C28.1817721,16.0382523 28.1944407,15.7007255 28.4104348,15.5003591 C28.6264288,15.2999927 28.9639556,15.3126614 29.164322,15.5286554 C29.2612151,15.6331057 29.539002,15.8152348 30.0427382,15.9760393 C30.9456161,16.2642594 32.1660207,16.3190952 33.7508199,16.0290991 C37.1497568,15.4071413 38.6938623,10.6607556 36.2305106,8.46920338 C33.9470298,6.43767561 31.6899387,6.26991557 28.2809849,7.35457287 C26.214931,8.01194772 24.4166665,7.5818004 22.9780561,6.0773548 C22.7744404,5.86442107 22.7819942,5.52674106 22.9949279,5.3231254 C23.2078616,5.11950973 23.5455417,5.12706352 23.7491573,5.33999725 C24.9017587,6.54534515 26.2739171,6.87356731 27.9574971,6.33788761 C27.9638826,6.33585587 27.970265,6.33382817 27.9766441,6.33180452 C27.0080368,5.29648386 27.1494008,3.76975909 28.3218614,1.90845267 C28.4788887,1.65916857 28.8082691,1.5843796 29.0575532,1.74140683 C29.3068373,1.89843406 29.3816263,2.22781447 29.224599,2.47709857 C28.1016711,4.25977073 28.1488114,5.3344676 29.2299923,5.97164585 C29.2323901,5.973059 29.2347729,5.97448799 29.2371405,5.97593261 C32.3124991,5.22659716 34.6346686,5.6214183 36.9396704,7.67209255 C37.2061286,7.90915046 37.4364395,8.1679138 37.6322363,8.44348028 C37.6400182,8.42781241 37.6478461,8.41170818 37.6557003,8.39517395 C38.1122864,7.43398571 38.0564907,6.30605028 37.0980198,5.02784912 C35.9799043,3.5367487 34.5602821,3.21756637 32.6761438,4.05623907 C32.4069858,4.17604744 32.0916662,4.05497559 31.9718578,3.78581752 C31.8520494,3.51665944 31.9731213,3.20133984 32.2422794,3.08153147 C33.3319505,2.59649409 34.340733,2.4352701 35.2518674,2.59641363 C34.6829816,1.63995467 34.0530091,0.836664132 33.3602358,0.186082099 C33.9223196,0.248729412 34.4797137,0.326906708 35.0319792,0.420175118 C35.6519239,1.17596748 36.2164586,2.05815042 36.7244412,3.0664175 C36.7510172,3.11916677 36.7680115,3.17423294 36.7760775,3.22963501 C37.1998848,3.52288798 37.5925943,3.90901148 37.9516041,4.38778104 C39.1613006,6.00101258 39.2379637,7.5507914 38.6194061,8.85295601 C38.4782419,9.15012953 38.3330076,9.36568709 38.22482,9.49266984 C38.2164164,9.50253333 38.2077312,9.51201505 38.1987862,9.52111325 C39.2901282,12.4874556 37.3914255,16.4475426 33.9428605,17.0785817 C33.4330012,17.1718788 32.9588998,17.2335907 32.5193426,17.2678327 C31.7376717,20.0657995 29.765377,21.1559548 26.8078869,20.4783451 C27.5016441,21.4594543 28.533501,22.2773394 29.9074077,22.9403896 C32.6115226,24.245401 33.4866558,31.3249957 33.2069265,42.55705 C33.1114047,46.3925656 32.8793584,50.4375031 32.5608319,54.4404496 C32.4493614,55.8413084 32.3350349,57.136975 32.2240986,58.2959412 C32.1852526,58.7017713 32.1495974,59.0615937 32.1179137,59.3714678 C32.0988704,59.5577166 32.0853604,59.6861292 32.0781645,59.7527642 C32.0485162,60.0273104 31.0542966,59.9199444 31.0839449,59.6453982 C31.0909406,59.5806173 31.1042526,59.4540861 31.1231003,59.2697512 C31.1545683,58.961986 31.1900113,58.6043053 31.2286486,58.2006567 C31.3390932,57.0468267 31.4529527,55.7564515 31.5639829,54.3611274 C31.8811726,50.3749801 32.1122166,46.3475142 32.2072365,42.5321532 C32.4719119,31.9045603 31.602179,24.8686521 29.472773,23.8409964 C25.9558534,22.1437237 24.3836562,19.4255338 24.8032915,15.7864758 Z M6.00589132,11.9892366 C6.30019171,11.5977906 6.60384829,11.2137792 6.91652897,10.8375347 C6.94225889,11.1117775 6.97568609,11.3950511 7.01681447,11.6874316 C7.05785364,11.9791779 6.85461536,12.2489538 6.56286907,12.2899929 C6.32561141,12.3233674 6.1028838,12.1951894 6.00589132,11.9892366 Z M11.6689043,6.25009609 C11.9630149,6.02275627 12.2614644,5.80075816 12.5641075,5.58424714 C12.7348057,5.69974622 12.9204252,5.81647926 13.1211895,5.93467512 C13.3750765,6.08414587 13.4597226,6.41113193 13.3102518,6.66501892 C13.1607811,6.91890592 12.833795,7.00355201 12.579908,6.85408126 C12.2446559,6.65670849 11.9408042,6.45519181 11.6689043,6.25009609 Z M19.1699038,2.01440868 C20.891168,1.34784251 22.6892688,0.83549918 24.5472528,0.494332172 C24.7046703,0.622455425 24.7815983,0.835216486 24.7265285,1.04426327 C24.6514768,1.32916212 24.3596793,1.49927686 24.0747804,1.42422516 C22.3604363,0.972610751 21.4088423,1.28706729 21.0021561,2.3657522 C21.3303219,2.80099514 21.627608,3.29867821 21.8932143,3.85877035 C22.0194528,4.12497321 21.9059892,4.44310976 21.6397864,4.56934822 C21.3735835,4.69558668 21.055447,4.58212312 20.9292085,4.31592026 C20.4509834,3.30747254 19.8670553,2.5403993 19.1699038,2.01440868 Z M31.6236098,0.0431869807 C32.1948511,0.536983542 32.6983087,1.16641763 33.1310663,1.92965905 C33.2763816,2.18594714 33.1864204,2.51151099 32.9301323,2.65682626 C32.6738442,2.80214152 32.3482803,2.71218028 32.2029651,2.45589218 C31.4835457,1.18707428 30.5704559,0.374758647 29.4416225,0.00509230524 C29.627341,0.00170233129 29.8134717,1.0658141e-14 30,1.0658141e-14 C30.544716,1.0658141e-14 31.0860412,0.0145175974 31.6236098,0.0431869807 Z M20.6051576,9.95759306 C20.5018982,9.33290934 20.5984066,8.56152726 20.9057887,7.65113531 C21.0000358,7.37199808 21.3027236,7.22211501 21.5818609,7.31636211 C21.8609981,7.41060921 22.0108812,7.71329702 21.9166341,7.99243425 C21.1093542,10.383403 21.9329932,11.1745542 24.8759704,10.7040153 C25.166894,10.6575008 25.4404415,10.8556336 25.4869559,11.1465572 C25.5334704,11.4374807 25.3353376,11.7110283 25.044414,11.7575427 C23.3212112,12.0330576 22.0666842,11.8549777 21.3309297,11.2579845 C21.3008412,11.2533687 21.2707368,11.2461049 21.2408995,11.236053 C18.5677815,10.3354971 17.1274118,11.1911374 16.6287396,13.977425 C16.5768353,14.2674354 16.2996587,14.4604586 16.0096483,14.4085544 C15.7196378,14.3566501 15.5266146,14.0794735 15.5785188,13.7894631 C16.1288672,10.7144396 17.8744964,9.39514303 20.6051576,9.95759306 Z M23.2156624,13.7189825 C22.4984436,15.681101 20.9154988,16.5467215 18.6224364,16.2679773 C18.3299707,16.2324253 18.1217011,15.9665144 18.1572532,15.6740487 C18.1928052,15.381583 18.4587161,15.1733134 18.7511818,15.2088655 C20.5722533,15.4302345 21.6745235,14.827467 22.2136008,13.352696 C22.314748,13.0759843 22.6210631,12.9336612 22.8977748,13.0348084 C23.1744865,13.1359556 23.3168096,13.4422708 23.2156624,13.7189825 Z" id="Combined-Shape" fill="url(#linearGradient-3)" fill-rule="nonzero"></path>
                        <circle id="Oval" stroke="#9B79C1" fill="#EFE1FF" cx="48" cy="22" r="2"></circle>
                        <circle id="Oval-Copy" stroke="#9B79C1" fill="#EFE1FF" cx="46" cy="42" r="2"></circle>
                        <circle id="Oval-Copy-2" stroke="#9B79C1" fill="#EFE1FF" cx="11" cy="40" r="2"></circle>
                        <path d="M12.8641541,38.9509277 L26.5,34.5" id="Path-51" stroke="#9B79C1" stroke-dasharray="2,2"></path>
                        <path d="M31.5,24.5 L46,22" id="Path-52" stroke="#9B79C1" stroke-dasharray="2"></path>
                        <path d="M33.9383656,40.661377 L44.322998,41.6313477" id="Path-53" stroke="#9B79C1" stroke-dasharray="2"></path>
                    </g>
                </g>
            </g>
        </g>
    </g>
</svg>