<?xml version="1.0" encoding="UTF-8"?>
<svg width="68px" height="68px" viewBox="0 0 68 68" version="1.1" xmlns="http://www.w3.org/2000/svg" xmlns:xlink="http://www.w3.org/1999/xlink">
    <!-- Generator: sketchtool 53 (72520) - https://sketchapp.com -->
    <title>DCD198B0-3930-4085-A98B-AD080B73D697</title>
    <desc>Created with sketchtool.</desc>
    <defs>
        <circle id="path-1" cx="30" cy="30" r="30"></circle>
        <filter x="-11.7%" y="-8.3%" width="123.3%" height="123.3%" filterUnits="objectBoundingBox" id="filter-2">
            <feOffset dx="0" dy="2" in="SourceAlpha" result="shadowOffsetOuter1"></feOffset>
            <feGaussianBlur stdDeviation="2" in="shadowOffsetOuter1" result="shadowBlurOuter1"></feGaussianBlur>
            <feColorMatrix values="0 0 0 0 0.446586277   0 0 0 0 0.162176853   0 0 0 0 0.368513102  0 0 0 0.2 0" type="matrix" in="shadowBlurOuter1"></feColorMatrix>
        </filter>
        <linearGradient x1="52.6233084%" y1="37.7867954%" x2="31.6125208%" y2="89.6079401%" id="linearGradient-3">
            <stop stop-color="#72295E" offset="0%"></stop>
            <stop stop-color="#AA5397" offset="100%"></stop>
        </linearGradient>
    </defs>
    <g id="propuesta-2" stroke="none" stroke-width="1" fill="none" fill-rule="evenodd">
        <g id="servicios_estudios" transform="translate(-698.000000, -682.000000)">
            <g id="CARD_ESTUDIO-3" transform="translate(682.000000, 660.000000)">
                <g id="1">
                    <g id="estudio/electroencefalograma" transform="translate(20.000000, 24.000000)">
                        <g id="Oval" transform="translate(30.000000, 30.000000) scale(-1, 1) translate(-30.000000, -30.000000) ">
                            <use fill="black" fill-opacity="1" filter="url(#filter-2)" xlink:href="#path-1"></use>
                            <use fill="#FFFFFF" fill-rule="evenodd" xlink:href="#path-1"></use>
                        </g>
                        <path d="M23.0735751,-0.280398517 C23.0114819,-0.549469216 23.1792703,-0.81793063 23.448341,-0.880023868 C23.7174117,-0.942117106 23.9858731,-0.774328723 24.0479663,-0.505258024 C25.9811146,7.8717178 27.9359395,12.1071717 29.5607707,12.1071717 C31.0827817,12.1071717 32.8943433,8.3908014 34.7064114,1.0352652 C34.7064114,1.0352652 35.6284298,1.47623594 35.6284298,1.47623594 C33.7027202,9.2555661 31.7751606,13.1071717 29.5607707,13.1071717 C27.185602,13.1071717 25.1404269,8.67595899 23.0735751,-0.280398517 Z M36.0479682,33.4946293 C36.1100615,33.7637 35.9422731,34.0321614 35.6732024,34.0942546 C35.4041317,34.1563479 35.1356703,33.9885595 35.073577,33.7194888 C33.1404288,25.342513 31.1856039,21.107059 29.5607726,21.107059 C27.8977845,21.107059 21.1509643,32.7928944 10.265139,55.0257465 C10.1437065,55.2737561 9.84421457,55.3763672 9.59620494,55.2549348 C9.34819532,55.1335023 9.24558423,54.8340104 9.36701667,54.5860007 C20.8074511,31.2204334 27.2237607,20.107059 29.5607726,20.107059 C31.9359414,20.107059 33.9811165,24.5382718 36.0479682,33.4946293 Z M47.4294334,19.4328807 C47.6935021,19.5136417 47.8421023,19.7931814 47.7613412,20.0572501 C47.6805802,20.3213188 47.4010405,20.469919 47.1369718,20.3891579 C38.9157238,17.8748255 34.2703007,17.4500266 33.4578851,18.8571717 C32.6454694,20.2643169 35.3360677,24.0749718 41.6241674,29.9376153 C41.8261429,30.1259249 41.8372212,30.4423135 41.6489115,30.644289 C41.4606018,30.8462644 41.1442132,30.8573427 40.9422378,30.669033 C34.2192305,24.4009082 31.4042753,20.4141282 32.5918597,18.3571717 C33.779444,16.3002152 38.6395744,16.744648 47.4294334,19.4328807 Z M11.6922041,13.7815182 C11.4281354,13.7007572 11.2795352,13.4212175 11.3602962,13.1571488 C11.4410572,12.8930801 11.7205969,12.7444799 11.9846656,12.8252409 C20.2059136,15.3395733 24.8513368,15.7643723 25.6637524,14.3572271 C26.476168,12.950082 23.7855698,9.13942702 17.49747,3.2767836 C17.2954946,3.08847393 17.2844163,2.77208533 17.472726,2.57010989 C17.6610356,2.36813445 17.9774242,2.35705615 18.1793997,2.54536582 C24.9024069,8.81349069 27.7173622,12.8002707 26.5297778,14.8572271 C25.3421934,16.9141836 20.4820631,16.4697508 11.6922041,13.7815182 Z M40.500105,4.33953617 C35.0170451,9.60095735 32.695651,13.0369437 33.4578851,14.3571717 C34.2703007,15.7643169 38.9157238,15.3395179 47.1369718,12.8251855 C47.4010405,12.7444245 47.6805802,12.8930247 47.7613412,13.1570934 C47.8421023,13.4211621 47.6935021,13.7007018 47.4294334,13.7814628 C38.6395744,16.4696954 33.779444,16.9141282 32.5918597,14.8571717 C31.4819657,12.9347791 33.8680574,9.32679778 39.6730043,3.74628018 C39.6730043,3.74628018 40.500105,4.33953617 40.500105,4.33953617 Z M6.76701705,53.0848902 C6.61295064,53.3140586 6.30227745,53.3749408 6.07310906,53.2208744 C5.84394067,53.066808 5.78305849,52.7561348 5.9371249,52.5269664 C19.7484269,31.9831391 26.4952471,20.2973037 25.6637531,18.8571138 C24.8513375,17.4499686 20.2059143,17.8747676 11.9846663,20.3891 C11.7205976,20.469861 11.4410579,20.3212608 11.3602969,20.0571921 C11.2795359,19.7931234 11.4281361,19.5135837 11.6922048,19.4328227 C20.4820637,16.74459 25.3421941,16.3001573 26.5297785,18.3571138 C27.6982844,20.3810254 21.2819748,31.4943998 6.76701705,53.0848902 Z" id="Combined-Shape" fill="url(#linearGradient-3)" fill-rule="nonzero" transform="translate(26.817677, 27.206524) rotate(-120.000000) translate(-26.817677, -27.206524) "></path>
                        <rect id="Rectangle" stroke="#9B79C1" fill="#EFE1FF" x="24.5" y="27" width="8" height="6" rx="3"></rect>
                        <rect id="Rectangle-Copy" stroke="#9B79C1" fill="#EFE1FF" x="35.5" y="27" width="8" height="6" rx="3"></rect>
                        <rect id="Rectangle-Copy-2" stroke="#9B79C1" fill="#EFE1FF" x="46.5" y="27" width="8" height="6" rx="3"></rect>
                        <circle id="Oval" stroke="#72295E" cx="16" cy="30" r="2"></circle>
                    </g>
                </g>
            </g>
        </g>
    </g>
</svg>